AsbirSans-Black.ufo
<glyph name="uni0022" format="2">
  <advance width="500"/>
  <unicode hex="0022"/>
  <outline>
    <contour>
      <point x="224.26793307325966" y="539.7698075229957" type="line"/>
      <point x="184.26793307325966" y="449.76980752299573" type="line"/>
      <point x="115.73206692674036" y="480.23019247700427" type="line"/>
      <point x="155.73206692674034" y="570.2301924770043" type="line"/>
    </contour>
    <contour>
      <point x="344.26793307325966" y="570.2301924770043" type="line"/>
      <point x="384.26793307325966" y="480.23019247700427" type="line"/>
      <point x="315.73206692674034" y="449.76980752299573" type="line"/>
      <point x="275.73206692674034" y="539.7698075229957" type="line"/>
    </contour>
  </outline>
</glyph>
<glyph name="uni0023" format="2">
  <advance width="560"/>
  <unicode hex="0023"/>
  <outline>
    <contour>
      <point x="160" y="80" type="line"/>
      <point x="310" y="80" type="line"/>
      <point x="310" y="620" type="line"/>
      <point x="160" y="620" type="line"/>
    </contour>
    <contour>
      <point x="300" y="80" type="line"/>
      <point x="450" y="80" type="line"/>
      <point x="450" y="620" type="line"/>
      <point x="300" y="620" type="line"/>
    </contour>
    <contour>
      <point x="80" y="240" type="line"/>
      <point x="420" y="240" type="line"/>
      <point x="420" y="390" type="line"/>
      <point x="80" y="390" type="line"/>
    </contour>
    <contour>
      <point x="80" y="400" type="line"/>
      <point x="420" y="400" type="line"/>
      <point x="420" y="550" type="line"/>
      <point x="80" y="550" type="line"/>
    </contour>
  </outline>
</glyph>
<glyph name="uni0025" format="2">
  <advance width="500"/>
  <unicode hex="0025"/>
  <outline>
    <contour>
      <point x="190" y="520" type="curve"/>
      <point x="190" y="550.37566125"/>
      <point x="165.37566125" y="575"/>
      <point x="135" y="575" type="curve"/>
      <point x="104.62433874999999" y="575"/>
      <point x="80" y="550.37566125"/>
      <point x="80" y="520" type="curve"/>
      <point x="80" y="489.62433875"/>
      <point x="104.62433874999999" y="465"/>
      <point x="135" y="465" type="curve"/>
      <point x="165.37566125" y="465"/>
      <point x="190" y="489.62433875"/>
    </contour>
    <contour>
      <point x="420" y="180" type="curve"/>
      <point x="420" y="210.37566125"/>
      <point x="395.37566125" y="235"/>
      <point x="365" y="235" type="curve"/>
      <point x="334.62433875" y="235"/>
      <point x="310" y="210.37566125"/>
      <point x="310" y="180" type="curve"/>
      <point x="310" y="149.62433875"/>
      <point x="334.62433875" y="125"/>
      <point x="365" y="125" type="curve"/>
      <point x="395.37566125" y="125"/>
      <point x="420" y="149.62433875"/>
    </contour>
    <contour>
      <point x="43.4184101413303" y="114.52378733412502" type="line"/>
      <point x="323.4184101413303" y="654.523787334125" type="line"/>
      <point x="456.5815898586697" y="585.476212665875" type="line"/>
      <point x="176.5815898586697" y="45.476212665874975" type="line"/>
    </contour>
  </outline>
</glyph>
<glyph name="uni0026" format="2">
  <advance width="500"/>
  <unicode hex="0026"/>
  <outline>
    <contour>
      <point x="350" y="220" type="curve"/>
      <point x="350" y="319.411255"/>
      <point x="291.7970175" y="400"/>
      <point x="220" y="400" type="curve"/>
      <point x="148.20298250000002" y="400"/>
      <point x="90" y="319.411255"/>
      <point x="90" y="220" type="curve"/>
      <point x="90" y="120.588745"/>
      <point x="148.20298250000002" y="40"/>
      <point x="220" y="40" type="curve"/>
      <point x="291.7970175" y="40"/>
      <point x="350" y="120.588745"/>
    </contour>
    <contour>
      <point x="228" y="220" type="curve"/>
      <point x="228" y="203.4314575"/>
      <point x="224.418278" y="190"/>
      <point x="220" y="190" type="curve"/>
      <point x="215.581722" y="190"/>
      <point x="212" y="203.4314575"/>
      <point x="212" y="220" type="curve"/>
      <point x="212" y="236.5685425"/>
      <point x="215.581722" y="250"/>
      <point x="220" y="250" type="curve"/>
      <point x="224.418278" y="250"/>
      <point x="228" y="236.5685425"/>
    </contour>
    <contour>
      <point x="177.5413727273434" y="612.6061799373382" type="line"/>
      <point x="457.5413727273434" y="32.60617993733819" type="line"/>
      <point x="322.4586272726566" y="-32.60617993733819" type="line"/>
      <point x="42.458627272656614" y="547.3938200626618" type="line"/>
    </contour>
    <contour>
      <point x="400" y="520" type="curve"/>
      <point x="400" y="586.27417"/>
      <point x="355.228475" y="640"/>
      <point x="300" y="640" type="curve"/>
      <point x="244.771525" y="640"/>
      <point x="200" y="586.27417"/>
      <point x="200" y="520" type="curve"/>
      <point x="200" y="453.72583"/>
      <point x="244.771525" y="400"/>
      <point x="300" y="400" type="curve"/>
      <point x="355.228475" y="400"/>
      <point x="400" y="453.72583"/>
    </contour>
  </outline>
</glyph>
<glyph name="uni0027" format="2">
  <advance width="250"/>
  <unicode hex="0027"/>
  <outline>
    <contour>
      <point x="284.26793307325966" y="570.2301924770043" type="line"/>
      <point x="324.26793307325966" y="480.23019247700427" type="line"/>
      <point x="255.73206692674034" y="449.76980752299573" type="line"/>
      <point x="215.73206692674034" y="539.7698075229957" type="line"/>
    </contour>
  </outline>
</glyph>
<glyph name="uni002A" format="2">
  <advance width="500"/>
  <unicode hex="002A"/>
  <outline>
    <contour>
      <point x="66.58833227267718" y="200.04947435409863" type="line"/>
      <point x="306.5883322726772" y="580.0494743540986" type="line"/>
      <point x="433.4116677273228" y="499.9505256459014" type="line"/>
      <point x="193.41166772732282" y="119.95052564590137" type="line"/>
    </contour>
    <contour>
      <point x="306.5883322726772" y="119.95052564590137" type="line"/>
      <point x="66.58833227267718" y="499.9505256459014" type="line"/>
      <point x="193.41166772732282" y="580.0494743540986" type="line"/>
      <point x="433.4116677273228" y="200.04947435409863" type="line"/>
    </contour>
    <contour>
      <point x="90" y="330" type="line"/>
      <point x="410" y="330" type="line"/>
      <point x="410" y="480" type="line"/>
      <point x="90" y="480" type="line"/>
    </contour>
  </outline>
</glyph>
<glyph name="uni002C" format="2">
  <advance width="250"/>
  <unicode hex="002C"/>
  <outline>
    <contour>
      <point x="325.0" y="35" type="curve"/>
      <point x="325.0" y="76.42135625"/>
      <point x="291.42135625000003" y="110.0"/>
      <point x="250" y="110.0" type="curve"/>
      <point x="208.57864375" y="110.0"/>
      <point x="175.0" y="76.42135625"/>
      <point x="175.0" y="35" type="curve"/>
      <point x="175.0" y="-6.421356250000002"/>
      <point x="208.57864375" y="-40.0"/>
      <point x="250" y="-40.0" type="curve"/>
      <point x="291.42135625000003" y="-40.0"/>
      <point x="325.0" y="-6.421356250000002"/>
    </contour>
    <contour>
      <point x="285.7159055199747" y="8.570910233608108" type="line"/>
      <point x="245.71590551997465" y="-116.4290897663919" type="line"/>
      <point x="174.28409448002535" y="-93.5709102336081" type="line"/>
      <point x="214.28409448002535" y="31.42908976639189" type="line"/>
    </contour>
  </outline>
</glyph>
<glyph name="uni002E" format="2">
  <advance width="250"/>
  <unicode hex="002E"/>
  <outline>
    <contour>
      <point x="325.0" y="35" type="curve"/>
      <point x="325.0" y="76.42135625"/>
      <point x="291.42135625000003" y="110.0"/>
      <point x="250" y="110.0" type="curve"/>
      <point x="208.57864375" y="110.0"/>
      <point x="175.0" y="76.42135625"/>
      <point x="175.0" y="35" type="curve"/>
      <point x="175.0" y="-6.421356250000002"/>
      <point x="208.57864375" y="-40.0"/>
      <point x="250" y="-40.0" type="curve"/>
      <point x="291.42135625000003" y="-40.0"/>
      <point x="325.0" y="-6.421356250000002"/>
    </contour>
  </outline>
</glyph>
<glyph name="uni002F" format="2">
  <advance width="500"/>
  <unicode hex="002F"/>
  <outline>
    <contour>
      <point x="49.6931045992676" y="26.113989720272034" type="line"/>
      <point x="309.6931045992676" y="726.113989720272" type="line"/>
      <point x="450.3068954007324" y="673.886010279728" type="line"/>
      <point x="190.3068954007324" y="-26.113989720272034" type="line"/>
    </contour>
  </outline>
</glyph>
<glyph name="uni0030" format="2">
  <advance width="500"/>
  <unicode hex="0030"/>
  <outline>
    <contour>
      <point x="430" y="350" type="curve"/>
      <point x="430" y="543.2996625000001"/>
      <point x="349.411255" y="700"/>
      <point x="250" y="700" type="curve"/>
      <point x="150.58874500000002" y="700"/>
      <point x="70" y="543.2996625000001"/>
      <point x="70" y="350" type="curve"/>
      <point x="70" y="156.7003375"/>
      <point x="150.58874500000002" y="0"/>
      <point x="250" y="0" type="curve"/>
      <point x="349.411255" y="0"/>
      <point x="430" y="156.7003375"/>
    </contour>
    <contour>
      <point x="280" y="350" type="curve"/>
      <point x="280" y="239.54305"/>
      <point x="266.5685425" y="150"/>
      <point x="250" y="150" type="curve"/>
      <point x="233.4314575" y="150"/>
      <point x="220" y="239.54305"/>
      <point x="220" y="350" type="curve"/>
      <point x="220" y="460.45695"/>
      <point x="233.4314575" y="550"/>
      <point x="250" y="550" type="curve"/>
      <point x="266.5685425" y="550"/>
      <point x="280" y="460.45695"/>
    </contour>
  </outline>
</glyph>
<glyph name="uni0031" format="2">
  <advance width="500"/>
  <unicode hex="0031"/>
  <outline>
    <contour>
      <point x="236" y="0" type="curve"/>
      <point x="350" y="0" type="line"/>
      <point x="359.9411255" y="0"/>
      <point x="368" y="8.0588745"/>
      <point x="368" y="18" type="curve"/>
      <point x="368" y="682" type="line"/>
      <point x="368" y="691.9411255"/>
      <point x="359.9411255" y="700"/>
      <point x="350" y="700" type="curve"/>
      <point x="236" y="700" type="line"/>
      <point x="226.0588745" y="700"/>
      <point x="218" y="691.9411255"/>
      <point x="218" y="682" type="curve"/>
      <point x="218" y="18" type="line"/>
      <point x="218" y="8.0588745"/>
      <point x="226.0588745" y="0"/>
    </contour>
    <contour>
      <point x="46.638740246675134" y="607.1058739437551" type="line"/>
      <point x="159.63874024667513" y="747.1058739437551" type="line"/>
      <point x="276.3612597533249" y="652.8941260562449" type="line"/>
      <point x="163.36125975332487" y="512.8941260562449" type="line"/>
    </contour>
  </outline>
</glyph>
<glyph name="uni0033" format="2">
  <advance width="500"/>
  <unicode hex="0033"/>
  <outline>
    <contour>
      <point x="366.5" y="685.0" type="line"/>
      <point x="283.8" y="712.0"/>
      <point x="103.5" y="688.0"/>
      <point x="96.0" y="434.0" type="curve"/>
      <point x="88.5" y="357.0"/>
      <point x="229.72" y="362.0"/>
      <point x="246.62" y="350" type="curve"/>
      <point x="283.8" y="266.0"/>
      <point x="413.0" y="329.0"/>
      <point x="407.0" y="203.0" type="curve"/>
      <point x="401.0" y="7.5"/>
      <point x="209.44" y="-9.0"/>
      <point x="88.5" y="21.000000000000004" type="curve"/>
      <point x="105.0" y="147.0" type="line"/>
      <point x="216.2" y="93.0"/>
      <point x="321.5" y="127.5"/>
      <point x="332.0" y="189.0" type="curve"/>
      <point x="338.0" y="315.0"/>
      <point x="266.9" y="308.0"/>
      <point x="236.48" y="354.5" type="curve"/>
      <point x="192.54" y="372.5"/>
      <point x="150.0" y="368.0"/>
      <point x="159.0" y="448.0" type="curve"/>
      <point x="168.0" y="607.0"/>
      <point x="277.04" y="632.5"/>
      <point x="371.0" y="553.0" type="curve"/>
    </contour>
    <contour>
      <point x="251" y="316" type="curve"/>
      <point x="339" y="316" type="line"/>
      <point x="347.836556" y="316"/>
      <point x="355" y="323.163444"/>
      <point x="355" y="332" type="curve"/>
      <point x="355" y="450" type="line"/>
      <point x="355" y="458.836556"/>
      <point x="347.836556" y="466"/>
      <point x="339" y="466" type="curve"/>
      <point x="251" y="466" type="line"/>
      <point x="242.163444" y="466"/>
      <point x="235" y="458.836556"/>
      <point x="235" y="450" type="curve"/>
      <point x="235" y="332" type="line"/>
      <point x="235" y="323.163444"/>
      <point x="242.163444" y="316"/>
    </contour>
  </outline>
</glyph>
<glyph name="uni0034" format="2">
  <advance width="500"/>
  <unicode hex="0034"/>
  <outline>
    <contour>
      <point x="218" y="0" type="curve"/>
      <point x="332" y="0" type="line"/>
      <point x="341.9411255" y="0"/>
      <point x="350" y="8.0588745"/>
      <point x="350" y="18" type="curve"/>
      <point x="350" y="682" type="line"/>
      <point x="350" y="691.9411255"/>
      <point x="341.9411255" y="700"/>
      <point x="332" y="700" type="curve"/>
      <point x="218" y="700" type="line"/>
      <point x="208.0588745" y="700"/>
      <point x="200" y="691.9411255"/>
      <point x="200" y="682" type="curve"/>
      <point x="200" y="18" type="line"/>
      <point x="200" y="8.0588745"/>
      <point x="208.0588745" y="0"/>
    </contour>
    <contour>
      <point x="10.478989008263113" y="308.1394568299887" type="line"/>
      <point x="180.4789890082631" y="728.1394568299887" type="line"/>
      <point x="319.5210109917369" y="671.8605431700113" type="line"/>
      <point x="149.5210109917369" y="251.86054317001125" type="line"/>
    </contour>
    <contour>
      <point x="96" y="280" type="curve"/>
      <point x="394" y="280" type="line"/>
      <point x="402.836556" y="280"/>
      <point x="410" y="287.163444"/>
      <point x="410" y="296" type="curve"/>
      <point x="410" y="414" type="line"/>
      <point x="410" y="422.836556"/>
      <point x="402.836556" y="430"/>
      <point x="394" y="430" type="curve"/>
      <point x="96" y="430" type="line"/>
      <point x="87.163444" y="430"/>
      <point x="80" y="422.836556"/>
      <point x="80" y="414" type="curve"/>
      <point x="80" y="296" type="line"/>
      <point x="80" y="287.163444"/>
      <point x="87.163444" y="280"/>
    </contour>
  </outline>
</glyph>
<glyph name="uni0036" format="2">
  <advance width="500"/>
  <unicode hex="0036"/>
  <outline>
    <contour>
      <point x="425" y="190" type="curve"/>
      <point x="425" y="294.9341025"/>
      <point x="346.64983125000003" y="380"/>
      <point x="250" y="380" type="curve"/>
      <point x="153.35016875" y="380"/>
      <point x="75" y="294.9341025"/>
      <point x="75" y="190" type="curve"/>
      <point x="75" y="85.0658975"/>
      <point x="153.35016875" y="0"/>
      <point x="250" y="0" type="curve"/>
      <point x="346.64983125000003" y="0"/>
      <point x="425" y="85.0658975"/>
    </contour>
    <contour>
      <point x="275" y="190" type="curve"/>
      <point x="275" y="167.90861"/>
      <point x="263.80711875" y="150"/>
      <point x="250" y="150" type="curve"/>
      <point x="236.19288125" y="150"/>
      <point x="225" y="167.90861"/>
      <point x="225" y="190" type="curve"/>
      <point x="225" y="212.09139"/>
      <point x="236.19288125" y="230"/>
      <point x="250" y="230" type="curve"/>
      <point x="263.80711875" y="230"/>
      <point x="275" y="212.09139"/>
    </contour>
    <contour>
      <point x="75" y="190" type="line"/>
      <point x="75" y="505"/>
      <point x="188" y="710"/>
      <point x="352" y="710" type="curve"/>
      <point x="385" y="646" type="line"/>
      <point x="250" y="636"/>
      <point x="139" y="492"/>
      <point x="139" y="220" type="curve"/>
    </contour>
  </outline>
</glyph>
<glyph name="uni0037" format="2">
  <advance width="500"/>
  <unicode hex="0037"/>
  <outline>
    <contour>
      <point x="86" y="550" type="curve"/>
      <point x="414" y="550" type="line"/>
      <point x="422.836556" y="550"/>
      <point x="430" y="557.163444"/>
      <point x="430" y="566" type="curve"/>
      <point x="430" y="684" type="line"/>
      <point x="430" y="692.836556"/>
      <point x="422.836556" y="700"/>
      <point x="414" y="700" type="curve"/>
      <point x="86" y="700" type="line"/>
      <point x="77.163444" y="700"/>
      <point x="70" y="692.836556"/>
      <point x="70" y="684" type="curve"/>
      <point x="70" y="566" type="line"/>
      <point x="70" y="557.163444"/>
      <point x="77.163444" y="550"/>
    </contour>
    <contour>
      <point x="480.0153465564247" y="598.1141069223329" type="line"/>
      <point x="240.0153465564247" y="-26.885893077667088" type="line"/>
      <point x="99.9846534435753" y="26.885893077667088" type="line"/>
      <point x="339.9846534435753" y="651.8858930776671" type="line"/>
    </contour>
  </outline>
</glyph>
<glyph name="uni0038" format="2">
  <advance width="500"/>
  <unicode hex="0038"/>
  <outline>
    <contour>
      <point x="415" y="525" type="curve"/>
      <point x="415" y="613.36556"/>
      <point x="341.12698375" y="685"/>
      <point x="250" y="685" type="curve"/>
      <point x="158.87301625" y="685"/>
      <point x="85" y="613.36556"/>
      <point x="85" y="525" type="curve"/>
      <point x="85" y="436.63444"/>
      <point x="158.87301625" y="365"/>
      <point x="250" y="365" type="curve"/>
      <point x="341.12698375" y="365"/>
      <point x="415" y="436.63444"/>
    </contour>
    <contour>
      <point x="265" y="525" type="curve"/>
      <point x="265" y="519.4771525"/>
      <point x="258.28427125" y="515"/>
      <point x="250" y="515" type="curve"/>
      <point x="241.71572875" y="515"/>
      <point x="235" y="519.4771525"/>
      <point x="235" y="525" type="curve"/>
      <point x="235" y="530.5228475"/>
      <point x="241.71572875" y="535"/>
      <point x="250" y="535" type="curve"/>
      <point x="258.28427125" y="535"/>
      <point x="265" y="530.5228475"/>
    </contour>
    <contour>
      <point x="415" y="175" type="curve"/>
      <point x="415" y="263.36556"/>
      <point x="341.12698375" y="335"/>
      <point x="250" y="335" type="curve"/>
      <point x="158.87301625" y="335"/>
      <point x="85" y="263.36556"/>
      <point x="85" y="175" type="curve"/>
      <point x="85" y="86.63444"/>
      <point x="158.87301625" y="15"/>
      <point x="250" y="15" type="curve"/>
      <point x="341.12698375" y="15"/>
      <point x="415" y="86.63444"/>
    </contour>
    <contour>
      <point x="265" y="175" type="curve"/>
      <point x="265" y="169.4771525"/>
      <point x="258.28427125" y="165"/>
      <point x="250" y="165" type="curve"/>
      <point x="241.71572875" y="165"/>
      <point x="235" y="169.4771525"/>
      <point x="235" y="175" type="curve"/>
      <point x="235" y="180.5228475"/>
      <point x="241.71572875" y="185"/>
      <point x="250" y="185" type="curve"/>
      <point x="258.28427125" y="185"/>
      <point x="265" y="180.5228475"/>
    </contour>
  </outline>
</glyph>
<glyph name="uni0039" format="2">
  <advance width="500"/>
  <unicode hex="0039"/>
  <outline>
    <contour>
      <point x="425" y="510" type="curve"/>
      <point x="425" y="614.9341025"/>
      <point x="346.64983125000003" y="700"/>
      <point x="250" y="700" type="curve"/>
      <point x="153.35016875" y="700"/>
      <point x="75" y="614.9341025"/>
      <point x="75" y="510" type="curve"/>
      <point x="75" y="405.0658975"/>
      <point x="153.35016875" y="320"/>
      <point x="250" y="320" type="curve"/>
      <point x="346.64983125000003" y="320"/>
      <point x="425" y="405.0658975"/>
    </contour>
    <contour>
      <point x="275" y="510" type="curve"/>
      <point x="275" y="487.90861"/>
      <point x="263.80711875" y="470"/>
      <point x="250" y="470" type="curve"/>
      <point x="236.19288125" y="470"/>
      <point x="225" y="487.90861"/>
      <point x="225" y="510" type="curve"/>
      <point x="225" y="532.09139"/>
      <point x="236.19288125" y="550"/>
      <point x="250" y="550" type="curve"/>
      <point x="263.80711875" y="550"/>
      <point x="275" y="532.09139"/>
    </contour>
    <contour>
      <point x="425" y="510" type="line"/>
      <point x="425" y="194"/>
      <point x="312" y="-10"/>
      <point x="148" y="-10" type="curve"/>
      <point x="115" y="54" type="line"/>
      <point x="250" y="64"/>
      <point x="361" y="208"/>
      <point x="361" y="480" type="curve"/>
    </contour>
  </outline>
</glyph>
<glyph name="uni003A" format="2">
  <advance width="250"/>
  <unicode hex="003A"/>
  <outline>
    <contour>
      <point x="325.0" y="390" type="curve"/>
      <point x="325.0" y="431.42135625000003"/>
      <point x="291.42135625000003" y="465.0"/>
      <point x="250" y="465.0" type="curve"/>
      <point x="208.57864375" y="465.0"/>
      <point x="175.0" y="431.42135625000003"/>
      <point x="175.0" y="390" type="curve"/>
      <point x="175.0" y="348.57864374999997"/>
      <point x="208.57864375" y="315.0"/>
      <point x="250" y="315.0" type="curve"/>
      <point x="291.42135625000003" y="315.0"/>
      <point x="325.0" y="348.57864374999997"/>
    </contour>
    <contour>
      <point x="325.0" y="35" type="curve"/>
      <point x="325.0" y="76.42135625"/>
      <point x="291.42135625000003" y="110.0"/>
      <point x="250" y="110.0" type="curve"/>
      <point x="208.57864375" y="110.0"/>
      <point x="175.0" y="76.42135625"/>
      <point x="175.0" y="35" type="curve"/>
      <point x="175.0" y="-6.421356250000002"/>
      <point x="208.57864375" y="-40.0"/>
      <point x="250" y="-40.0" type="curve"/>
      <point x="291.42135625000003" y="-40.0"/>
      <point x="325.0" y="-6.421356250000002"/>
    </contour>
  </outline>
</glyph>
<glyph name="uni003D" format="2">
  <advance width="500"/>
  <unicode hex="003D"/>
  <outline>
    <contour>
      <point x="90" y="230" type="line"/>
      <point x="410" y="230" type="line"/>
      <point x="410" y="380" type="line"/>
      <point x="90" y="380" type="line"/>
    </contour>
    <contour>
      <point x="90" y="390" type="line"/>
      <point x="410" y="390" type="line"/>
      <point x="410" y="540" type="line"/>
      <point x="90" y="540" type="line"/>
    </contour>
  </outline>
</glyph>
<glyph name="uni003F" format="2">
  <advance width="500"/>
  <unicode hex="003F"/>
  <outline>
    <contour>
      <point x="105" y="405" type="line"/>
      <point x="355" y="405" type="line"/>
      <point x="355" y="555" type="line"/>
      <point x="105" y="555" type="line"/>
    </contour>
    <contour>
      <point x="205" y="300" type="line"/>
      <point x="355" y="300" type="line"/>
      <point x="355" y="555" type="line"/>
      <point x="205" y="555" type="line"/>
    </contour>
    <contour>
      <point x="215" y="190" type="line"/>
      <point x="365" y="190" type="line"/>
      <point x="365" y="300" type="line"/>
      <point x="215" y="300" type="line"/>
    </contour>
    <contour>
      <point x="325.0" y="35" type="curve"/>
      <point x="325.0" y="76.42135625"/>
      <point x="291.42135625000003" y="110.0"/>
      <point x="250" y="110.0" type="curve"/>
      <point x="208.57864375" y="110.0"/>
      <point x="175.0" y="76.42135625"/>
      <point x="175.0" y="35" type="curve"/>
      <point x="175.0" y="-6.421356250000002"/>
      <point x="208.57864375" y="-40.0"/>
      <point x="250" y="-40.0" type="curve"/>
      <point x="291.42135625000003" y="-40.0"/>
      <point x="325.0" y="-6.421356250000002"/>
    </contour>
  </outline>
</glyph>
<glyph name="uni0040" format="2">
  <advance width="560"/>
  <unicode hex="0040"/>
  <outline>
    <contour>
      <point x="460" y="350" type="curve"/>
      <point x="460" y="504.63973"/>
      <point x="365.9797975" y="630"/>
      <point x="250" y="630" type="curve"/>
      <point x="134.02020249999998" y="630"/>
      <point x="40" y="504.63973"/>
      <point x="40" y="350" type="curve"/>
      <point x="40" y="195.36027"/>
      <point x="134.02020249999998" y="70"/>
      <point x="250" y="70" type="curve"/>
      <point x="365.9797975" y="70"/>
      <point x="460" y="195.36027"/>
    </contour>
    <contour>
      <point x="310" y="350" type="curve"/>
      <point x="310" y="278.2029825"/>
      <point x="283.137085" y="220"/>
      <point x="250" y="220" type="curve"/>
      <point x="216.862915" y="220"/>
      <point x="190" y="278.2029825"/>
      <point x="190" y="350" type="curve"/>
      <point x="190" y="421.7970175"/>
      <point x="216.862915" y="480"/>
      <point x="250" y="480" type="curve"/>
      <point x="283.137085" y="480"/>
      <point x="310" y="421.7970175"/>
    </contour>
    <contour>
      <point x="360" y="350" type="curve"/>
      <point x="360" y="416.27417"/>
      <point x="315.228475" y="470"/>
      <point x="260" y="470" type="curve"/>
      <point x="204.771525" y="470"/>
      <point x="160" y="416.27417"/>
      <point x="160" y="350" type="curve"/>
      <point x="160" y="283.72583"/>
      <point x="204.771525" y="230"/>
      <point x="260" y="230" type="curve"/>
      <point x="315.228475" y="230"/>
      <point x="360" y="283.72583"/>
    </contour>
    <contour>
      <point x="268" y="350" type="curve"/>
      <point x="268" y="345.581722"/>
      <point x="264.418278" y="342"/>
      <point x="260" y="342" type="curve"/>
      <point x="255.581722" y="342"/>
      <point x="252" y="345.581722"/>
      <point x="252" y="350" type="curve"/>
      <point x="252" y="354.418278"/>
      <point x="255.581722" y="358"/>
      <point x="260" y="358" type="curve"/>
      <point x="264.418278" y="358"/>
      <point x="268" y="354.418278"/>
    </contour>
    <contour>
      <point x="320" y="290" type="line"/>
      <point x="470" y="290" type="line"/>
      <point x="470" y="440" type="line"/>
      <point x="320" y="440" type="line"/>
    </contour>
  </outline>
</glyph>
<glyph name="A" format="2">
  <advance width="500"/>
  <unicode hex="0041"/>
  <outline>
    <contour>
      <point x="-1.3778600085791908" y="15.5141761160996" type="line"/>
      <point x="146.6221399914208" y="715.5141761160996" type="line"/>
      <point x="293.3778600085792" y="684.4858238839004" type="line"/>
      <point x="145.3778600085792" y="-15.5141761160996" type="line"/>
    </contour>
    <contour>
      <point x="354.6221399914208" y="-15.5141761160996" type="line"/>
      <point x="206.6221399914208" y="684.4858238839004" type="line"/>
      <point x="353.3778600085792" y="715.5141761160996" type="line"/>
      <point x="501.3778600085792" y="15.5141761160996" type="line"/>
    </contour>
    <contour>
      <point x="167" y="286" type="curve"/>
      <point x="333" y="286" type="line"/>
      <point x="341.836556" y="286"/>
      <point x="349" y="293.163444"/>
      <point x="349" y="302" type="curve"/>
      <point x="349" y="393.0" type="line"/>
      <point x="349" y="401.836556"/>
      <point x="341.836556" y="409.0"/>
      <point x="333" y="409.0" type="curve"/>
      <point x="167" y="409.0" type="line"/>
      <point x="158.163444" y="409.0"/>
      <point x="151" y="401.836556"/>
      <point x="151" y="393.0" type="curve"/>
      <point x="151" y="302" type="line"/>
      <point x="151" y="293.163444"/>
      <point x="158.163444" y="286"/>
    </contour>
  </outline>
</glyph>
<glyph name="B" format="2">
  <advance width="500"/>
  <unicode hex="0042"/>
  <outline>
    <contour>
      <point x="40" y="0" type="line"/>
      <point x="190" y="0" type="line"/>
      <point x="190" y="700" type="line"/>
      <point x="40" y="700" type="line"/>
    </contour>
    <contour>
      <point x="435" y="525" type="curve"/>
      <point x="435" y="613.36556"/>
      <point x="349.9341025" y="685"/>
      <point x="245" y="685" type="curve"/>
      <point x="140.0658975" y="685"/>
      <point x="55" y="613.36556"/>
      <point x="55" y="525" type="curve"/>
      <point x="55" y="436.63444"/>
      <point x="140.0658975" y="365"/>
      <point x="245" y="365" type="curve"/>
      <point x="349.9341025" y="365"/>
      <point x="435" y="436.63444"/>
    </contour>
    <contour>
      <point x="285" y="525" type="curve"/>
      <point x="285" y="519.4771525"/>
      <point x="267.09139" y="515"/>
      <point x="245" y="515" type="curve"/>
      <point x="222.90861" y="515"/>
      <point x="205" y="519.4771525"/>
      <point x="205" y="525" type="curve"/>
      <point x="205" y="530.5228475"/>
      <point x="222.90861" y="535"/>
      <point x="245" y="535" type="curve"/>
      <point x="267.09139" y="535"/>
      <point x="285" y="530.5228475"/>
    </contour>
    <contour>
      <point x="435" y="175" type="curve"/>
      <point x="435" y="263.36556"/>
      <point x="349.9341025" y="335"/>
      <point x="245" y="335" type="curve"/>
      <point x="140.0658975" y="335"/>
      <point x="55" y="263.36556"/>
      <point x="55" y="175" type="curve"/>
      <point x="55" y="86.63444"/>
      <point x="140.0658975" y="15"/>
      <point x="245" y="15" type="curve"/>
      <point x="349.9341025" y="15"/>
      <point x="435" y="86.63444"/>
    </contour>
    <contour>
      <point x="285" y="175" type="curve"/>
      <point x="285" y="169.4771525"/>
      <point x="267.09139" y="165"/>
      <point x="245" y="165" type="curve"/>
      <point x="222.90861" y="165"/>
      <point x="205" y="169.4771525"/>
      <point x="205" y="175" type="curve"/>
      <point x="205" y="180.5228475"/>
      <point x="222.90861" y="185"/>
      <point x="245" y="185" type="curve"/>
      <point x="267.09139" y="185"/>
      <point x="285" y="180.5228475"/>
    </contour>
  </outline>
</glyph>
<glyph name="D" format="2">
  <advance width="500"/>
  <unicode hex="0044"/>
  <outline>
    <contour>
      <point x="460" y="350" type="curve"/>
      <point x="460" y="543.2996625000001"/>
      <point x="365.9797975" y="700"/>
      <point x="250" y="700" type="curve"/>
      <point x="134.02020249999998" y="700"/>
      <point x="40" y="543.2996625000001"/>
      <point x="40" y="350" type="curve"/>
      <point x="40" y="156.7003375"/>
      <point x="134.02020249999998" y="0"/>
      <point x="250" y="0" type="curve"/>
      <point x="365.9797975" y="0"/>
      <point x="460" y="156.7003375"/>
    </contour>
    <contour>
      <point x="310" y="350" type="curve"/>
      <point x="310" y="239.54305"/>
      <point x="283.137085" y="150"/>
      <point x="250" y="150" type="curve"/>
      <point x="216.862915" y="150"/>
      <point x="190" y="239.54305"/>
      <point x="190" y="350" type="curve"/>
      <point x="190" y="460.45695"/>
      <point x="216.862915" y="550"/>
      <point x="250" y="550" type="curve"/>
      <point x="283.137085" y="550"/>
      <point x="310" y="460.45695"/>
    </contour>
    <contour>
      <point x="40" y="0" type="line"/>
      <point x="190" y="0" type="line"/>
      <point x="190" y="700" type="line"/>
      <point x="40" y="700" type="line"/>
    </contour>
  </outline>
</glyph>
<glyph name="E" format="2">
  <advance width="500"/>
  <unicode hex="0045"/>
  <outline>
    <contour>
      <point x="40" y="0" type="line"/>
      <point x="190" y="0" type="line"/>
      <point x="190" y="700" type="line"/>
      <point x="40" y="700" type="line"/>
    </contour>
    <contour>
      <point x="40" y="550" type="line"/>
      <point x="430" y="550" type="line"/>
      <point x="430" y="700" type="line"/>
      <point x="40" y="700" type="line"/>
    </contour>
    <contour>
      <point x="40" y="310" type="line"/>
      <point x="350" y="310" type="line"/>
      <point x="350" y="460" type="line"/>
      <point x="40" y="460" type="line"/>
    </contour>
    <contour>
      <point x="40" y="0" type="line"/>
      <point x="430" y="0" type="line"/>
      <point x="430" y="150" type="line"/>
      <point x="40" y="150" type="line"/>
    </contour>
  </outline>
</glyph>
<glyph name="G" format="2">
  <advance width="500"/>
  <unicode hex="0047"/>
  <outline>
    <contour>
      <point x="419.48" y="588.0" type="line"/>
      <point x="353.76" y="700"/>
      <point x="162.96" y="700"/>
      <point x="40" y="500.5" type="curve"/>
      <point x="40" y="199.5"/>
      <point x="162.96" y="0"/>
      <point x="353.76" y="0" type="curve"/>
      <point x="406.76" y="87.5"/>
      <point x="419.48" y="147.0"/>
      <point x="419.48" y="175.0" type="curve"/>
      <point x="300.98" y="213.5" type="line"/>
      <point x="332.56" y="150"/>
      <point x="190" y="238.0"/>
      <point x="190" y="350" type="curve"/>
      <point x="190" y="462.0"/>
      <point x="332.56" y="550"/>
      <point x="300.98" y="486.5" type="curve"/>
    </contour>
    <contour>
      <point x="268" y="294" type="curve"/>
      <point x="422" y="294" type="line"/>
      <point x="431.9411255" y="294"/>
      <point x="440" y="302.0588745"/>
      <point x="440" y="312" type="curve"/>
      <point x="440" y="426" type="line"/>
      <point x="440" y="435.9411255"/>
      <point x="431.9411255" y="444"/>
      <point x="422" y="444" type="curve"/>
      <point x="268" y="444" type="line"/>
      <point x="258.0588745" y="444"/>
      <point x="250" y="435.9411255"/>
      <point x="250" y="426" type="curve"/>
      <point x="250" y="312" type="line"/>
      <point x="250" y="302.0588745"/>
      <point x="258.0588745" y="294"/>
    </contour>
    <contour>
      <point x="394" y="132" type="curve"/>
      <point x="508" y="132" type="line"/>
      <point x="517.9411255" y="132"/>
      <point x="526" y="140.0588745"/>
      <point x="526" y="150" type="curve"/>
      <point x="526" y="282" type="line"/>
      <point x="526" y="291.9411255"/>
      <point x="517.9411255" y="300"/>
      <point x="508" y="300" type="curve"/>
      <point x="394" y="300" type="line"/>
      <point x="384.0588745" y="300"/>
      <point x="376" y="291.9411255"/>
      <point x="376" y="282" type="curve"/>
      <point x="376" y="150" type="line"/>
      <point x="376" y="140.0588745"/>
      <point x="384.0588745" y="132"/>
    </contour>
  </outline>
</glyph>
<glyph name="H" format="2">
  <advance width="500"/>
  <unicode hex="0048"/>
  <outline>
    <contour>
      <point x="40" y="0" type="line"/>
      <point x="190" y="0" type="line"/>
      <point x="190" y="700" type="line"/>
      <point x="40" y="700" type="line"/>
    </contour>
    <contour>
      <point x="396" y="0" type="line"/>
      <point x="546" y="0" type="line"/>
      <point x="546" y="700" type="line"/>
      <point x="396" y="700" type="line"/>
    </contour>
    <contour>
      <point x="40" y="320" type="line"/>
      <point x="460" y="320" type="line"/>
      <point x="460" y="470" type="line"/>
      <point x="40" y="470" type="line"/>
    </contour>
  </outline>
</glyph>
<glyph name="K" format="2">
  <advance width="500"/>
  <unicode hex="004B"/>
  <outline>
    <contour>
      <point x="40" y="0" type="line"/>
      <point x="190" y="0" type="line"/>
      <point x="190" y="700" type="line"/>
      <point x="40" y="700" type="line"/>
    </contour>
    <contour>
      <point x="484.8812603699831" y="648.8820260553871" type="line"/>
      <point x="158.88126036998312" y="298.88202605538714" type="line"/>
      <point x="49.11873963001687" y="401.11797394461286" type="line"/>
      <point x="375.1187396300169" y="751.1179739446129" type="line"/>
    </contour>
    <contour>
      <point x="158.10404907732138" y="401.9398871142285" type="line"/>
      <point x="494.10404907732135" y="51.93988711422851" type="line"/>
      <point x="385.89595092267865" y="-51.93988711422851" type="line"/>
      <point x="49.89595092267863" y="298.0601128857715" type="line"/>
    </contour>
  </outline>
</glyph>
<glyph name="L" format="2">
  <advance width="500"/>
  <unicode hex="004C"/>
  <outline>
    <contour>
      <point x="40" y="0" type="line"/>
      <point x="190" y="0" type="line"/>
      <point x="190" y="700" type="line"/>
      <point x="40" y="700" type="line"/>
    </contour>
    <contour>
      <point x="40" y="0" type="line"/>
      <point x="440" y="0" type="line"/>
      <point x="440" y="150" type="line"/>
      <point x="40" y="150" type="line"/>
    </contour>
  </outline>
</glyph>
<glyph name="M" format="2">
  <advance width="560"/>
  <unicode hex="004D"/>
  <outline>
    <contour>
      <point x="40" y="0" type="line"/>
      <point x="190" y="0" type="line"/>
      <point x="190" y="700" type="line"/>
      <point x="40" y="700" type="line"/>
    </contour>
    <contour>
      <point x="430" y="0" type="line"/>
      <point x="580" y="0" type="line"/>
      <point x="580" y="700" type="line"/>
      <point x="430" y="700" type="line"/>
    </contour>
    <contour>
      <point x="173.21906124122637" y="728.8742369749116" type="line"/>
      <point x="319.21906124122637" y="378.8742369749116" type="line"/>
      <point x="180.78093875877363" y="321.1257630250884" type="line"/>
      <point x="34.780938758773615" y="671.1257630250884" type="line"/>
    </contour>
    <contour>
      <point x="465.21906124122637" y="671.1257630250884" type="line"/>
      <point x="319.21906124122637" y="321.1257630250884" type="line"/>
      <point x="180.78093875877363" y="378.8742369749116" type="line"/>
      <point x="326.78093875877363" y="728.8742369749116" type="line"/>
    </contour>
  </outline>
</glyph>
<glyph name="N" format="2">
  <advance width="500"/>
  <unicode hex="004E"/>
  <outline>
    <contour>
      <point x="40" y="0" type="line"/>
      <point x="190" y="0" type="line"/>
      <point x="190" y="700" type="line"/>
      <point x="40" y="700" type="line"/>
    </contour>
    <contour>
      <point x="396" y="0" type="line"/>
      <point x="546" y="0" type="line"/>
      <point x="546" y="700" type="line"/>
      <point x="396" y="700" type="line"/>
    </contour>
    <contour>
      <point x="173.21906124122637" y="728.8742369749116" type="line"/>
      <point x="465.21906124122637" y="28.87423697491158" type="line"/>
      <point x="326.78093875877363" y="-28.87423697491158" type="line"/>
      <point x="34.780938758773615" y="671.1257630250884" type="line"/>
    </contour>
  </outline>
</glyph>
<glyph name="P" format="2">
  <advance width="500"/>
  <unicode hex="0050"/>
  <outline>
    <contour>
      <point x="40" y="0" type="line"/>
      <point x="190" y="0" type="line"/>
      <point x="190" y="700" type="line"/>
      <point x="40" y="700" type="line"/>
    </contour>
    <contour>
      <point x="435" y="525" type="curve"/>
      <point x="435" y="613.36556"/>
      <point x="349.9341025" y="685"/>
      <point x="245" y="685" type="curve"/>
      <point x="140.0658975" y="685"/>
      <point x="55" y="613.36556"/>
      <point x="55" y="525" type="curve"/>
      <point x="55" y="436.63444"/>
      <point x="140.0658975" y="365"/>
      <point x="245" y="365" type="curve"/>
      <point x="349.9341025" y="365"/>
      <point x="435" y="436.63444"/>
    </contour>
    <contour>
      <point x="285" y="525" type="curve"/>
      <point x="285" y="519.4771525"/>
      <point x="267.09139" y="515"/>
      <point x="245" y="515" type="curve"/>
      <point x="222.90861" y="515"/>
      <point x="205" y="519.4771525"/>
      <point x="205" y="525" type="curve"/>
      <point x="205" y="530.5228475"/>
      <point x="222.90861" y="535"/>
      <point x="245" y="535" type="curve"/>
      <point x="267.09139" y="535"/>
      <point x="285" y="530.5228475"/>
    </contour>
  </outline>
</glyph>
<glyph name="Q" format="2">
  <advance width="500"/>
  <unicode hex="0051"/>
  <outline>
    <contour>
      <point x="460" y="350" type="curve"/>
      <point x="460" y="543.2996625000001"/>
      <point x="365.9797975" y="700"/>
      <point x="250" y="700" type="curve"/>
      <point x="134.02020249999998" y="700"/>
      <point x="40" y="543.2996625000001"/>
      <point x="40" y="350" type="curve"/>
      <point x="40" y="156.7003375"/>
      <point x="134.02020249999998" y="0"/>
      <point x="250" y="0" type="curve"/>
      <point x="365.9797975" y="0"/>
      <point x="460" y="156.7003375"/>
    </contour>
    <contour>
      <point x="310" y="350" type="curve"/>
      <point x="310" y="239.54305"/>
      <point x="283.137085" y="150"/>
      <point x="250" y="150" type="curve"/>
      <point x="216.862915" y="150"/>
      <point x="190" y="239.54305"/>
      <point x="190" y="350" type="curve"/>
      <point x="190" y="460.45695"/>
      <point x="216.862915" y="550"/>
      <point x="250" y="550" type="curve"/>
      <point x="283.137085" y="550"/>
      <point x="310" y="460.45695"/>
    </contour>
    <contour>
      <point x="349.5692054638979" y="186.45096515167518" type="line"/>
      <point x="514.5692054638979" y="11.450965151675177" type="line"/>
      <point x="405.4307945361021" y="-91.45096515167518" type="line"/>
      <point x="240.4307945361021" y="83.54903484832482" type="line"/>
    </contour>
  </outline>
</glyph>
<glyph name="R" format="2">
  <advance width="500"/>
  <unicode hex="0052"/>
  <outline>
    <contour>
      <point x="40" y="0" type="line"/>
      <point x="190" y="0" type="line"/>
      <point x="190" y="700" type="line"/>
      <point x="40" y="700" type="line"/>
    </contour>
    <contour>
      <point x="435" y="525" type="curve"/>
      <point x="435" y="613.36556"/>
      <point x="349.9341025" y="685"/>
      <point x="245" y="685" type="curve"/>
      <point x="140.0658975" y="685"/>
      <point x="55" y="613.36556"/>
      <point x="55" y="525" type="curve"/>
      <point x="55" y="436.63444"/>
      <point x="140.0658975" y="365"/>
      <point x="245" y="365" type="curve"/>
      <point x="349.9341025" y="365"/>
      <point x="435" y="436.63444"/>
    </contour>
    <contour>
      <point x="285" y="525" type="curve"/>
      <point x="285" y="519.4771525"/>
      <point x="267.09139" y="515"/>
      <point x="245" y="515" type="curve"/>
      <point x="222.90861" y="515"/>
      <point x="205" y="519.4771525"/>
      <point x="205" y="525" type="curve"/>
      <point x="205" y="530.5228475"/>
      <point x="222.90861" y="535"/>
      <point x="245" y="535" type="curve"/>
      <point x="267.09139" y="535"/>
      <point x="285" y="530.5228475"/>
    </contour>
    <contour>
      <point x="316.3288564635227" y="395.0068964668592" type="line"/>
      <point x="506.3288564635227" y="35.00689646685922" type="line"/>
      <point x="373.6711435364773" y="-35.00689646685922" type="line"/>
      <point x="183.67114353647727" y="324.9931035331408" type="line"/>
    </contour>
  </outline>
</glyph>
<glyph name="S" format="2">
  <advance width="500"/>
  <unicode hex="0053"/>
  <outline>
    <contour>
      <point x="382.5" y="685.0" type="line"/>
      <point x="287.0" y="712.0"/>
      <point x="87.5" y="688.0"/>
      <point x="80.0" y="434.0" type="curve"/>
      <point x="72.5" y="357.0"/>
      <point x="227.8" y="362.0"/>
      <point x="246.3" y="350" type="curve"/>
      <point x="287.0" y="266.0"/>
      <point x="429.0" y="329.0"/>
      <point x="423.0" y="203.0" type="curve"/>
      <point x="417.0" y="7.5"/>
      <point x="205.6" y="-9.0"/>
      <point x="72.5" y="21.000000000000004" type="curve"/>
      <point x="89.0" y="147.0" type="line"/>
      <point x="213.0" y="93.0"/>
      <point x="337.5" y="127.5"/>
      <point x="348.0" y="189.0" type="curve"/>
      <point x="354.0" y="315.0"/>
      <point x="268.5" y="308.0"/>
      <point x="235.2" y="354.5" type="curve"/>
      <point x="187.1" y="372.5"/>
      <point x="134.0" y="368.0"/>
      <point x="143.0" y="448.0" type="curve"/>
      <point x="152.0" y="607.0"/>
      <point x="279.6" y="632.5"/>
      <point x="387.0" y="553.0" type="curve"/>
    </contour>
  </outline>
</glyph>
<glyph name="T" format="2">
  <advance width="500"/>
  <unicode hex="0054"/>
  <outline>
    <contour>
      <point x="40" y="550" type="line"/>
      <point x="460" y="550" type="line"/>
      <point x="460" y="700" type="line"/>
      <point x="40" y="700" type="line"/>
    </contour>
    <contour>
      <point x="218" y="0" type="line"/>
      <point x="368" y="0" type="line"/>
      <point x="368" y="700" type="line"/>
      <point x="218" y="700" type="line"/>
    </contour>
  </outline>
</glyph>
<glyph name="U" format="2">
  <advance width="500"/>
  <unicode hex="0055"/>
  <outline>
    <contour>
      <point x="58" y="210" type="curve"/>
      <point x="172" y="210" type="line"/>
      <point x="181.9411255" y="210"/>
      <point x="190" y="218.0588745"/>
      <point x="190" y="228" type="curve"/>
      <point x="190" y="682" type="line"/>
      <point x="190" y="691.9411255"/>
      <point x="181.9411255" y="700"/>
      <point x="172" y="700" type="curve"/>
      <point x="58" y="700" type="line"/>
      <point x="48.0588745" y="700"/>
      <point x="40" y="691.9411255"/>
      <point x="40" y="682" type="curve"/>
      <point x="40" y="228" type="line"/>
      <point x="40" y="218.0588745"/>
      <point x="48.0588745" y="210"/>
    </contour>
    <contour>
      <point x="414" y="210" type="curve"/>
      <point x="528" y="210" type="line"/>
      <point x="537.9411255" y="210"/>
      <point x="546" y="218.0588745"/>
      <point x="546" y="228" type="curve"/>
      <point x="546" y="682" type="line"/>
      <point x="546" y="691.9411255"/>
      <point x="537.9411255" y="700"/>
      <point x="528" y="700" type="curve"/>
      <point x="414" y="700" type="line"/>
      <point x="404.0588745" y="700"/>
      <point x="396" y="691.9411255"/>
      <point x="396" y="682" type="curve"/>
      <point x="396" y="228" type="line"/>
      <point x="396" y="218.0588745"/>
      <point x="404.0588745" y="210"/>
    </contour>
    <contour>
      <point x="40" y="210" type="line"/>
      <point x="40" y="68"/>
      <point x="127" y="-8"/>
      <point x="250" y="-8" type="curve"/>
      <point x="373" y="-8"/>
      <point x="460" y="68"/>
      <point x="460" y="210" type="curve"/>
      <point x="396" y="210" type="line"/>
      <point x="396" y="104"/>
      <point x="345" y="54"/>
      <point x="250" y="54" type="curve"/>
      <point x="155" y="54"/>
      <point x="104" y="104"/>
      <point x="104" y="210" type="curve"/>
    </contour>
  </outline>
</glyph>
<glyph name="V" format="2">
  <advance width="500"/>
  <unicode hex="0056"/>
  <outline>
    <contour>
      <point x="147.76068751089988" y="718.190171877725" type="line"/>
      <point x="322.76068751089986" y="18.19017187772497" type="line"/>
      <point x="177.23931248910012" y="-18.19017187772497" type="line"/>
      <point x="2.239312489100115" y="681.809828122275" type="line"/>
    </contour>
    <contour>
      <point x="497.76068751089986" y="681.809828122275" type="line"/>
      <point x="322.76068751089986" y="-18.19017187772497" type="line"/>
      <point x="177.23931248910012" y="18.19017187772497" type="line"/>
      <point x="352.23931248910014" y="718.190171877725" type="line"/>
    </contour>
  </outline>
</glyph>
<glyph name="W" format="2">
  <advance width="560"/>
  <unicode hex="0057"/>
  <outline>
    <contour>
      <point x="119.31870812410297" y="710.0861103882711" type="line"/>
      <point x="214.31870812410295" y="10.086110388271116" type="line"/>
      <point x="65.68129187589703" y="-10.086110388271116" type="line"/>
      <point x="-29.31870812410297" y="689.9138896117289" type="line"/>
    </contour>
    <contour>
      <point x="529.318708124103" y="689.9138896117289" type="line"/>
      <point x="434.31870812410295" y="-10.086110388271116" type="line"/>
      <point x="285.68129187589705" y="10.086110388271116" type="line"/>
      <point x="380.68129187589705" y="710.0861103882711" type="line"/>
    </contour>
    <contour>
      <point x="67.81627430101972" y="20.359512376635465" type="line"/>
      <point x="177.81627430101972" y="410.35951237663545" type="line"/>
      <point x="322.1837256989803" y="369.64048762336455" type="line"/>
      <point x="212.18372569898028" y="-20.359512376635465" type="line"/>
    </contour>
    <contour>
      <point x="287.8162743010197" y="-20.359512376635465" type="line"/>
      <point x="177.81627430101972" y="369.64048762336455" type="line"/>
      <point x="322.1837256989803" y="410.35951237663545" type="line"/>
      <point x="432.1837256989803" y="20.359512376635465" type="line"/>
    </contour>
  </outline>
</glyph>
<glyph name="X" format="2">
  <advance width="500"/>
  <unicode hex="0058"/>
  <outline>
    <contour>
      <point x="136.69658517386102" y="734.3011009465571" type="line"/>
      <point x="496.696585173861" y="34.3011009465571" type="line"/>
      <point x="363.303414826139" y="-34.3011009465571" type="line"/>
      <point x="3.303414826138976" y="665.6988990534429" type="line"/>
    </contour>
    <contour>
      <point x="496.696585173861" y="665.6988990534429" type="line"/>
      <point x="136.69658517386102" y="-34.3011009465571" type="line"/>
      <point x="3.303414826138976" y="34.3011009465571" type="line"/>
      <point x="363.303414826139" y="734.3011009465571" type="line"/>
    </contour>
  </outline>
</glyph>
<glyph name="Y" format="2">
  <advance width="500"/>
  <unicode hex="0059"/>
  <outline>
    <contour>
      <point x="136.69658517386102" y="734.3011009465571" type="line"/>
      <point x="316.696585173861" y="384.3011009465571" type="line"/>
      <point x="183.30341482613898" y="315.6988990534429" type="line"/>
      <point x="3.303414826138976" y="665.6988990534429" type="line"/>
    </contour>
    <contour>
      <point x="496.696585173861" y="665.6988990534429" type="line"/>
      <point x="316.696585173861" y="315.6988990534429" type="line"/>
      <point x="183.30341482613898" y="384.3011009465571" type="line"/>
      <point x="363.303414826139" y="734.3011009465571" type="line"/>
    </contour>
    <contour>
      <point x="218" y="0" type="line"/>
      <point x="368" y="0" type="line"/>
      <point x="368" y="350" type="line"/>
      <point x="218" y="350" type="line"/>
    </contour>
  </outline>
</glyph>
<glyph name="Z" format="2">
  <advance width="500"/>
  <unicode hex="005A"/>
  <outline>
    <contour>
      <point x="50" y="550" type="line"/>
      <point x="450" y="550" type="line"/>
      <point x="450" y="700" type="line"/>
      <point x="50" y="700" type="line"/>
    </contour>
    <contour>
      <point x="492.75261376706527" y="583.9255618979209" type="line"/>
      <point x="132.7526137670653" y="33.92556189792089" type="line"/>
      <point x="7.2473862329347085" y="116.07443810207911" type="line"/>
      <point x="367.24738623293473" y="666.0744381020791" type="line"/>
    </contour>
    <contour>
      <point x="50" y="0" type="line"/>
      <point x="450" y="0" type="line"/>
      <point x="450" y="150" type="line"/>
      <point x="50" y="150" type="line"/>
    </contour>
  </outline>
</glyph>
<glyph name="uni005D" format="2">
  <advance width="310"/>
  <unicode hex="005D"/>
  <outline>
    <contour>
      <point x="200" y="80" type="line"/>
      <point x="350" y="80" type="line"/>
      <point x="350" y="620" type="line"/>
      <point x="200" y="620" type="line"/>
    </contour>
    <contour>
      <point x="50" y="620" type="line"/>
      <point x="150" y="620" type="line"/>
      <point x="150" y="770" type="line"/>
      <point x="50" y="770" type="line"/>
    </contour>
    <contour>
      <point x="50" y="80" type="line"/>
      <point x="150" y="80" type="line"/>
      <point x="150" y="230" type="line"/>
      <point x="50" y="230" type="line"/>
    </contour>
  </outline>
</glyph>
<glyph name="uni005E" format="2">
  <advance width="500"/>
  <unicode hex="005E"/>
  <outline>
    <contour>
      <point x="80" y="0" type="line"/>
      <point x="420" y="0" type="line"/>
      <point x="420" y="150" type="line"/>
      <point x="80" y="150" type="line"/>
    </contour>
    <contour>
      <point x="80" y="550" type="line"/>
      <point x="420" y="550" type="line"/>
      <point x="420" y="700" type="line"/>
      <point x="80" y="700" type="line"/>
    </contour>
    <contour>
      <point x="80" y="0" type="line"/>
      <point x="230" y="0" type="line"/>
      <point x="230" y="700" type="line"/>
      <point x="80" y="700" type="line"/>
    </contour>
    <contour>
      <point x="270" y="0" type="line"/>
      <point x="420" y="0" type="line"/>
      <point x="420" y="700" type="line"/>
      <point x="270" y="700" type="line"/>
    </contour>
  </outline>
</glyph>
<glyph name="uni0060" format="2">
  <advance width="250"/>
  <unicode hex="0060"/>
  <outline>
    <contour>
      <point x="284.26793307325966" y="539.7698075229957" type="line"/>
      <point x="244.26793307325966" y="449.76980752299573" type="line"/>
      <point x="175.73206692674034" y="480.23019247700427" type="line"/>
      <point x="215.73206692674034" y="570.2301924770043" type="line"/>
    </contour>
  </outline>
</glyph>
<glyph name="a" format="2">
  <advance width="500"/>
  <unicode hex="0061"/>
  <outline>
    <contour>
      <point x="378" y="244" type="curve"/>
      <point x="378" y="378.757479"/>
      <point x="310.8427125" y="488"/>
      <point x="228" y="488" type="curve"/>
      <point x="145.1572875" y="488"/>
      <point x="78" y="378.757479"/>
      <point x="78" y="244" type="curve"/>
      <point x="78" y="109.24252100000001"/>
      <point x="145.1572875" y="0"/>
      <point x="228" y="0" type="curve"/>
      <point x="310.8427125" y="0"/>
      <point x="378" y="109.24252100000001"/>
    </contour>
    <contour>
      <point x="236" y="244" type="curve"/>
      <point x="236" y="192.08523350000002"/>
      <point x="232.418278" y="150"/>
      <point x="228" y="150" type="curve"/>
      <point x="223.581722" y="150"/>
      <point x="220" y="192.08523350000002"/>
      <point x="220" y="244" type="curve"/>
      <point x="220" y="295.9147665"/>
      <point x="223.581722" y="338"/>
      <point x="228" y="338" type="curve"/>
      <point x="232.418278" y="338"/>
      <point x="236" y="295.9147665"/>
    </contour>
    <contour>
      <point x="362" y="0" type="curve"/>
      <point x="476" y="0" type="line"/>
      <point x="485.9411255" y="0"/>
      <point x="494" y="8.0588745"/>
      <point x="494" y="18" type="curve"/>
      <point x="494" y="537" type="line"/>
      <point x="494" y="546.9411255"/>
      <point x="485.9411255" y="555"/>
      <point x="476" y="555" type="curve"/>
      <point x="362" y="555" type="line"/>
      <point x="352.0588745" y="555"/>
      <point x="344" y="546.9411255"/>
      <point x="344" y="537" type="curve"/>
      <point x="344" y="18" type="line"/>
      <point x="344" y="8.0588745"/>
      <point x="352.0588745" y="0"/>
    </contour>
  </outline>
</glyph>
<glyph name="b" format="2">
  <advance width="500"/>
  <unicode hex="0062"/>
  <outline>
    <contour>
      <point x="78" y="0" type="curve"/>
      <point x="192" y="0" type="line"/>
      <point x="201.9411255" y="0"/>
      <point x="210" y="8.0588745"/>
      <point x="210" y="18" type="curve"/>
      <point x="210" y="742" type="line"/>
      <point x="210" y="751.9411255"/>
      <point x="201.9411255" y="760"/>
      <point x="192" y="760" type="curve"/>
      <point x="78" y="760" type="line"/>
      <point x="68.0588745" y="760"/>
      <point x="60" y="751.9411255"/>
      <point x="60" y="742" type="curve"/>
      <point x="60" y="18" type="line"/>
      <point x="60" y="8.0588745"/>
      <point x="68.0588745" y="0"/>
    </contour>
    <contour>
      <point x="430" y="278" type="curve"/>
      <point x="430" y="431.53516049999996"/>
      <point x="349.411255" y="556"/>
      <point x="250" y="556" type="curve"/>
      <point x="150.58874500000002" y="556"/>
      <point x="70" y="431.53516049999996"/>
      <point x="70" y="278" type="curve"/>
      <point x="70" y="124.46483950000001"/>
      <point x="150.58874500000002" y="0"/>
      <point x="250" y="0" type="curve"/>
      <point x="349.411255" y="0"/>
      <point x="430" y="124.46483950000001"/>
    </contour>
    <contour>
      <point x="280" y="278" type="curve"/>
      <point x="280" y="207.307552"/>
      <point x="266.5685425" y="150"/>
      <point x="250" y="150" type="curve"/>
      <point x="233.4314575" y="150"/>
      <point x="220" y="207.307552"/>
      <point x="220" y="278" type="curve"/>
      <point x="220" y="348.692448"/>
      <point x="233.4314575" y="406"/>
      <point x="250" y="406" type="curve"/>
      <point x="266.5685425" y="406"/>
      <point x="280" y="348.692448"/>
    </contour>
  </outline>
</glyph>
<glyph name="d" format="2">
  <advance width="500"/>
  <unicode hex="0064"/>
  <outline>
    <contour>
      <point x="244" y="0" type="curve"/>
      <point x="358" y="0" type="line"/>
      <point x="367.9411255" y="0"/>
      <point x="376" y="8.0588745"/>
      <point x="376" y="18" type="curve"/>
      <point x="376" y="742" type="line"/>
      <point x="376" y="751.9411255"/>
      <point x="367.9411255" y="760"/>
      <point x="358" y="760" type="curve"/>
      <point x="244" y="760" type="line"/>
      <point x="234.0588745" y="760"/>
      <point x="226" y="751.9411255"/>
      <point x="226" y="742" type="curve"/>
      <point x="226" y="18" type="line"/>
      <point x="226" y="8.0588745"/>
      <point x="234.0588745" y="0"/>
    </contour>
    <contour>
      <point x="430" y="278" type="curve"/>
      <point x="430" y="431.53516049999996"/>
      <point x="349.411255" y="556"/>
      <point x="250" y="556" type="curve"/>
      <point x="150.58874500000002" y="556"/>
      <point x="70" y="431.53516049999996"/>
      <point x="70" y="278" type="curve"/>
      <point x="70" y="124.46483950000001"/>
      <point x="150.58874500000002" y="0"/>
      <point x="250" y="0" type="curve"/>
      <point x="349.411255" y="0"/>
      <point x="430" y="124.46483950000001"/>
    </contour>
    <contour>
      <point x="280" y="278" type="curve"/>
      <point x="280" y="207.307552"/>
      <point x="266.5685425" y="150"/>
      <point x="250" y="150" type="curve"/>
      <point x="233.4314575" y="150"/>
      <point x="220" y="207.307552"/>
      <point x="220" y="278" type="curve"/>
      <point x="220" y="348.692448"/>
      <point x="233.4314575" y="406"/>
      <point x="250" y="406" type="curve"/>
      <point x="266.5685425" y="406"/>
      <point x="280" y="348.692448"/>
    </contour>
  </outline>
</glyph>
<glyph name="g" format="2">
  <advance width="500"/>
  <unicode hex="0067"/>
  <outline>
    <contour>
      <point x="378" y="260" type="curve"/>
      <point x="378" y="392.54834"/>
      <point x="310.8427125" y="500"/>
      <point x="228" y="500" type="curve"/>
      <point x="145.1572875" y="500"/>
      <point x="78" y="392.54834"/>
      <point x="78" y="260" type="curve"/>
      <point x="78" y="127.45166"/>
      <point x="145.1572875" y="20"/>
      <point x="228" y="20" type="curve"/>
      <point x="310.8427125" y="20"/>
      <point x="378" y="127.45166"/>
    </contour>
    <contour>
      <point x="236" y="260" type="curve"/>
      <point x="236" y="210.2943725"/>
      <point x="232.418278" y="170"/>
      <point x="228" y="170" type="curve"/>
      <point x="223.581722" y="170"/>
      <point x="220" y="210.2943725"/>
      <point x="220" y="260" type="curve"/>
      <point x="220" y="309.7056275"/>
      <point x="223.581722" y="350"/>
      <point x="228" y="350" type="curve"/>
      <point x="232.418278" y="350"/>
      <point x="236" y="309.7056275"/>
    </contour>
    <contour>
      <point x="362" y="-210" type="curve"/>
      <point x="476" y="-210" type="line"/>
      <point x="485.9411255" y="-210"/>
      <point x="494" y="-201.9411255"/>
      <point x="494" y="-192" type="curve"/>
      <point x="494" y="537" type="line"/>
      <point x="494" y="546.9411255"/>
      <point x="485.9411255" y="555"/>
      <point x="476" y="555" type="curve"/>
      <point x="362" y="555" type="line"/>
      <point x="352.0588745" y="555"/>
      <point x="344" y="546.9411255"/>
      <point x="344" y="537" type="curve"/>
      <point x="344" y="-192" type="line"/>
      <point x="344" y="-201.9411255"/>
      <point x="352.0588745" y="-210"/>
    </contour>
    <contour>
      <point x="408" y="0" type="line"/>
      <point x="408" y="-210"/>
      <point x="324" y="-210"/>
      <point x="230" y="-210" type="curve"/>
      <point x="173" y="-210"/>
      <point x="139" y="-185"/>
      <point x="128" y="-146" type="curve"/>
      <point x="192" y="-146" type="line"/>
      <point x="205" y="-175"/>
      <point x="221" y="-180"/>
      <point x="245" y="-180" type="curve"/>
      <point x="305" y="-180"/>
      <point x="344" y="-138"/>
      <point x="344" y="0" type="curve"/>
    </contour>
  </outline>
</glyph>
<glyph name="h" format="2">
  <advance width="500"/>
  <unicode hex="0068"/>
  <outline>
    <contour>
      <point x="78" y="0" type="curve"/>
      <point x="192" y="0" type="line"/>
      <point x="201.9411255" y="0"/>
      <point x="210" y="8.0588745"/>
      <point x="210" y="18" type="curve"/>
      <point x="210" y="742" type="line"/>
      <point x="210" y="751.9411255"/>
      <point x="201.9411255" y="760"/>
      <point x="192" y="760" type="curve"/>
      <point x="78" y="760" type="line"/>
      <point x="68.0588745" y="760"/>
      <point x="60" y="751.9411255"/>
      <point x="60" y="742" type="curve"/>
      <point x="60" y="18" type="line"/>
      <point x="60" y="8.0588745"/>
      <point x="68.0588745" y="0"/>
    </contour>
    <contour>
      <point x="124" y="0" type="line"/>
      <point x="124" y="555" type="line"/>
      <point x="198.8" y="565"/>
      <point x="344" y="460.65"/>
      <point x="344" y="349.65" type="curve"/>
      <point x="344" y="0" type="line"/>
      <point x="194" y="0" type="line"/>
      <point x="194" y="349.65" type="line"/>
      <point x="194" y="472.5"/>
      <point x="348.8" y="405"/>
      <point x="274" y="405" type="curve"/>
      <point x="274" y="0" type="line"/>
    </contour>
  </outline>
</glyph>
<glyph name="i" format="2">
  <advance width="250"/>
  <unicode hex="0069"/>
  <outline>
    <contour>
      <point x="236" y="0" type="curve"/>
      <point x="350" y="0" type="line"/>
      <point x="359.9411255" y="0"/>
      <point x="368" y="8.0588745"/>
      <point x="368" y="18" type="curve"/>
      <point x="368" y="437" type="line"/>
      <point x="368" y="446.9411255"/>
      <point x="359.9411255" y="455"/>
      <point x="350" y="455" type="curve"/>
      <point x="236" y="455" type="line"/>
      <point x="226.0588745" y="455"/>
      <point x="218" y="446.9411255"/>
      <point x="218" y="437" type="curve"/>
      <point x="218" y="18" type="line"/>
      <point x="218" y="8.0588745"/>
      <point x="226.0588745" y="0"/>
    </contour>
    <contour>
      <point x="332.5" y="525" type="curve"/>
      <point x="332.5" y="570.563491875"/>
      <point x="295.563491875" y="607.5"/>
      <point x="250" y="607.5" type="curve"/>
      <point x="204.436508125" y="607.5"/>
      <point x="167.5" y="570.563491875"/>
      <point x="167.5" y="525" type="curve"/>
      <point x="167.5" y="479.436508125"/>
      <point x="204.436508125" y="442.5"/>
      <point x="250" y="442.5" type="curve"/>
      <point x="295.563491875" y="442.5"/>
      <point x="332.5" y="479.436508125"/>
    </contour>
  </outline>
</glyph>
<glyph name="j" format="2">
  <advance width="500"/>
  <unicode hex="006A"/>
  <outline>
    <contour>
      <point x="236" y="-190" type="curve"/>
      <point x="350" y="-190" type="line"/>
      <point x="359.9411255" y="-190"/>
      <point x="368" y="-181.9411255"/>
      <point x="368" y="-172" type="curve"/>
      <point x="368" y="437" type="line"/>
      <point x="368" y="446.9411255"/>
      <point x="359.9411255" y="455"/>
      <point x="350" y="455" type="curve"/>
      <point x="236" y="455" type="line"/>
      <point x="226.0588745" y="455"/>
      <point x="218" y="446.9411255"/>
      <point x="218" y="437" type="curve"/>
      <point x="218" y="-172" type="line"/>
      <point x="218" y="-181.9411255"/>
      <point x="226.0588745" y="-190"/>
    </contour>
    <contour>
      <point x="332.5" y="525" type="curve"/>
      <point x="332.5" y="570.563491875"/>
      <point x="295.563491875" y="607.5"/>
      <point x="250" y="607.5" type="curve"/>
      <point x="204.436508125" y="607.5"/>
      <point x="167.5" y="570.563491875"/>
      <point x="167.5" y="525" type="curve"/>
      <point x="167.5" y="479.436508125"/>
      <point x="204.436508125" y="442.5"/>
      <point x="250" y="442.5" type="curve"/>
      <point x="295.563491875" y="442.5"/>
      <point x="332.5" y="479.436508125"/>
    </contour>
    <contour>
      <point x="282" y="-190" type="line"/>
      <point x="282" y="-210"/>
      <point x="247" y="-210"/>
      <point x="201" y="-210" type="curve"/>
      <point x="177" y="-210" type="line"/>
      <point x="177" y="-185" type="line"/>
      <point x="201" y="-185" type="line"/>
      <point x="212" y="-185"/>
      <point x="218" y="-188"/>
      <point x="218" y="-190" type="curve"/>
    </contour>
  </outline>
</glyph>
<glyph name="k" format="2">
  <advance width="500"/>
  <unicode hex="006B"/>
  <outline>
    <contour>
      <point x="78" y="0" type="curve"/>
      <point x="192" y="0" type="line"/>
      <point x="201.9411255" y="0"/>
      <point x="210" y="8.0588745"/>
      <point x="210" y="18" type="curve"/>
      <point x="210" y="742" type="line"/>
      <point x="210" y="751.9411255"/>
      <point x="201.9411255" y="760"/>
      <point x="192" y="760" type="curve"/>
      <point x="78" y="760" type="line"/>
      <point x="68.0588745" y="760"/>
      <point x="60" y="751.9411255"/>
      <point x="60" y="742" type="curve"/>
      <point x="60" y="18" type="line"/>
      <point x="60" y="8.0588745"/>
      <point x="68.0588745" y="0"/>
    </contour>
    <contour>
      <point x="67.92196766802317" y="327.8021514572791" type="line"/>
      <point x="313.92196766802317" y="604.802151457279" type="line"/>
      <point x="426.07803233197683" y="505.1978485427209" type="line"/>
      <point x="180.07803233197683" y="228.19784854272095" type="line"/>
    </contour>
    <contour>
      <point x="179.17108754333364" y="328.8050302557317" type="line"/>
      <point x="435.17108754333367" y="50.805030255731715" type="line"/>
      <point x="324.82891245666633" y="-50.805030255731715" type="line"/>
      <point x="68.82891245666636" y="227.1949697442683" type="line"/>
    </contour>
  </outline>
</glyph>
<glyph name="l" format="2">
  <advance width="250"/>
  <unicode hex="006C"/>
  <outline>
    <contour>
      <point x="236" y="0" type="curve"/>
      <point x="350" y="0" type="line"/>
      <point x="359.9411255" y="0"/>
      <point x="368" y="8.0588745"/>
      <point x="368" y="18" type="curve"/>
      <point x="368" y="742" type="line"/>
      <point x="368" y="751.9411255"/>
      <point x="359.9411255" y="760"/>
      <point x="350" y="760" type="curve"/>
      <point x="236" y="760" type="line"/>
      <point x="226.0588745" y="760"/>
      <point x="218" y="751.9411255"/>
      <point x="218" y="742" type="curve"/>
      <point x="218" y="18" type="line"/>
      <point x="218" y="8.0588745"/>
      <point x="226.0588745" y="0"/>
    </contour>
  </outline>
</glyph>
<glyph name="m" format="2">
  <advance width="560"/>
  <unicode hex="006D"/>
  <outline>
    <contour>
      <point x="58" y="0" type="curve"/>
      <point x="172" y="0" type="line"/>
      <point x="181.9411255" y="0"/>
      <point x="190" y="8.0588745"/>
      <point x="190" y="18" type="curve"/>
      <point x="190" y="537" type="line"/>
      <point x="190" y="546.9411255"/>
      <point x="181.9411255" y="555"/>
      <point x="172" y="555" type="curve"/>
      <point x="58" y="555" type="line"/>
      <point x="48.0588745" y="555"/>
      <point x="40" y="546.9411255"/>
      <point x="40" y="537" type="curve"/>
      <point x="40" y="18" type="line"/>
      <point x="40" y="8.0588745"/>
      <point x="48.0588745" y="0"/>
    </contour>
    <contour>
      <point x="104" y="0" type="line"/>
      <point x="104" y="555" type="line"/>
      <point x="153.64" y="565"/>
      <point x="250" y="460.65"/>
      <point x="250" y="349.65" type="curve"/>
      <point x="250" y="0" type="line"/>
      <point x="100" y="0" type="line"/>
      <point x="100" y="349.65" type="line"/>
      <point x="100" y="472.5"/>
      <point x="303.64" y="405"/>
      <point x="254" y="405" type="curve"/>
      <point x="254" y="0" type="line"/>
    </contour>
    <contour>
      <point x="239" y="0" type="line"/>
      <point x="239" y="555" type="line"/>
      <point x="284.9" y="565"/>
      <point x="374" y="460.65"/>
      <point x="374" y="349.65" type="curve"/>
      <point x="374" y="0" type="line"/>
      <point x="224" y="0" type="line"/>
      <point x="224" y="349.65" type="line"/>
      <point x="224" y="472.5"/>
      <point x="434.9" y="405"/>
      <point x="389" y="405" type="curve"/>
      <point x="389" y="0" type="line"/>
    </contour>
  </outline>
</glyph>
<glyph name="n" format="2">
  <advance width="500"/>
  <unicode hex="006E"/>
  <outline>
    <contour>
      <point x="78" y="0" type="curve"/>
      <point x="192" y="0" type="line"/>
      <point x="201.9411255" y="0"/>
      <point x="210" y="8.0588745"/>
      <point x="210" y="18" type="curve"/>
      <point x="210" y="537" type="line"/>
      <point x="210" y="546.9411255"/>
      <point x="201.9411255" y="555"/>
      <point x="192" y="555" type="curve"/>
      <point x="78" y="555" type="line"/>
      <point x="68.0588745" y="555"/>
      <point x="60" y="546.9411255"/>
      <point x="60" y="537" type="curve"/>
      <point x="60" y="18" type="line"/>
      <point x="60" y="8.0588745"/>
      <point x="68.0588745" y="0"/>
    </contour>
    <contour>
      <point x="124" y="0" type="line"/>
      <point x="124" y="555" type="line"/>
      <point x="198.8" y="565"/>
      <point x="344" y="460.65"/>
      <point x="344" y="349.65" type="curve"/>
      <point x="344" y="0" type="line"/>
      <point x="194" y="0" type="line"/>
      <point x="194" y="349.65" type="line"/>
      <point x="194" y="472.5"/>
      <point x="348.8" y="405"/>
      <point x="274" y="405" type="curve"/>
      <point x="274" y="0" type="line"/>
    </contour>
  </outline>
</glyph>
<glyph name="o" format="2">
  <advance width="500"/>
  <unicode hex="006F"/>
  <outline>
    <contour>
      <point x="430" y="278" type="curve"/>
      <point x="430" y="431.53516049999996"/>
      <point x="349.411255" y="556"/>
      <point x="250" y="556" type="curve"/>
      <point x="150.58874500000002" y="556"/>
      <point x="70" y="431.53516049999996"/>
      <point x="70" y="278" type="curve"/>
      <point x="70" y="124.46483950000001"/>
      <point x="150.58874500000002" y="0"/>
      <point x="250" y="0" type="curve"/>
      <point x="349.411255" y="0"/>
      <point x="430" y="124.46483950000001"/>
    </contour>
    <contour>
      <point x="280" y="278" type="curve"/>
      <point x="280" y="207.307552"/>
      <point x="266.5685425" y="150"/>
      <point x="250" y="150" type="curve"/>
      <point x="233.4314575" y="150"/>
      <point x="220" y="207.307552"/>
      <point x="220" y="278" type="curve"/>
      <point x="220" y="348.692448"/>
      <point x="233.4314575" y="406"/>
      <point x="250" y="406" type="curve"/>
      <point x="266.5685425" y="406"/>
      <point x="280" y="348.692448"/>
    </contour>
  </outline>
</glyph>
<glyph name="p" format="2">
  <advance width="500"/>
  <unicode hex="0070"/>
  <outline>
    <contour>
      <point x="78" y="-210" type="curve"/>
      <point x="192" y="-210" type="line"/>
      <point x="201.9411255" y="-210"/>
      <point x="210" y="-201.9411255"/>
      <point x="210" y="-192" type="curve"/>
      <point x="210" y="537" type="line"/>
      <point x="210" y="546.9411255"/>
      <point x="201.9411255" y="555"/>
      <point x="192" y="555" type="curve"/>
      <point x="78" y="555" type="line"/>
      <point x="68.0588745" y="555"/>
      <point x="60" y="546.9411255"/>
      <point x="60" y="537" type="curve"/>
      <point x="60" y="-192" type="line"/>
      <point x="60" y="-201.9411255"/>
      <point x="68.0588745" y="-210"/>
    </contour>
    <contour>
      <point x="430" y="278" type="curve"/>
      <point x="430" y="431.53516049999996"/>
      <point x="349.411255" y="556"/>
      <point x="250" y="556" type="curve"/>
      <point x="150.58874500000002" y="556"/>
      <point x="70" y="431.53516049999996"/>
      <point x="70" y="278" type="curve"/>
      <point x="70" y="124.46483950000001"/>
      <point x="150.58874500000002" y="0"/>
      <point x="250" y="0" type="curve"/>
      <point x="349.411255" y="0"/>
      <point x="430" y="124.46483950000001"/>
    </contour>
    <contour>
      <point x="280" y="278" type="curve"/>
      <point x="280" y="207.307552"/>
      <point x="266.5685425" y="150"/>
      <point x="250" y="150" type="curve"/>
      <point x="233.4314575" y="150"/>
      <point x="220" y="207.307552"/>
      <point x="220" y="278" type="curve"/>
      <point x="220" y="348.692448"/>
      <point x="233.4314575" y="406"/>
      <point x="250" y="406" type="curve"/>
      <point x="266.5685425" y="406"/>
      <point x="280" y="348.692448"/>
    </contour>
  </outline>
</glyph>
<glyph name="q" format="2">
  <advance width="500"/>
  <unicode hex="0071"/>
  <outline>
    <contour>
      <point x="244" y="-210" type="curve"/>
      <point x="358" y="-210" type="line"/>
      <point x="367.9411255" y="-210"/>
      <point x="376" y="-201.9411255"/>
      <point x="376" y="-192" type="curve"/>
      <point x="376" y="537" type="line"/>
      <point x="376" y="546.9411255"/>
      <point x="367.9411255" y="555"/>
      <point x="358" y="555" type="curve"/>
      <point x="244" y="555" type="line"/>
      <point x="234.0588745" y="555"/>
      <point x="226" y="546.9411255"/>
      <point x="226" y="537" type="curve"/>
      <point x="226" y="-192" type="line"/>
      <point x="226" y="-201.9411255"/>
      <point x="234.0588745" y="-210"/>
    </contour>
    <contour>
      <point x="430" y="278" type="curve"/>
      <point x="430" y="431.53516049999996"/>
      <point x="349.411255" y="556"/>
      <point x="250" y="556" type="curve"/>
      <point x="150.58874500000002" y="556"/>
      <point x="70" y="431.53516049999996"/>
      <point x="70" y="278" type="curve"/>
      <point x="70" y="124.46483950000001"/>
      <point x="150.58874500000002" y="0"/>
      <point x="250" y="0" type="curve"/>
      <point x="349.411255" y="0"/>
      <point x="430" y="124.46483950000001"/>
    </contour>
    <contour>
      <point x="280" y="278" type="curve"/>
      <point x="280" y="207.307552"/>
      <point x="266.5685425" y="150"/>
      <point x="250" y="150" type="curve"/>
      <point x="233.4314575" y="150"/>
      <point x="220" y="207.307552"/>
      <point x="220" y="278" type="curve"/>
      <point x="220" y="348.692448"/>
      <point x="233.4314575" y="406"/>
      <point x="250" y="406" type="curve"/>
      <point x="266.5685425" y="406"/>
      <point x="280" y="348.692448"/>
    </contour>
  </outline>
</glyph>
<glyph name="w" format="2">
  <advance width="560"/>
  <unicode hex="0077"/>
  <outline>
    <contour>
      <point x="119.13558158388139" y="566.3540980804142" type="line"/>
      <point x="204.1355815838814" y="11.354098080414266" type="line"/>
      <point x="55.86441841611861" y="-11.354098080414266" type="line"/>
      <point x="-29.13558158388139" y="543.6459019195858" type="line"/>
    </contour>
    <contour>
      <point x="529.1355815838814" y="543.6459019195858" type="line"/>
      <point x="444.1355815838814" y="-11.354098080414266" type="line"/>
      <point x="295.8644184161186" y="11.354098080414266" type="line"/>
      <point x="380.8644184161186" y="566.3540980804142" type="line"/>
    </contour>
    <contour>
      <point x="60.364248183605554" y="27.854300726557778" type="line"/>
      <point x="180.36424818360555" y="327.85430072655777" type="line"/>
      <point x="319.6357518163944" y="272.14569927344223" type="line"/>
      <point x="199.63575181639445" y="-27.854300726557778" type="line"/>
    </contour>
    <contour>
      <point x="300.3642481836056" y="-27.854300726557778" type="line"/>
      <point x="180.36424818360555" y="272.14569927344223" type="line"/>
      <point x="319.6357518163944" y="327.85430072655777" type="line"/>
      <point x="439.6357518163944" y="27.854300726557778" type="line"/>
    </contour>
  </outline>
</glyph>
<glyph name="x" format="2">
  <advance width="500"/>
  <unicode hex="0078"/>
  <outline>
    <contour>
      <point x="132.9220965270744" y="595.8143328824266" type="line"/>
      <point x="492.9220965270744" y="40.81433288242663" type="line"/>
      <point x="367.0779034729256" y="-40.81433288242663" type="line"/>
      <point x="7.077903472925605" y="514.1856671175734" type="line"/>
    </contour>
    <contour>
      <point x="492.9220965270744" y="514.1856671175734" type="line"/>
      <point x="132.9220965270744" y="-40.81433288242663" type="line"/>
      <point x="7.077903472925605" y="40.81433288242663" type="line"/>
      <point x="367.0779034729256" y="595.8143328824266" type="line"/>
    </contour>
  </outline>
</glyph>
<glyph name="y" format="2">
  <advance width="500"/>
  <unicode hex="0079"/>
  <outline>
    <contour>
      <point x="146.52843228279158" y="577.5540101792586" type="line"/>
      <point x="321.5284322827916" y="22.5540101792586" type="line"/>
      <point x="178.47156771720842" y="-22.5540101792586" type="line"/>
      <point x="3.47156771720843" y="532.4459898207414" type="line"/>
    </contour>
    <contour>
      <point x="496.5284322827916" y="532.4459898207414" type="line"/>
      <point x="321.5284322827916" y="-22.5540101792586" type="line"/>
      <point x="178.47156771720842" y="22.5540101792586" type="line"/>
      <point x="353.4715677172084" y="577.5540101792586" type="line"/>
    </contour>
    <contour>
      <point x="218" y="-210" type="line"/>
      <point x="368" y="-210" type="line"/>
      <point x="368" y="-110" type="line"/>
      <point x="218" y="-110" type="line"/>
    </contour>
  </outline>
</glyph>
<glyph name="z" format="2">
  <advance width="500"/>
  <unicode hex="007A"/>
  <outline>
    <contour>
      <point x="70" y="405" type="line"/>
      <point x="430" y="405" type="line"/>
      <point x="430" y="555" type="line"/>
      <point x="70" y="555" type="line"/>
    </contour>
    <contour>
      <point x="468.84760593606586" y="433.50312617397265" type="line"/>
      <point x="148.84760593606586" y="28.503126173972653" type="line"/>
      <point x="31.152394063934153" y="121.49687382602735" type="line"/>
      <point x="351.15239406393414" y="526.4968738260274" type="line"/>
    </contour>
    <contour>
      <point x="70" y="0" type="line"/>
      <point x="430" y="0" type="line"/>
      <point x="430" y="150" type="line"/>
      <point x="70" y="150" type="line"/>
    </contour>
  </outline>
</glyph>
<glyph name="uni00A1" format="2">
  <advance width="500"/>
  <unicode hex="00A1"/>
  <outline>
    <contour>
      <point x="175.0" y="0" type="line"/>
      <point x="325.0" y="0" type="line"/>
      <point x="325.0" y="425" type="line"/>
      <point x="175.0" y="425" type="line"/>
    </contour>
    <contour>
      <point x="325.0" y="520" type="curve" smooth="yes"/>
      <point x="325.0" y="561.42135625"/>
      <point x="291.42135625000003" y="595.0"/>
      <point x="250.0" y="595.0" type="curve" smooth="yes"/>
      <point x="208.57864375" y="595.0"/>
      <point x="175.0" y="561.42135625"/>
      <point x="175.0" y="520" type="curve" smooth="yes"/>
      <point x="175.0" y="478.57864374999997"/>
      <point x="208.57864375" y="445.0"/>
      <point x="250.0" y="445.0" type="curve" smooth="yes"/>
      <point x="291.42135625000003" y="445.0"/>
      <point x="325.0" y="478.57864374999997"/>
    </contour>
  </outline>
</glyph>
<glyph name="uni00AE" format="2">
  <advance width="500"/>
  <unicode hex="00AE"/>
  <outline>
    <contour>
      <point x="440.0" y="350" type="curve" smooth="yes"/>
      <point x="440.0" y="493.59403499999996"/>
      <point x="354.9341025" y="610"/>
      <point x="250.0" y="610" type="curve" smooth="yes"/>
      <point x="145.0658975" y="610"/>
      <point x="60.0" y="493.59403499999996"/>
      <point x="60.0" y="350" type="curve" smooth="yes"/>
      <point x="60.0" y="206.405965"/>
      <point x="145.0658975" y="90"/>
      <point x="250.0" y="90" type="curve" smooth="yes"/>
      <point x="354.9341025" y="90"/>
      <point x="440.0" y="206.405965"/>
    </contour>
    <contour>
      <point x="386.0" y="350" type="curve" smooth="yes"/>
      <point x="386.0" y="236.2293415"/>
      <point x="325.110726" y="144"/>
      <point x="250.0" y="144" type="curve" smooth="yes"/>
      <point x="174.889274" y="144"/>
      <point x="114.0" y="236.2293415"/>
      <point x="114.0" y="350" type="curve" smooth="yes"/>
      <point x="114.0" y="463.77065849999997"/>
      <point x="174.889274" y="556"/>
      <point x="250.0" y="556" type="curve" smooth="yes"/>
      <point x="325.110726" y="556"/>
      <point x="386.0" y="463.77065849999997"/>
    </contour>
    <contour>
      <point x="188.0" y="225" type="line"/>
      <point x="338.0" y="225" type="line"/>
      <point x="338.0" y="450" type="line"/>
      <point x="188.0" y="450" type="line"/>
    </contour>
    <contour>
      <point x="188.0" y="410" type="line"/>
      <point x="276.0" y="410" type="line"/>
      <point x="276.0" y="560" type="line"/>
      <point x="188.0" y="560" type="line"/>
    </contour>
    <contour>
      <point x="258.0" y="340" type="line"/>
      <point x="408.0" y="340" type="line"/>
      <point x="408.0" y="435" type="line"/>
      <point x="258.0" y="435" type="line"/>
    </contour>
    <contour>
      <point x="312.0168905043166" y="375.5917148805881" type="line"/>
      <point x="374.0168905043166" y="260.5917148805881" type="line"/>
      <point x="241.9831094956834" y="189.40828511941191" type="line"/>
      <point x="179.9831094956834" y="304.4082851194119" type="line"/>
    </contour>
  </outline>
</glyph>
<glyph name="uni00B7" format="2">
  <advance width="500"/>
  <unicode hex="00B7"/>
  <outline>
    <contour>
      <point x="325.0" y="280" type="curve" smooth="yes"/>
      <point x="325.0" y="321.42135625000003"/>
      <point x="291.42135625000003" y="355.0"/>
      <point x="250.0" y="355.0" type="curve" smooth="yes"/>
      <point x="208.57864375" y="355.0"/>
      <point x="175.0" y="321.42135625000003"/>
      <point x="175.0" y="280" type="curve" smooth="yes"/>
      <point x="175.0" y="238.57864375"/>
      <point x="208.57864375" y="205.0"/>
      <point x="250.0" y="205.0" type="curve" smooth="yes"/>
      <point x="291.42135625000003" y="205.0"/>
      <point x="325.0" y="238.57864375"/>
    </contour>
  </outline>
</glyph>
<glyph name="uni00C1" format="2">
  <advance width="480"/>
  <unicode hex="00C1"/>
  <outline>
    <contour>
      <point x="170.84401291569625" y="734.3571156206036" type="line"/>
      <point x="246.84401291569625" y="812.3571156206036" type="line"/>
      <point x="309.1559870843038" y="751.6428843793964" type="line"/>
      <point x="233.15598708430375" y="673.6428843793964" type="line"/>
    </contour>
    <component base="A"/>
  </outline>
</glyph>
<glyph name="uni00C2" format="2">
  <advance width="480"/>
  <unicode hex="00C2"/>
  <outline>
    <contour>
      <point x="149.11133380726199" y="749.4707856593851" type="line"/>
      <point x="207.11133380726199" y="816.4707856593851" type="line"/>
      <point x="272.888666192738" y="759.5292143406149" type="line"/>
      <point x="214.88866619273801" y="692.5292143406149" type="line"/>
    </contour>
    <contour>
      <point x="272.888666192738" y="816.4707856593851" type="line"/>
      <point x="330.888666192738" y="749.4707856593851" type="line"/>
      <point x="265.111333807262" y="692.5292143406149" type="line"/>
      <point x="207.11133380726199" y="759.5292143406149" type="line"/>
    </contour>
    <component base="A"/>
  </outline>
</glyph>
<glyph name="uni00C3" format="2">
  <advance width="480"/>
  <unicode hex="00C3"/>
  <outline>
    <contour>
      <point x="178.0" y="754" type="line"/>
      <point x="202.0" y="780" type="line"/>
      <point x="226.0" y="780" type="line"/>
      <point x="250.0" y="754" type="line"/>
      <point x="274.0" y="754" type="line"/>
      <point x="302.0" y="780" type="line"/>
      <point x="302.0" y="729.54" type="line"/>
      <point x="274.0" y="703.54" type="line"/>
      <point x="250.0" y="703.54" type="line"/>
      <point x="226.0" y="729.54" type="line"/>
      <point x="202.0" y="729.54" type="line"/>
      <point x="178.0" y="703.54" type="line"/>
    </contour>
    <component base="A"/>
  </outline>
</glyph>
<glyph name="uni00C4" format="2">
  <advance width="480"/>
  <unicode hex="00C4"/>
  <outline>
    <contour>
      <point x="245.5" y="764" type="curve" smooth="yes"/>
      <point x="245.5" y="788.024386625"/>
      <point x="226.024386625" y="807.5"/>
      <point x="202.0" y="807.5" type="curve" smooth="yes"/>
      <point x="177.975613375" y="807.5"/>
      <point x="158.5" y="788.024386625"/>
      <point x="158.5" y="764" type="curve" smooth="yes"/>
      <point x="158.5" y="739.975613375"/>
      <point x="177.975613375" y="720.5"/>
      <point x="202.0" y="720.5" type="curve" smooth="yes"/>
      <point x="226.024386625" y="720.5"/>
      <point x="245.5" y="739.975613375"/>
    </contour>
    <contour>
      <point x="321.5" y="764" type="curve" smooth="yes"/>
      <point x="321.5" y="788.024386625"/>
      <point x="302.024386625" y="807.5"/>
      <point x="278.0" y="807.5" type="curve" smooth="yes"/>
      <point x="253.975613375" y="807.5"/>
      <point x="234.5" y="788.024386625"/>
      <point x="234.5" y="764" type="curve" smooth="yes"/>
      <point x="234.5" y="739.975613375"/>
      <point x="253.975613375" y="720.5"/>
      <point x="278.0" y="720.5" type="curve" smooth="yes"/>
      <point x="302.024386625" y="720.5"/>
      <point x="321.5" y="739.975613375"/>
    </contour>
    <component base="A"/>
  </outline>
</glyph>
<glyph name="uni00CD" format="2">
  <advance width="250"/>
  <unicode hex="00CD"/>
  <outline>
    <contour>
      <point x="55.844012915696254" y="734.3571156206036" type="line"/>
      <point x="131.84401291569625" y="812.3571156206036" type="line"/>
      <point x="194.15598708430375" y="751.6428843793964" type="line"/>
      <point x="118.15598708430375" y="673.6428843793964" type="line"/>
    </contour>
    <component base="I"/>
  </outline>
</glyph>
<glyph name="uni00CE" format="2">
  <advance width="250"/>
  <unicode hex="00CE"/>
  <outline>
    <contour>
      <point x="34.11133380726198" y="749.4707856593851" type="line"/>
      <point x="92.11133380726199" y="816.4707856593851" type="line"/>
      <point x="157.88866619273801" y="759.5292143406149" type="line"/>
      <point x="99.88866619273801" y="692.5292143406149" type="line"/>
    </contour>
    <contour>
      <point x="157.88866619273801" y="816.4707856593851" type="line"/>
      <point x="215.88866619273801" y="749.4707856593851" type="line"/>
      <point x="150.11133380726199" y="692.5292143406149" type="line"/>
      <point x="92.11133380726199" y="759.5292143406149" type="line"/>
    </contour>
    <component base="I"/>
  </outline>
</glyph>
<glyph name="uni00CF" format="2">
  <advance width="250"/>
  <unicode hex="00CF"/>
  <outline>
    <contour>
      <point x="130.5" y="764" type="curve" smooth="yes"/>
      <point x="130.5" y="788.024386625"/>
      <point x="111.024386625" y="807.5"/>
      <point x="87.0" y="807.5" type="curve" smooth="yes"/>
      <point x="62.975613375" y="807.5"/>
      <point x="43.5" y="788.024386625"/>
      <point x="43.5" y="764" type="curve" smooth="yes"/>
      <point x="43.5" y="739.975613375"/>
      <point x="62.975613375" y="720.5"/>
      <point x="87.0" y="720.5" type="curve" smooth="yes"/>
      <point x="111.024386625" y="720.5"/>
      <point x="130.5" y="739.975613375"/>
    </contour>
    <contour>
      <point x="206.5" y="764" type="curve" smooth="yes"/>
      <point x="206.5" y="788.024386625"/>
      <point x="187.024386625" y="807.5"/>
      <point x="163.0" y="807.5" type="curve" smooth="yes"/>
      <point x="138.975613375" y="807.5"/>
      <point x="119.5" y="788.024386625"/>
      <point x="119.5" y="764" type="curve" smooth="yes"/>
      <point x="119.5" y="739.975613375"/>
      <point x="138.975613375" y="720.5"/>
      <point x="163.0" y="720.5" type="curve" smooth="yes"/>
      <point x="187.024386625" y="720.5"/>
      <point x="206.5" y="739.975613375"/>
    </contour>
    <component base="I"/>
  </outline>
</glyph>
<glyph name="uni00D5" format="2">
  <advance width="500"/>
  <unicode hex="00D5"/>
  <outline>
    <contour>
      <point x="167.05438802019523" y="791.6365885425782" type="line"/>
      <point x="207.05438802019523" y="819.6365885425782" type="line"/>
      <point x="256.94561197980477" y="748.3634114574218" type="line"/>
      <point x="216.94561197980477" y="720.3634114574218" type="line"/>
    </contour>
    <contour>
      <point x="256.94561197980477" y="819.6365885425782" type="line"/>
      <point x="296.94561197980477" y="791.6365885425782" type="line"/>
      <point x="247.05438802019523" y="720.3634114574218" type="line"/>
      <point x="207.05438802019523" y="748.3634114574218" type="line"/>
    </contour>
    <contour>
      <point x="246.19584184483153" y="791.0199289248715" type="line"/>
      <point x="284.19584184483153" y="819.0199289248715" type="line"/>
      <point x="335.80415815516847" y="748.9800710751285" type="line"/>
      <point x="297.80415815516847" y="720.9800710751285" type="line"/>
    </contour>
    <component base="O"/>
  </outline>
</glyph>
<glyph name="uni00D7" format="2">
  <advance width="500"/>
  <unicode hex="00D7"/>
  <outline>
    <contour>
      <point x="66.96699141100893" y="263.03300858899104" type="line"/>
      <point x="326.96699141100896" y="523.033008588991" type="line"/>
      <point x="433.03300858899104" y="416.96699141100896" type="line"/>
      <point x="173.03300858899107" y="156.96699141100893" type="line"/>
    </contour>
    <contour>
      <point x="326.96699141100896" y="156.96699141100893" type="line"/>
      <point x="66.96699141100893" y="416.96699141100896" type="line"/>
      <point x="173.03300858899107" y="523.033008588991" type="line"/>
      <point x="433.03300858899104" y="263.03300858899104" type="line"/>
    </contour>
  </outline>
</glyph>
<glyph name="uni00E1" format="2">
  <advance width="440"/>
  <unicode hex="00E1"/>
  <outline>
    <contour>
      <point x="150.84401291569625" y="585.3571156206036" type="line"/>
      <point x="226.84401291569625" y="663.3571156206036" type="line"/>
      <point x="289.1559870843038" y="602.6428843793964" type="line"/>
      <point x="213.15598708430375" y="524.6428843793964" type="line"/>
    </contour>
    <component base="a"/>
  </outline>
</glyph>
<glyph name="uni00E2" format="2">
  <advance width="440"/>
  <unicode hex="00E2"/>
  <outline>
    <contour>
      <point x="129.11133380726199" y="600.4707856593851" type="line"/>
      <point x="187.11133380726199" y="667.4707856593851" type="line"/>
      <point x="252.88866619273801" y="610.5292143406149" type="line"/>
      <point x="194.88866619273801" y="543.5292143406149" type="line"/>
    </contour>
    <contour>
      <point x="252.88866619273801" y="667.4707856593851" type="line"/>
      <point x="310.888666192738" y="600.4707856593851" type="line"/>
      <point x="245.11133380726199" y="543.5292143406149" type="line"/>
      <point x="187.11133380726199" y="610.5292143406149" type="line"/>
    </contour>
    <component base="a"/>
  </outline>
</glyph>
<glyph name="uni00E3" format="2">
  <advance width="440"/>
  <unicode hex="00E3"/>
  <outline>
    <contour>
      <point x="158.0" y="605" type="line"/>
      <point x="182.0" y="631" type="line"/>
      <point x="206.0" y="631" type="line"/>
      <point x="230.0" y="605" type="line"/>
      <point x="254.0" y="605" type="line"/>
      <point x="282.0" y="631" type="line"/>
      <point x="282.0" y="580.54" type="line"/>
      <point x="254.0" y="554.54" type="line"/>
      <point x="230.0" y="554.54" type="line"/>
      <point x="206.0" y="580.54" type="line"/>
      <point x="182.0" y="580.54" type="line"/>
      <point x="158.0" y="554.54" type="line"/>
    </contour>
    <component base="a"/>
  </outline>
</glyph>
<glyph name="uni00E4" format="2">
  <advance width="440"/>
  <unicode hex="00E4"/>
  <outline>
    <contour>
      <point x="225.5" y="615" type="curve" smooth="yes"/>
      <point x="225.5" y="639.024386625"/>
      <point x="206.024386625" y="658.5"/>
      <point x="182.0" y="658.5" type="curve" smooth="yes"/>
      <point x="157.975613375" y="658.5"/>
      <point x="138.5" y="639.024386625"/>
      <point x="138.5" y="615" type="curve" smooth="yes"/>
      <point x="138.5" y="590.975613375"/>
      <point x="157.975613375" y="571.5"/>
      <point x="182.0" y="571.5" type="curve" smooth="yes"/>
      <point x="206.024386625" y="571.5"/>
      <point x="225.5" y="590.975613375"/>
    </contour>
    <contour>
      <point x="301.5" y="615" type="curve" smooth="yes"/>
      <point x="301.5" y="639.024386625"/>
      <point x="282.024386625" y="658.5"/>
      <point x="258.0" y="658.5" type="curve" smooth="yes"/>
      <point x="233.975613375" y="658.5"/>
      <point x="214.5" y="639.024386625"/>
      <point x="214.5" y="615" type="curve" smooth="yes"/>
      <point x="214.5" y="590.975613375"/>
      <point x="233.975613375" y="571.5"/>
      <point x="258.0" y="571.5" type="curve" smooth="yes"/>
      <point x="282.024386625" y="571.5"/>
      <point x="301.5" y="590.975613375"/>
    </contour>
    <component base="a"/>
  </outline>
</glyph>
<glyph name="uni00ED" format="2">
  <advance width="250"/>
  <unicode hex="00ED"/>
  <outline>
    <contour>
      <point x="55.844012915696254" y="585.3571156206036" type="line"/>
      <point x="131.84401291569625" y="663.3571156206036" type="line"/>
      <point x="194.15598708430375" y="602.6428843793964" type="line"/>
      <point x="118.15598708430375" y="524.6428843793964" type="line"/>
    </contour>
    <component base="i"/>
  </outline>
</glyph>
<glyph name="uni00EF" format="2">
  <advance width="250"/>
  <unicode hex="00EF"/>
  <outline>
    <contour>
      <point x="130.5" y="615" type="curve" smooth="yes"/>
      <point x="130.5" y="639.024386625"/>
      <point x="111.024386625" y="658.5"/>
      <point x="87.0" y="658.5" type="curve" smooth="yes"/>
      <point x="62.975613375" y="658.5"/>
      <point x="43.5" y="639.024386625"/>
      <point x="43.5" y="615" type="curve" smooth="yes"/>
      <point x="43.5" y="590.975613375"/>
      <point x="62.975613375" y="571.5"/>
      <point x="87.0" y="571.5" type="curve" smooth="yes"/>
      <point x="111.024386625" y="571.5"/>
      <point x="130.5" y="590.975613375"/>
    </contour>
    <contour>
      <point x="206.5" y="615" type="curve" smooth="yes"/>
      <point x="206.5" y="639.024386625"/>
      <point x="187.024386625" y="658.5"/>
      <point x="163.0" y="658.5" type="curve" smooth="yes"/>
      <point x="138.975613375" y="658.5"/>
      <point x="119.5" y="639.024386625"/>
      <point x="119.5" y="615" type="curve" smooth="yes"/>
      <point x="119.5" y="590.975613375"/>
      <point x="138.975613375" y="571.5"/>
      <point x="163.0" y="571.5" type="curve" smooth="yes"/>
      <point x="187.024386625" y="571.5"/>
      <point x="206.5" y="590.975613375"/>
    </contour>
    <component base="i"/>
  </outline>
</glyph>
<glyph name="uni00F1" format="2">
  <advance width="500"/>
  <unicode hex="00F1"/>
  <outline>
    <contour>
      <point x="167.05438802019523" y="642.6365885425782" type="line"/>
      <point x="207.05438802019523" y="670.6365885425782" type="line"/>
      <point x="256.94561197980477" y="599.3634114574218" type="line"/>
      <point x="216.94561197980477" y="571.3634114574218" type="line"/>
    </contour>
    <contour>
      <point x="256.94561197980477" y="670.6365885425782" type="line"/>
      <point x="296.94561197980477" y="642.6365885425782" type="line"/>
      <point x="247.05438802019523" y="571.3634114574218" type="line"/>
      <point x="207.05438802019523" y="599.3634114574218" type="line"/>
    </contour>
    <contour>
      <point x="246.19584184483153" y="642.0199289248715" type="line"/>
      <point x="284.19584184483153" y="670.0199289248715" type="line"/>
      <point x="335.80415815516847" y="599.9800710751285" type="line"/>
      <point x="297.80415815516847" y="571.9800710751285" type="line"/>
    </contour>
    <component base="n"/>
  </outline>
</glyph>
<glyph name="uni00F6" format="2">
  <advance width="500"/>
  <unicode hex="00F6"/>
  <outline>
    <contour>
      <point x="255.5" y="615" type="curve" smooth="yes"/>
      <point x="255.5" y="639.024386625"/>
      <point x="236.024386625" y="658.5"/>
      <point x="212.0" y="658.5" type="curve" smooth="yes"/>
      <point x="187.975613375" y="658.5"/>
      <point x="168.5" y="639.024386625"/>
      <point x="168.5" y="615" type="curve" smooth="yes"/>
      <point x="168.5" y="590.975613375"/>
      <point x="187.975613375" y="571.5"/>
      <point x="212.0" y="571.5" type="curve" smooth="yes"/>
      <point x="236.024386625" y="571.5"/>
      <point x="255.5" y="590.975613375"/>
    </contour>
    <contour>
      <point x="331.5" y="615" type="curve" smooth="yes"/>
      <point x="331.5" y="639.024386625"/>
      <point x="312.024386625" y="658.5"/>
      <point x="288.0" y="658.5" type="curve" smooth="yes"/>
      <point x="263.975613375" y="658.5"/>
      <point x="244.5" y="639.024386625"/>
      <point x="244.5" y="615" type="curve" smooth="yes"/>
      <point x="244.5" y="590.975613375"/>
      <point x="263.975613375" y="571.5"/>
      <point x="288.0" y="571.5" type="curve" smooth="yes"/>
      <point x="312.024386625" y="571.5"/>
      <point x="331.5" y="590.975613375"/>
    </contour>
    <component base="o"/>
  </outline>
</glyph>
<glyph name="uni00F7" format="2">
  <advance width="500"/>
  <unicode hex="00F7"/>
  <outline>
    <contour>
      <point x="100.0" y="320" type="line"/>
      <point x="400.0" y="320" type="line"/>
      <point x="400.0" y="470" type="line"/>
      <point x="100.0" y="470" type="line"/>
    </contour>
    <contour>
      <point x="325.0" y="500" type="curve" smooth="yes"/>
      <point x="325.0" y="541.42135625"/>
      <point x="291.42135625000003" y="575.0"/>
      <point x="250.0" y="575.0" type="curve" smooth="yes"/>
      <point x="208.57864375" y="575.0"/>
      <point x="175.0" y="541.42135625"/>
      <point x="175.0" y="500" type="curve" smooth="yes"/>
      <point x="175.0" y="458.57864374999997"/>
      <point x="208.57864375" y="425.0"/>
      <point x="250.0" y="425.0" type="curve" smooth="yes"/>
      <point x="291.42135625000003" y="425.0"/>
      <point x="325.0" y="458.57864374999997"/>
    </contour>
    <contour>
      <point x="325.0" y="140" type="curve" smooth="yes"/>
      <point x="325.0" y="181.42135625"/>
      <point x="291.42135625000003" y="215.0"/>
      <point x="250.0" y="215.0" type="curve" smooth="yes"/>
      <point x="208.57864375" y="215.0"/>
      <point x="175.0" y="181.42135625"/>
      <point x="175.0" y="140" type="curve" smooth="yes"/>
      <point x="175.0" y="98.57864375"/>
      <point x="208.57864375" y="65.0"/>
      <point x="250.0" y="65.0" type="curve" smooth="yes"/>
      <point x="291.42135625000003" y="65.0"/>
      <point x="325.0" y="98.57864375"/>
    </contour>
  </outline>
</glyph>
<glyph name="uni00F8" format="2">
  <advance width="500"/>
  <unicode hex="00F8"/>
  <outline>
    <contour>
      <point x="97.27541731747074" y="116.68587310958026" type="line"/>
      <point x="327.2754173174707" y="636.6858731095803" type="line"/>
      <point x="402.7245826825293" y="603.3141268904197" type="line"/>
      <point x="172.72458268252927" y="83.31412689041974" type="line"/>
    </contour>
    <component base="o"/>
  </outline>
</glyph>
<glyph name="uni0100" format="2">
  <advance width="480"/>
  <unicode hex="0100"/>
  <outline>
    <contour>
      <point x="172.0" y="746" type="line"/>
      <point x="308.0" y="746" type="line"/>
      <point x="308.0" y="833" type="line"/>
      <point x="172.0" y="833" type="line"/>
    </contour>
    <component base="A"/>
  </outline>
</glyph>
<glyph name="uni0102" format="2">
  <advance width="480"/>
  <unicode hex="0102"/>
  <outline>
    <contour>
      <point x="304.0" y="764" type="curve" smooth="yes"/>
      <point x="304.0" y="744.67003375"/>
      <point x="275.346224" y="729"/>
      <point x="240.0" y="729" type="curve" smooth="yes"/>
      <point x="204.653776" y="729"/>
      <point x="176.0" y="744.67003375"/>
      <point x="176.0" y="764" type="curve" smooth="yes"/>
      <point x="176.0" y="783.32996625"/>
      <point x="204.653776" y="799"/>
      <point x="240.0" y="799" type="curve" smooth="yes"/>
      <point x="275.346224" y="799"/>
      <point x="304.0" y="783.32996625"/>
    </contour>
    <contour>
      <point x="170.0" y="728" type="line"/>
      <point x="310.0" y="728" type="line"/>
      <point x="310.0" y="766" type="line"/>
      <point x="170.0" y="766" type="line"/>
    </contour>
    <component base="A"/>
  </outline>
</glyph>
<glyph name="uni0103" format="2">
  <advance width="440"/>
  <unicode hex="0103"/>
  <outline>
    <contour>
      <point x="284.0" y="615" type="curve" smooth="yes"/>
      <point x="284.0" y="595.67003375"/>
      <point x="255.346224" y="580"/>
      <point x="220.0" y="580" type="curve" smooth="yes"/>
      <point x="184.653776" y="580"/>
      <point x="156.0" y="595.67003375"/>
      <point x="156.0" y="615" type="curve" smooth="yes"/>
      <point x="156.0" y="634.32996625"/>
      <point x="184.653776" y="650"/>
      <point x="220.0" y="650" type="curve" smooth="yes"/>
      <point x="255.346224" y="650"/>
      <point x="284.0" y="634.32996625"/>
    </contour>
    <contour>
      <point x="150.0" y="579" type="line"/>
      <point x="290.0" y="579" type="line"/>
      <point x="290.0" y="617" type="line"/>
      <point x="150.0" y="617" type="line"/>
    </contour>
    <component base="a"/>
  </outline>
</glyph>
<glyph name="uni0104" format="2">
  <advance width="480"/>
  <unicode hex="0104"/>
  <outline>
    <contour>
      <point x="294.3195235271951" y="20.065183974035584" type="line"/>
      <point x="338.3195235271951" y="-164.9348160259644" type="line"/>
      <point x="253.68047647280494" y="-185.0651839740356" type="line"/>
      <point x="209.68047647280494" y="-0.06518397403558396" type="line"/>
    </contour>
    <component base="A"/>
  </outline>
</glyph>
<glyph name="uni0105" format="2">
  <advance width="440"/>
  <unicode hex="0105"/>
  <outline>
    <contour>
      <point x="274.3195235271951" y="20.065183974035584" type="line"/>
      <point x="318.3195235271951" y="-164.9348160259644" type="line"/>
      <point x="233.68047647280494" y="-185.0651839740356" type="line"/>
      <point x="189.68047647280494" y="-0.06518397403558396" type="line"/>
    </contour>
    <component base="a"/>
  </outline>
</glyph>
<glyph name="uni0108" format="2">
  <advance width="500"/>
  <unicode hex="0108"/>
  <outline>
    <contour>
      <point x="159.11133380726199" y="749.4707856593851" type="line"/>
      <point x="217.11133380726199" y="816.4707856593851" type="line"/>
      <point x="282.888666192738" y="759.5292143406149" type="line"/>
      <point x="224.88866619273801" y="692.5292143406149" type="line"/>
    </contour>
    <contour>
      <point x="282.888666192738" y="816.4707856593851" type="line"/>
      <point x="340.888666192738" y="749.4707856593851" type="line"/>
      <point x="275.111333807262" y="692.5292143406149" type="line"/>
      <point x="217.11133380726199" y="759.5292143406149" type="line"/>
    </contour>
    <component base="C"/>
  </outline>
</glyph>
<glyph name="uni0112" format="2">
  <advance width="500"/>
  <unicode hex="0112"/>
  <outline>
    <contour>
      <point x="182.0" y="746" type="line"/>
      <point x="318.0" y="746" type="line"/>
      <point x="318.0" y="833" type="line"/>
      <point x="182.0" y="833" type="line"/>
    </contour>
    <component base="E"/>
  </outline>
</glyph>
<glyph name="uni0116" format="2">
  <advance width="500"/>
  <unicode hex="0116"/>
  <outline>
    <contour>
      <point x="293.5" y="764" type="curve" smooth="yes"/>
      <point x="293.5" y="788.024386625"/>
      <point x="274.024386625" y="807.5"/>
      <point x="250.0" y="807.5" type="curve" smooth="yes"/>
      <point x="225.975613375" y="807.5"/>
      <point x="206.5" y="788.024386625"/>
      <point x="206.5" y="764" type="curve" smooth="yes"/>
      <point x="206.5" y="739.975613375"/>
      <point x="225.975613375" y="720.5"/>
      <point x="250.0" y="720.5" type="curve" smooth="yes"/>
      <point x="274.024386625" y="720.5"/>
      <point x="293.5" y="739.975613375"/>
    </contour>
    <component base="E"/>
  </outline>
</glyph>
<glyph name="uni0121" format="2">
  <advance width="500"/>
  <unicode hex="0121"/>
  <outline>
    <contour>
      <point x="293.5" y="615" type="curve" smooth="yes"/>
      <point x="293.5" y="639.024386625"/>
      <point x="274.024386625" y="658.5"/>
      <point x="250.0" y="658.5" type="curve" smooth="yes"/>
      <point x="225.975613375" y="658.5"/>
      <point x="206.5" y="639.024386625"/>
      <point x="206.5" y="615" type="curve" smooth="yes"/>
      <point x="206.5" y="590.975613375"/>
      <point x="225.975613375" y="571.5"/>
      <point x="250.0" y="571.5" type="curve" smooth="yes"/>
      <point x="274.024386625" y="571.5"/>
      <point x="293.5" y="590.975613375"/>
    </contour>
    <component base="g"/>
  </outline>
</glyph>
<glyph name="uni0122" format="2">
  <advance width="500"/>
  <unicode hex="0122"/>
  <outline>
    <contour>
      <point x="293.5" y="-105.0" type="curve" smooth="yes"/>
      <point x="293.5" y="-80.975613375"/>
      <point x="274.024386625" y="-61.5"/>
      <point x="250.0" y="-61.5" type="curve" smooth="yes"/>
      <point x="225.975613375" y="-61.5"/>
      <point x="206.5" y="-80.975613375"/>
      <point x="206.5" y="-105.0" type="curve" smooth="yes"/>
      <point x="206.5" y="-129.024386625"/>
      <point x="225.975613375" y="-148.5"/>
      <point x="250.0" y="-148.5" type="curve" smooth="yes"/>
      <point x="274.024386625" y="-148.5"/>
      <point x="293.5" y="-129.024386625"/>
    </contour>
    <contour>
      <point x="292.87017374286467" y="-19.375513762213274" type="line"/>
      <point x="260.87017374286467" y="-205.37551376221327" type="line"/>
      <point x="175.12982625713533" y="-190.62448623778673" type="line"/>
      <point x="207.12982625713533" y="-4.624486237786725" type="line"/>
    </contour>
    <component base="G"/>
  </outline>
</glyph>
<glyph name="uni0128" format="2">
  <advance width="250"/>
  <unicode hex="0128"/>
  <outline>
    <contour>
      <point x="63.0" y="754" type="line"/>
      <point x="87.0" y="780" type="line"/>
      <point x="111.0" y="780" type="line"/>
      <point x="135.0" y="754" type="line"/>
      <point x="159.0" y="754" type="line"/>
      <point x="187.0" y="780" type="line"/>
      <point x="187.0" y="729.54" type="line"/>
      <point x="159.0" y="703.54" type="line"/>
      <point x="135.0" y="703.54" type="line"/>
      <point x="111.0" y="729.54" type="line"/>
      <point x="87.0" y="729.54" type="line"/>
      <point x="63.0" y="703.54" type="line"/>
    </contour>
    <component base="I"/>
  </outline>
</glyph>
<glyph name="uni0129" format="2">
  <advance width="250"/>
  <unicode hex="0129"/>
  <outline>
    <contour>
      <point x="63.0" y="605" type="line"/>
      <point x="87.0" y="631" type="line"/>
      <point x="111.0" y="631" type="line"/>
      <point x="135.0" y="605" type="line"/>
      <point x="159.0" y="605" type="line"/>
      <point x="187.0" y="631" type="line"/>
      <point x="187.0" y="580.54" type="line"/>
      <point x="159.0" y="554.54" type="line"/>
      <point x="135.0" y="554.54" type="line"/>
      <point x="111.0" y="580.54" type="line"/>
      <point x="87.0" y="580.54" type="line"/>
      <point x="63.0" y="554.54" type="line"/>
    </contour>
    <component base="i"/>
  </outline>
</glyph>
<glyph name="uni012C" format="2">
  <advance width="250"/>
  <unicode hex="012C"/>
  <outline>
    <contour>
      <point x="189.0" y="764" type="curve" smooth="yes"/>
      <point x="189.0" y="744.67003375"/>
      <point x="160.346224" y="729"/>
      <point x="125.0" y="729" type="curve" smooth="yes"/>
      <point x="89.653776" y="729"/>
      <point x="61.0" y="744.67003375"/>
      <point x="61.0" y="764" type="curve" smooth="yes"/>
      <point x="61.0" y="783.32996625"/>
      <point x="89.653776" y="799"/>
      <point x="125.0" y="799" type="curve" smooth="yes"/>
      <point x="160.346224" y="799"/>
      <point x="189.0" y="783.32996625"/>
    </contour>
    <contour>
      <point x="55.0" y="728" type="line"/>
      <point x="195.0" y="728" type="line"/>
      <point x="195.0" y="766" type="line"/>
      <point x="55.0" y="766" type="line"/>
    </contour>
    <component base="I"/>
  </outline>
</glyph>
<glyph name="uni012F" format="2">
  <advance width="250"/>
  <unicode hex="012F"/>
  <outline>
    <contour>
      <point x="179.31952352719506" y="20.065183974035584" type="line"/>
      <point x="223.31952352719506" y="-164.9348160259644" type="line"/>
      <point x="138.68047647280494" y="-185.0651839740356" type="line"/>
      <point x="94.68047647280494" y="-0.06518397403558396" type="line"/>
    </contour>
    <component base="i"/>
  </outline>
</glyph>
<glyph name="uni0130" format="2">
  <advance width="250"/>
  <unicode hex="0130"/>
  <outline>
    <contour>
      <point x="168.5" y="764" type="curve" smooth="yes"/>
      <point x="168.5" y="788.024386625"/>
      <point x="149.024386625" y="807.5"/>
      <point x="125.0" y="807.5" type="curve" smooth="yes"/>
      <point x="100.975613375" y="807.5"/>
      <point x="81.5" y="788.024386625"/>
      <point x="81.5" y="764" type="curve" smooth="yes"/>
      <point x="81.5" y="739.975613375"/>
      <point x="100.975613375" y="720.5"/>
      <point x="125.0" y="720.5" type="curve" smooth="yes"/>
      <point x="149.024386625" y="720.5"/>
      <point x="168.5" y="739.975613375"/>
    </contour>
    <component base="I"/>
  </outline>
</glyph>
<glyph name="uni013C" format="2">
  <advance width="250"/>
  <unicode hex="013C"/>
  <outline>
    <contour>
      <point x="168.5" y="-105.0" type="curve" smooth="yes"/>
      <point x="168.5" y="-80.975613375"/>
      <point x="149.024386625" y="-61.5"/>
      <point x="125.0" y="-61.5" type="curve" smooth="yes"/>
      <point x="100.975613375" y="-61.5"/>
      <point x="81.5" y="-80.975613375"/>
      <point x="81.5" y="-105.0" type="curve" smooth="yes"/>
      <point x="81.5" y="-129.024386625"/>
      <point x="100.975613375" y="-148.5"/>
      <point x="125.0" y="-148.5" type="curve" smooth="yes"/>
      <point x="149.024386625" y="-148.5"/>
      <point x="168.5" y="-129.024386625"/>
    </contour>
    <contour>
      <point x="167.87017374286467" y="-19.375513762213274" type="line"/>
      <point x="135.87017374286467" y="-205.37551376221327" type="line"/>
      <point x="50.12982625713534" y="-190.62448623778673" type="line"/>
      <point x="82.12982625713533" y="-4.624486237786725" type="line"/>
    </contour>
    <component base="l"/>
  </outline>
</glyph>
<glyph name="uni013E" format="2">
  <advance width="250"/>
  <unicode hex="013E"/>
  <outline>
    <contour>
      <point x="99.88866619273801" y="667.4707856593851" type="line"/>
      <point x="157.88866619273801" y="600.4707856593851" type="line"/>
      <point x="92.11133380726199" y="543.5292143406149" type="line"/>
      <point x="34.11133380726198" y="610.5292143406149" type="line"/>
    </contour>
    <contour>
      <point x="92.11133380726199" y="600.4707856593851" type="line"/>
      <point x="150.11133380726199" y="667.4707856593851" type="line"/>
      <point x="215.88866619273801" y="610.5292143406149" type="line"/>
      <point x="157.88866619273801" y="543.5292143406149" type="line"/>
    </contour>
    <component base="l"/>
  </outline>
</glyph>
<glyph name="uni013F" format="2">
  <advance width="500"/>
  <unicode hex="013F"/>
  <outline>
    <contour>
      <point x="410.0" y="266.4" type="curve" smooth="yes"/>
      <point x="410.0" y="291.25281375"/>
      <point x="389.85281375" y="311.4"/>
      <point x="365.0" y="311.4" type="curve" smooth="yes"/>
      <point x="340.14718625" y="311.4"/>
      <point x="320.0" y="291.25281375"/>
      <point x="320.0" y="266.4" type="curve" smooth="yes"/>
      <point x="320.0" y="241.54718624999998"/>
      <point x="340.14718625" y="221.39999999999998"/>
      <point x="365.0" y="221.39999999999998" type="curve" smooth="yes"/>
      <point x="389.85281375" y="221.39999999999998"/>
      <point x="410.0" y="241.54718624999998"/>
    </contour>
    <component base="L"/>
  </outline>
</glyph>
<glyph name="uni0140" format="2">
  <advance width="250"/>
  <unicode hex="0140"/>
  <outline>
    <contour>
      <point x="227.5" y="266.4" type="curve" smooth="yes"/>
      <point x="227.5" y="291.25281375"/>
      <point x="207.35281375" y="311.4"/>
      <point x="182.5" y="311.4" type="curve" smooth="yes"/>
      <point x="157.64718625" y="311.4"/>
      <point x="137.5" y="291.25281375"/>
      <point x="137.5" y="266.4" type="curve" smooth="yes"/>
      <point x="137.5" y="241.54718624999998"/>
      <point x="157.64718625" y="221.39999999999998"/>
      <point x="182.5" y="221.39999999999998" type="curve" smooth="yes"/>
      <point x="207.35281375" y="221.39999999999998"/>
      <point x="227.5" y="241.54718624999998"/>
    </contour>
    <component base="l"/>
  </outline>
</glyph>
<glyph name="uni0142" format="2">
  <advance width="250"/>
  <unicode hex="0142"/>
  <outline>
    <contour>
      <point x="27.223192246179003" y="108.90737094555656" type="line"/>
      <point x="142.223192246179" y="628.9073709455565" type="line"/>
      <point x="222.776807753821" y="611.0926290544435" type="line"/>
      <point x="107.776807753821" y="91.09262905444344" type="line"/>
    </contour>
    <component base="l"/>
  </outline>
</glyph>
<glyph name="uni0149" format="2">
  <advance width="500"/>
  <unicode hex="0149"/>
  <outline>
    <contour>
      <point x="125.6967939532995" y="553.2553108304569" type="line"/>
      <point x="85.6967939532995" y="623.2553108304569" type="line"/>
      <point x="144.3032060467005" y="656.7446891695431" type="line"/>
      <point x="184.3032060467005" y="586.7446891695431" type="line"/>
    </contour>
    <component base="n"/>
  </outline>
</glyph>
<glyph name="uni014C" format="2">
  <advance width="500"/>
  <unicode hex="014C"/>
  <outline>
    <contour>
      <point x="182.0" y="746" type="line"/>
      <point x="318.0" y="746" type="line"/>
      <point x="318.0" y="833" type="line"/>
      <point x="182.0" y="833" type="line"/>
    </contour>
    <component base="O"/>
  </outline>
</glyph>
<glyph name="uni0151" format="2">
  <advance width="500"/>
  <unicode hex="0151"/>
  <outline>
    <contour>
      <point x="159.3883998814448" y="596.9812717249566" type="line"/>
      <point x="206.3883998814448" y="663.9812717249566" type="line"/>
      <point x="277.6116001185552" y="614.0187282750434" type="line"/>
      <point x="230.6116001185552" y="547.0187282750434" type="line"/>
    </contour>
    <contour>
      <point x="222.3883998814448" y="596.9812717249566" type="line"/>
      <point x="269.3883998814448" y="663.9812717249566" type="line"/>
      <point x="340.6116001185552" y="614.0187282750434" type="line"/>
      <point x="293.6116001185552" y="547.0187282750434" type="line"/>
    </contour>
    <component base="o"/>
  </outline>
</glyph>
<glyph name="uni0155" format="2">
  <advance width="500"/>
  <unicode hex="0155"/>
  <outline>
    <contour>
      <point x="180.84401291569625" y="585.3571156206036" type="line"/>
      <point x="256.8440129156962" y="663.3571156206036" type="line"/>
      <point x="319.1559870843038" y="602.6428843793964" type="line"/>
      <point x="243.15598708430375" y="524.6428843793964" type="line"/>
    </contour>
    <component base="r"/>
  </outline>
</glyph>
<glyph name="uni0160" format="2">
  <advance width="500"/>
  <unicode hex="0160"/>
  <outline>
    <contour>
      <point x="224.88866619273801" y="816.4707856593851" type="line"/>
      <point x="282.888666192738" y="749.4707856593851" type="line"/>
      <point x="217.11133380726199" y="692.5292143406149" type="line"/>
      <point x="159.11133380726199" y="759.5292143406149" type="line"/>
    </contour>
    <contour>
      <point x="217.11133380726199" y="749.4707856593851" type="line"/>
      <point x="275.111333807262" y="816.4707856593851" type="line"/>
      <point x="340.888666192738" y="759.5292143406149" type="line"/>
      <point x="282.888666192738" y="692.5292143406149" type="line"/>
    </contour>
    <component base="S"/>
  </outline>
</glyph>
<glyph name="uni016C" format="2">
  <advance width="500"/>
  <unicode hex="016C"/>
  <outline>
    <contour>
      <point x="314.0" y="764" type="curve" smooth="yes"/>
      <point x="314.0" y="744.67003375"/>
      <point x="285.346224" y="729"/>
      <point x="250.0" y="729" type="curve" smooth="yes"/>
      <point x="214.653776" y="729"/>
      <point x="186.0" y="744.67003375"/>
      <point x="186.0" y="764" type="curve" smooth="yes"/>
      <point x="186.0" y="783.32996625"/>
      <point x="214.653776" y="799"/>
      <point x="250.0" y="799" type="curve" smooth="yes"/>
      <point x="285.346224" y="799"/>
      <point x="314.0" y="783.32996625"/>
    </contour>
    <contour>
      <point x="180.0" y="728" type="line"/>
      <point x="320.0" y="728" type="line"/>
      <point x="320.0" y="766" type="line"/>
      <point x="180.0" y="766" type="line"/>
    </contour>
    <component base="U"/>
  </outline>
</glyph>
<glyph name="uni0173" format="2">
  <advance width="500"/>
  <unicode hex="0173"/>
  <outline>
    <contour>
      <point x="304.3195235271951" y="20.065183974035584" type="line"/>
      <point x="348.3195235271951" y="-164.9348160259644" type="line"/>
      <point x="263.6804764728049" y="-185.0651839740356" type="line"/>
      <point x="219.68047647280494" y="-0.06518397403558396" type="line"/>
    </contour>
    <component base="u"/>
  </outline>
</glyph>
<glyph name="uni0174" format="2">
  <advance width="560"/>
  <unicode hex="0174"/>
  <outline>
    <contour>
      <point x="189.11133380726199" y="749.4707856593851" type="line"/>
      <point x="247.11133380726199" y="816.4707856593851" type="line"/>
      <point x="312.888666192738" y="759.5292143406149" type="line"/>
      <point x="254.88866619273801" y="692.5292143406149" type="line"/>
    </contour>
    <contour>
      <point x="312.888666192738" y="816.4707856593851" type="line"/>
      <point x="370.888666192738" y="749.4707856593851" type="line"/>
      <point x="305.111333807262" y="692.5292143406149" type="line"/>
      <point x="247.11133380726199" y="759.5292143406149" type="line"/>
    </contour>
    <component base="W"/>
  </outline>
</glyph>
<glyph name="uni0175" format="2">
  <advance width="560"/>
  <unicode hex="0175"/>
  <outline>
    <contour>
      <point x="189.11133380726199" y="600.4707856593851" type="line"/>
      <point x="247.11133380726199" y="667.4707856593851" type="line"/>
      <point x="312.888666192738" y="610.5292143406149" type="line"/>
      <point x="254.88866619273801" y="543.5292143406149" type="line"/>
    </contour>
    <contour>
      <point x="312.888666192738" y="667.4707856593851" type="line"/>
      <point x="370.888666192738" y="600.4707856593851" type="line"/>
      <point x="305.111333807262" y="543.5292143406149" type="line"/>
      <point x="247.11133380726199" y="610.5292143406149" type="line"/>
    </contour>
    <component base="w"/>
  </outline>
</glyph>
<glyph name="uni017E" format="2">
  <advance width="500"/>
  <unicode hex="017E"/>
  <outline>
    <contour>
      <point x="224.88866619273801" y="667.4707856593851" type="line"/>
      <point x="282.888666192738" y="600.4707856593851" type="line"/>
      <point x="217.11133380726199" y="543.5292143406149" type="line"/>
      <point x="159.11133380726199" y="610.5292143406149" type="line"/>
    </contour>
    <contour>
      <point x="217.11133380726199" y="600.4707856593851" type="line"/>
      <point x="275.111333807262" y="667.4707856593851" type="line"/>
      <point x="340.888666192738" y="610.5292143406149" type="line"/>
      <point x="282.888666192738" y="543.5292143406149" type="line"/>
    </contour>
    <component base="z"/>
  </outline>
</glyph>
<glyph name="uni01A1" format="2">
  <advance width="500"/>
  <unicode hex="01A1"/>
  <outline>
    <contour>
      <point x="312.0" y="603" type="line"/>
      <point x="334.0" y="611" type="line"/>
      <point x="366.0" y="645" type="line"/>
      <point x="326.85" y="645" type="line"/>
      <point x="290.85" y="617" type="line"/>
      <point x="312.0" y="563.85" type="line"/>
    </contour>
    <component base="o"/>
  </outline>
</glyph>
<glyph name="uni01AF" format="2">
  <advance width="500"/>
  <unicode hex="01AF"/>
  <outline>
    <contour>
      <point x="312.0" y="752" type="line"/>
      <point x="334.0" y="760" type="line"/>
      <point x="366.0" y="794" type="line"/>
      <point x="326.85" y="794" type="line"/>
      <point x="290.85" y="766" type="line"/>
      <point x="312.0" y="712.85" type="line"/>
    </contour>
    <component base="U"/>
  </outline>
</glyph>
<glyph name="uni01B0" format="2">
  <advance width="500"/>
  <unicode hex="01B0"/>
  <outline>
    <contour>
      <point x="312.0" y="603" type="line"/>
      <point x="334.0" y="611" type="line"/>
      <point x="366.0" y="645" type="line"/>
      <point x="326.85" y="645" type="line"/>
      <point x="290.85" y="617" type="line"/>
      <point x="312.0" y="563.85" type="line"/>
    </contour>
    <component base="u"/>
  </outline>
</glyph>
<glyph name="uni0219" format="2">
  <advance width="500"/>
  <unicode hex="0219"/>
  <outline>
    <contour>
      <point x="293.5" y="-105.0" type="curve" smooth="yes"/>
      <point x="293.5" y="-80.975613375"/>
      <point x="274.024386625" y="-61.5"/>
      <point x="250.0" y="-61.5" type="curve" smooth="yes"/>
      <point x="225.975613375" y="-61.5"/>
      <point x="206.5" y="-80.975613375"/>
      <point x="206.5" y="-105.0" type="curve" smooth="yes"/>
      <point x="206.5" y="-129.024386625"/>
      <point x="225.975613375" y="-148.5"/>
      <point x="250.0" y="-148.5" type="curve" smooth="yes"/>
      <point x="274.024386625" y="-148.5"/>
      <point x="293.5" y="-129.024386625"/>
    </contour>
    <contour>
      <point x="297.1423371985801" y="-17.56675318691356" type="line"/>
      <point x="273.1423371985801" y="-203.56675318691356" type="line"/>
      <point x="186.8576628014199" y="-192.43324681308644" type="line"/>
      <point x="210.8576628014199" y="-6.4332468130864395" type="line"/>
    </contour>
    <component base="s"/>
  </outline>
</glyph>
<glyph name="uni038C" format="2">
  <advance width="500"/>
  <unicode hex="038C"/>
  <outline>
    <contour>
      <point x="180.84401291569625" y="734.3571156206036" type="line"/>
      <point x="256.8440129156962" y="812.3571156206036" type="line"/>
      <point x="319.1559870843038" y="751.6428843793964" type="line"/>
      <point x="243.15598708430375" y="673.6428843793964" type="line"/>
    </contour>
    <component base="O"/>
  </outline>
</glyph>
<glyph name="uni038F" format="2">
  <advance width="500"/>
  <unicode hex="038F"/>
  <outline>
    <contour>
      <point x="76" y="0" type="curve"/>
      <point x="152" y="0" type="line"/>
      <point x="161.9411255" y="0"/>
      <point x="170" y="8.0588745"/>
      <point x="170" y="18" type="curve"/>
      <point x="170" y="132" type="line"/>
      <point x="170" y="141.9411255"/>
      <point x="161.9411255" y="150"/>
      <point x="152" y="150" type="curve"/>
      <point x="76" y="150" type="line"/>
      <point x="66.0588745" y="150"/>
      <point x="58" y="141.9411255"/>
      <point x="58" y="132" type="curve"/>
      <point x="58" y="18" type="line"/>
      <point x="58" y="8.0588745"/>
      <point x="66.0588745" y="0"/>
    </contour>
    <contour>
      <point x="348" y="0" type="curve"/>
      <point x="424" y="0" type="line"/>
      <point x="433.9411255" y="0"/>
      <point x="442" y="8.0588745"/>
      <point x="442" y="18" type="curve"/>
      <point x="442" y="132" type="line"/>
      <point x="442" y="141.9411255"/>
      <point x="433.9411255" y="150"/>
      <point x="424" y="150" type="curve"/>
      <point x="348" y="150" type="line"/>
      <point x="338.0588745" y="150"/>
      <point x="330" y="141.9411255"/>
      <point x="330" y="132" type="curve"/>
      <point x="330" y="18" type="line"/>
      <point x="330" y="8.0588745"/>
      <point x="338.0588745" y="0"/>
    </contour>
    <contour>
      <point x="92" y="44" type="line"/>
      <point x="38" y="190"/>
      <point x="68" y="708"/>
      <point x="250" y="708" type="curve"/>
      <point x="432" y="708"/>
      <point x="462" y="190"/>
      <point x="408" y="44" type="curve"/>
      <point x="344" y="44" type="line"/>
      <point x="384" y="172"/>
      <point x="360" y="642"/>
      <point x="250" y="642" type="curve"/>
      <point x="140" y="642"/>
      <point x="116" y="172"/>
      <point x="156" y="44" type="curve"/>
    </contour>
    <contour>
      <point x="180.84401291569625" y="734.3571156206036" type="line"/>
      <point x="256.8440129156962" y="812.3571156206036" type="line"/>
      <point x="319.1559870843038" y="751.6428843793964" type="line"/>
      <point x="243.15598708430375" y="673.6428843793964" type="line"/>
    </contour>
  </outline>
</glyph>
<glyph name="uni0390" format="2">
  <advance width="250"/>
  <unicode hex="0390"/>
  <outline>
    <contour>
      <point x="130.5" y="615" type="curve"/>
      <point x="130.5" y="639.024386625"/>
      <point x="111.024386625" y="658.5"/>
      <point x="87.0" y="658.5" type="curve"/>
      <point x="62.975613375" y="658.5"/>
      <point x="43.5" y="639.024386625"/>
      <point x="43.5" y="615" type="curve"/>
      <point x="43.5" y="590.975613375"/>
      <point x="62.975613375" y="571.5"/>
      <point x="87.0" y="571.5" type="curve"/>
      <point x="111.024386625" y="571.5"/>
      <point x="130.5" y="590.975613375"/>
    </contour>
    <contour>
      <point x="206.5" y="615" type="curve"/>
      <point x="206.5" y="639.024386625"/>
      <point x="187.024386625" y="658.5"/>
      <point x="163.0" y="658.5" type="curve"/>
      <point x="138.975613375" y="658.5"/>
      <point x="119.5" y="639.024386625"/>
      <point x="119.5" y="615" type="curve"/>
      <point x="119.5" y="590.975613375"/>
      <point x="138.975613375" y="571.5"/>
      <point x="163.0" y="571.5" type="curve"/>
      <point x="187.024386625" y="571.5"/>
      <point x="206.5" y="590.975613375"/>
    </contour>
    <contour>
      <point x="55.844012915696254" y="585.3571156206036" type="line"/>
      <point x="131.84401291569625" y="663.3571156206036" type="line"/>
      <point x="194.15598708430375" y="602.6428843793964" type="line"/>
      <point x="118.15598708430375" y="524.6428843793964" type="line"/>
    </contour>
    <component base="i"/>
  </outline>
</glyph>
<glyph name="uni0393" format="2">
  <advance width="500"/>
  <unicode hex="0393"/>
  <outline>
    <contour>
      <point x="76" y="0" type="curve"/>
      <point x="190" y="0" type="line"/>
      <point x="199.9411255" y="0"/>
      <point x="208" y="8.0588745"/>
      <point x="208" y="18" type="curve"/>
      <point x="208" y="682" type="line"/>
      <point x="208" y="691.9411255"/>
      <point x="199.9411255" y="700"/>
      <point x="190" y="700" type="curve"/>
      <point x="76" y="700" type="line"/>
      <point x="66.0588745" y="700"/>
      <point x="58" y="691.9411255"/>
      <point x="58" y="682" type="curve"/>
      <point x="58" y="18" type="line"/>
      <point x="58" y="8.0588745"/>
      <point x="66.0588745" y="0"/>
    </contour>
    <contour>
      <point x="58" y="550" type="line"/>
      <point x="408" y="550" type="line"/>
      <point x="408" y="700" type="line"/>
      <point x="58" y="700" type="line"/>
    </contour>
  </outline>
</glyph>
<glyph name="uni0394" format="2">
  <advance width="500"/>
  <unicode hex="0394"/>
  <outline>
    <contour>
      <point x="-4.586688009120394" y="18.872538882371305" type="line"/>
      <point x="177.4133119908796" y="718.8725388823713" type="line"/>
      <point x="322.5866880091204" y="681.1274611176287" type="line"/>
      <point x="140.5866880091204" y="-18.872538882371305" type="line"/>
    </contour>
    <contour>
      <point x="359.4133119908796" y="-18.872538882371305" type="line"/>
      <point x="177.4133119908796" y="681.1274611176287" type="line"/>
      <point x="322.5866880091204" y="718.8725388823713" type="line"/>
      <point x="504.5866880091204" y="18.872538882371305" type="line"/>
    </contour>
    <contour>
      <point x="90" y="0" type="curve"/>
      <point x="410" y="0" type="line"/>
      <point x="419.9411255" y="0"/>
      <point x="428" y="8.0588745"/>
      <point x="428" y="18" type="curve"/>
      <point x="428" y="132" type="line"/>
      <point x="428" y="141.9411255"/>
      <point x="419.9411255" y="150"/>
      <point x="410" y="150" type="curve"/>
      <point x="90" y="150" type="line"/>
      <point x="80.0588745" y="150"/>
      <point x="72" y="141.9411255"/>
      <point x="72" y="132" type="curve"/>
      <point x="72" y="18" type="line"/>
      <point x="72" y="8.0588745"/>
      <point x="80.0588745" y="0"/>
    </contour>
  </outline>
</glyph>
<glyph name="uni039B" format="2">
  <advance width="500"/>
  <unicode hex="039B"/>
  <outline>
    <contour>
      <point x="-4.586688009120394" y="18.872538882371305" type="line"/>
      <point x="177.4133119908796" y="718.8725388823713" type="line"/>
      <point x="322.5866880091204" y="681.1274611176287" type="line"/>
      <point x="140.5866880091204" y="-18.872538882371305" type="line"/>
    </contour>
    <contour>
      <point x="359.4133119908796" y="-18.872538882371305" type="line"/>
      <point x="177.4133119908796" y="681.1274611176287" type="line"/>
      <point x="322.5866880091204" y="718.8725388823713" type="line"/>
      <point x="504.5866880091204" y="18.872538882371305" type="line"/>
    </contour>
  </outline>
</glyph>
<glyph name="uni03A3" format="2">
  <advance width="500"/>
  <unicode hex="03A3"/>
  <outline>
    <contour>
      <point x="100" y="550" type="curve"/>
      <point x="404" y="550" type="line"/>
      <point x="413.9411255" y="550"/>
      <point x="422" y="558.0588745"/>
      <point x="422" y="568" type="curve"/>
      <point x="422" y="682" type="line"/>
      <point x="422" y="691.9411255"/>
      <point x="413.9411255" y="700"/>
      <point x="404" y="700" type="curve"/>
      <point x="100" y="700" type="line"/>
      <point x="90.0588745" y="700"/>
      <point x="82" y="691.9411255"/>
      <point x="82" y="682" type="curve"/>
      <point x="82" y="568" type="line"/>
      <point x="82" y="558.0588745"/>
      <point x="90.0588745" y="550"/>
    </contour>
    <contour>
      <point x="453.6966792906766" y="574.7717219487716" type="line"/>
      <point x="205.69667929067663" y="299.7717219487716" type="line"/>
      <point x="94.30332070932336" y="400.2282780512284" type="line"/>
      <point x="342.3033207093234" y="675.2282780512284" type="line"/>
    </contour>
    <contour>
      <point x="205.69667929067663" y="400.2282780512284" type="line"/>
      <point x="453.6966792906766" y="125.22827805122839" type="line"/>
      <point x="342.3033207093234" y="24.771721948771606" type="line"/>
      <point x="94.30332070932336" y="299.7717219487716" type="line"/>
    </contour>
    <contour>
      <point x="100" y="0" type="curve"/>
      <point x="404" y="0" type="line"/>
      <point x="413.9411255" y="0"/>
      <point x="422" y="8.0588745"/>
      <point x="422" y="18" type="curve"/>
      <point x="422" y="132" type="line"/>
      <point x="422" y="141.9411255"/>
      <point x="413.9411255" y="150"/>
      <point x="404" y="150" type="curve"/>
      <point x="100" y="150" type="line"/>
      <point x="90.0588745" y="150"/>
      <point x="82" y="141.9411255"/>
      <point x="82" y="132" type="curve"/>
      <point x="82" y="18" type="line"/>
      <point x="82" y="8.0588745"/>
      <point x="90.0588745" y="0"/>
    </contour>
  </outline>
</glyph>
<glyph name="uni03A6" format="2">
  <advance width="500"/>
  <unicode hex="03A6"/>
  <outline>
    <contour>
      <point x="428" y="350.0" type="curve"/>
      <point x="428" y="488.0711875"/>
      <point x="348.3066855" y="600.0"/>
      <point x="250" y="600.0" type="curve"/>
      <point x="151.69331449999999" y="600.0"/>
      <point x="72" y="488.0711875"/>
      <point x="72" y="350.0" type="curve"/>
      <point x="72" y="211.9288125"/>
      <point x="151.69331449999999" y="100.0"/>
      <point x="250" y="100.0" type="curve"/>
      <point x="348.3066855" y="100.0"/>
      <point x="428" y="211.9288125"/>
    </contour>
    <contour>
      <point x="278" y="350.0" type="curve"/>
      <point x="278" y="294.771525"/>
      <point x="265.463973" y="250.0"/>
      <point x="250" y="250.0" type="curve"/>
      <point x="234.536027" y="250.0"/>
      <point x="222" y="294.771525"/>
      <point x="222" y="350.0" type="curve"/>
      <point x="222" y="405.228475"/>
      <point x="234.536027" y="450.0"/>
      <point x="250" y="450.0" type="curve"/>
      <point x="265.463973" y="450.0"/>
      <point x="278" y="405.228475"/>
    </contour>
    <contour>
      <point x="193.0" y="-56" type="curve"/>
      <point x="307.0" y="-56" type="line"/>
      <point x="316.9411255" y="-56"/>
      <point x="325.0" y="-47.9411255"/>
      <point x="325.0" y="-38" type="curve"/>
      <point x="325.0" y="738" type="line"/>
      <point x="325.0" y="747.9411255"/>
      <point x="316.9411255" y="756"/>
      <point x="307.0" y="756" type="curve"/>
      <point x="193.0" y="756" type="line"/>
      <point x="183.0588745" y="756"/>
      <point x="175.0" y="747.9411255"/>
      <point x="175.0" y="738" type="curve"/>
      <point x="175.0" y="-38" type="line"/>
      <point x="175.0" y="-47.9411255"/>
      <point x="183.0588745" y="-56"/>
    </contour>
  </outline>
</glyph>
<glyph name="uni03A8" format="2">
  <advance width="500"/>
  <unicode hex="03A8"/>
  <outline>
    <contour>
      <point x="428" y="478" type="curve"/>
      <point x="428" y="575.202116"/>
      <point x="348.3066855" y="654"/>
      <point x="250" y="654" type="curve"/>
      <point x="151.69331449999999" y="654"/>
      <point x="72" y="575.202116"/>
      <point x="72" y="478" type="curve"/>
      <point x="72" y="380.797884"/>
      <point x="151.69331449999999" y="302"/>
      <point x="250" y="302" type="curve"/>
      <point x="348.3066855" y="302"/>
      <point x="428" y="380.797884"/>
    </contour>
    <contour>
      <point x="278" y="478" type="curve"/>
      <point x="278" y="463.6405965"/>
      <point x="265.463973" y="452"/>
      <point x="250" y="452" type="curve"/>
      <point x="234.536027" y="452"/>
      <point x="222" y="463.6405965"/>
      <point x="222" y="478" type="curve"/>
      <point x="222" y="492.3594035"/>
      <point x="234.536027" y="504"/>
      <point x="250" y="504" type="curve"/>
      <point x="265.463973" y="504"/>
      <point x="278" y="492.3594035"/>
    </contour>
    <contour>
      <point x="193.0" y="0" type="curve"/>
      <point x="307.0" y="0" type="line"/>
      <point x="316.9411255" y="0"/>
      <point x="325.0" y="8.0588745"/>
      <point x="325.0" y="18" type="curve"/>
      <point x="325.0" y="452" type="line"/>
      <point x="325.0" y="461.9411255"/>
      <point x="316.9411255" y="470"/>
      <point x="307.0" y="470" type="curve"/>
      <point x="193.0" y="470" type="line"/>
      <point x="183.0588745" y="470"/>
      <point x="175.0" y="461.9411255"/>
      <point x="175.0" y="452" type="curve"/>
      <point x="175.0" y="18" type="line"/>
      <point x="175.0" y="8.0588745"/>
      <point x="183.0588745" y="0"/>
    </contour>
  </outline>
</glyph>
<glyph name="uni03A9" format="2">
  <advance width="500"/>
  <unicode hex="03A9"/>
  <outline>
    <contour>
      <point x="76" y="0" type="curve"/>
      <point x="152" y="0" type="line"/>
      <point x="161.9411255" y="0"/>
      <point x="170" y="8.0588745"/>
      <point x="170" y="18" type="curve"/>
      <point x="170" y="132" type="line"/>
      <point x="170" y="141.9411255"/>
      <point x="161.9411255" y="150"/>
      <point x="152" y="150" type="curve"/>
      <point x="76" y="150" type="line"/>
      <point x="66.0588745" y="150"/>
      <point x="58" y="141.9411255"/>
      <point x="58" y="132" type="curve"/>
      <point x="58" y="18" type="line"/>
      <point x="58" y="8.0588745"/>
      <point x="66.0588745" y="0"/>
    </contour>
    <contour>
      <point x="348" y="0" type="curve"/>
      <point x="424" y="0" type="line"/>
      <point x="433.9411255" y="0"/>
      <point x="442" y="8.0588745"/>
      <point x="442" y="18" type="curve"/>
      <point x="442" y="132" type="line"/>
      <point x="442" y="141.9411255"/>
      <point x="433.9411255" y="150"/>
      <point x="424" y="150" type="curve"/>
      <point x="348" y="150" type="line"/>
      <point x="338.0588745" y="150"/>
      <point x="330" y="141.9411255"/>
      <point x="330" y="132" type="curve"/>
      <point x="330" y="18" type="line"/>
      <point x="330" y="8.0588745"/>
      <point x="338.0588745" y="0"/>
    </contour>
    <contour>
      <point x="92" y="44" type="line"/>
      <point x="38" y="190"/>
      <point x="68" y="708"/>
      <point x="250" y="708" type="curve"/>
      <point x="432" y="708"/>
      <point x="462" y="190"/>
      <point x="408" y="44" type="curve"/>
      <point x="344" y="44" type="line"/>
      <point x="384" y="172"/>
      <point x="360" y="642"/>
      <point x="250" y="642" type="curve"/>
      <point x="140" y="642"/>
      <point x="116" y="172"/>
      <point x="156" y="44" type="curve"/>
    </contour>
  </outline>
</glyph>
<glyph name="uni03AC" format="2">
  <advance width="500"/>
  <unicode hex="03AC"/>
  <outline>
    <contour>
      <point x="359" y="246" type="curve"/>
      <point x="359" y="381.8620485"/>
      <point x="294.08128875" y="492"/>
      <point x="214" y="492" type="curve"/>
      <point x="133.91871125" y="492"/>
      <point x="69" y="381.8620485"/>
      <point x="69" y="246" type="curve"/>
      <point x="69" y="110.13795150000001"/>
      <point x="133.91871125" y="0"/>
      <point x="214" y="0" type="curve"/>
      <point x="294.08128875" y="0"/>
      <point x="359" y="110.13795150000001"/>
    </contour>
    <contour>
      <point x="222" y="246" type="curve"/>
      <point x="222" y="192.980664"/>
      <point x="218.418278" y="150"/>
      <point x="214" y="150" type="curve"/>
      <point x="209.581722" y="150"/>
      <point x="206" y="192.980664"/>
      <point x="206" y="246" type="curve"/>
      <point x="206" y="299.019336"/>
      <point x="209.581722" y="342"/>
      <point x="214" y="342" type="curve"/>
      <point x="218.418278" y="342"/>
      <point x="222" y="299.019336"/>
    </contour>
    <contour>
      <point x="383" y="0" type="curve"/>
      <point x="497" y="0" type="line"/>
      <point x="506.9411255" y="0"/>
      <point x="515" y="8.0588745"/>
      <point x="515" y="18" type="curve"/>
      <point x="515" y="537" type="line"/>
      <point x="515" y="546.9411255"/>
      <point x="506.9411255" y="555"/>
      <point x="497" y="555" type="curve"/>
      <point x="383" y="555" type="line"/>
      <point x="373.0588745" y="555"/>
      <point x="365" y="546.9411255"/>
      <point x="365" y="537" type="curve"/>
      <point x="365" y="18" type="line"/>
      <point x="365" y="8.0588745"/>
      <point x="373.0588745" y="0"/>
    </contour>
    <contour>
      <point x="365" y="0" type="line"/>
      <point x="430" y="0" type="line"/>
      <point x="430" y="150" type="line"/>
      <point x="365" y="150" type="line"/>
    </contour>
    <contour>
      <point x="180.84401291569625" y="585.3571156206036" type="line"/>
      <point x="256.8440129156962" y="663.3571156206036" type="line"/>
      <point x="319.1559870843038" y="602.6428843793964" type="line"/>
      <point x="243.15598708430375" y="524.6428843793964" type="line"/>
    </contour>
  </outline>
</glyph>
<glyph name="uni03AE" format="2">
  <advance width="500"/>
  <unicode hex="03AE"/>
  <outline>
    <contour>
      <point x="78" y="0" type="curve"/>
      <point x="192" y="0" type="line"/>
      <point x="201.9411255" y="0"/>
      <point x="210" y="8.0588745"/>
      <point x="210" y="18" type="curve"/>
      <point x="210" y="537" type="line"/>
      <point x="210" y="546.9411255"/>
      <point x="201.9411255" y="555"/>
      <point x="192" y="555" type="curve"/>
      <point x="78" y="555" type="line"/>
      <point x="68.0588745" y="555"/>
      <point x="60" y="546.9411255"/>
      <point x="60" y="537" type="curve"/>
      <point x="60" y="18" type="line"/>
      <point x="60" y="8.0588745"/>
      <point x="68.0588745" y="0"/>
    </contour>
    <contour>
      <point x="124" y="-210" type="line"/>
      <point x="124" y="555" type="line"/>
      <point x="198.8" y="565"/>
      <point x="344" y="424.95"/>
      <point x="344" y="271.95" type="curve"/>
      <point x="344" y="-210" type="line"/>
      <point x="194" y="-210" type="line"/>
      <point x="194" y="271.95" type="line"/>
      <point x="194" y="472.5"/>
      <point x="348.8" y="405"/>
      <point x="274" y="405" type="curve"/>
      <point x="274" y="-210" type="line"/>
    </contour>
    <contour>
      <point x="180.84401291569625" y="585.3571156206036" type="line"/>
      <point x="256.8440129156962" y="663.3571156206036" type="line"/>
      <point x="319.1559870843038" y="602.6428843793964" type="line"/>
      <point x="243.15598708430375" y="524.6428843793964" type="line"/>
    </contour>
  </outline>
</glyph>
<glyph name="uni03B0" format="2">
  <advance width="500"/>
  <unicode hex="03B0"/>
  <outline>
    <contour>
      <point x="255.5" y="615" type="curve"/>
      <point x="255.5" y="639.024386625"/>
      <point x="236.024386625" y="658.5"/>
      <point x="212.0" y="658.5" type="curve"/>
      <point x="187.975613375" y="658.5"/>
      <point x="168.5" y="639.024386625"/>
      <point x="168.5" y="615" type="curve"/>
      <point x="168.5" y="590.975613375"/>
      <point x="187.975613375" y="571.5"/>
      <point x="212.0" y="571.5" type="curve"/>
      <point x="236.024386625" y="571.5"/>
      <point x="255.5" y="590.975613375"/>
    </contour>
    <contour>
      <point x="331.5" y="615" type="curve"/>
      <point x="331.5" y="639.024386625"/>
      <point x="312.024386625" y="658.5"/>
      <point x="288.0" y="658.5" type="curve"/>
      <point x="263.975613375" y="658.5"/>
      <point x="244.5" y="639.024386625"/>
      <point x="244.5" y="615" type="curve"/>
      <point x="244.5" y="590.975613375"/>
      <point x="263.975613375" y="571.5"/>
      <point x="288.0" y="571.5" type="curve"/>
      <point x="312.024386625" y="571.5"/>
      <point x="331.5" y="590.975613375"/>
    </contour>
    <contour>
      <point x="180.84401291569625" y="585.3571156206036" type="line"/>
      <point x="256.8440129156962" y="663.3571156206036" type="line"/>
      <point x="319.1559870843038" y="602.6428843793964" type="line"/>
      <point x="243.15598708430375" y="524.6428843793964" type="line"/>
    </contour>
    <component base="u"/>
  </outline>
</glyph>
<glyph name="uni03B2" format="2">
  <advance width="500"/>
  <unicode hex="03B2"/>
  <outline>
    <contour>
      <point x="90" y="-210" type="curve"/>
      <point x="204" y="-210" type="line"/>
      <point x="213.9411255" y="-210"/>
      <point x="222" y="-201.9411255"/>
      <point x="222" y="-192" type="curve"/>
      <point x="222" y="742" type="line"/>
      <point x="222" y="751.9411255"/>
      <point x="213.9411255" y="760"/>
      <point x="204" y="760" type="curve"/>
      <point x="90" y="760" type="line"/>
      <point x="80.0588745" y="760"/>
      <point x="72" y="751.9411255"/>
      <point x="72" y="742" type="curve"/>
      <point x="72" y="-192" type="line"/>
      <point x="72" y="-201.9411255"/>
      <point x="80.0588745" y="-210"/>
    </contour>
    <contour>
      <point x="382" y="386" type="curve"/>
      <point x="382" y="478.783838"/>
      <point x="316.6335735" y="554"/>
      <point x="236" y="554" type="curve"/>
      <point x="155.3664265" y="554"/>
      <point x="90" y="478.783838"/>
      <point x="90" y="386" type="curve"/>
      <point x="90" y="293.216162"/>
      <point x="155.3664265" y="218"/>
      <point x="236" y="218" type="curve"/>
      <point x="316.6335735" y="218"/>
      <point x="382" y="293.216162"/>
    </contour>
    <contour>
      <point x="244" y="386" type="curve"/>
      <point x="244" y="376.0588745"/>
      <point x="240.418278" y="368"/>
      <point x="236" y="368" type="curve"/>
      <point x="231.581722" y="368"/>
      <point x="228" y="376.0588745"/>
      <point x="228" y="386" type="curve"/>
      <point x="228" y="395.9411255"/>
      <point x="231.581722" y="404"/>
      <point x="236" y="404" type="curve"/>
      <point x="240.418278" y="404"/>
      <point x="244" y="395.9411255"/>
    </contour>
    <contour>
      <point x="382" y="142" type="curve"/>
      <point x="382" y="224.8427125"/>
      <point x="316.6335735" y="292"/>
      <point x="236" y="292" type="curve"/>
      <point x="155.3664265" y="292"/>
      <point x="90" y="224.8427125"/>
      <point x="90" y="142" type="curve"/>
      <point x="90" y="59.157287499999995"/>
      <point x="155.3664265" y="-8"/>
      <point x="236" y="-8" type="curve"/>
      <point x="316.6335735" y="-8"/>
      <point x="382" y="59.157287499999995"/>
    </contour>
    <contour>
      <point x="244" y="142" type="curve"/>
      <point x="244" y="137.581722"/>
      <point x="240.418278" y="134"/>
      <point x="236" y="134" type="curve"/>
      <point x="231.581722" y="134"/>
      <point x="228" y="137.581722"/>
      <point x="228" y="142" type="curve"/>
      <point x="228" y="146.418278"/>
      <point x="231.581722" y="150"/>
      <point x="236" y="150" type="curve"/>
      <point x="240.418278" y="150"/>
      <point x="244" y="146.418278"/>
    </contour>
  </outline>
</glyph>
<glyph name="uni03B3" format="2">
  <advance width="500"/>
  <unicode hex="03B3"/>
  <outline>
    <contour>
      <point x="143.98045106894753" y="581.9765911150138" type="line"/>
      <point x="313.98045106894756" y="140.97659111501378" type="line"/>
      <point x="174.01954893105247" y="87.02340888498621" type="line"/>
      <point x="4.019548931052469" y="528.0234088849862" type="line"/>
    </contour>
    <contour>
      <point x="495.32804501512317" y="526.3884258667746" type="line"/>
      <point x="313.32804501512317" y="85.38842586677457" type="line"/>
      <point x="174.67195498487683" y="142.61157413322545" type="line"/>
      <point x="356.67195498487683" y="583.6115741332254" type="line"/>
    </contour>
    <contour>
      <point x="230" y="-210" type="curve"/>
      <point x="344" y="-210" type="line"/>
      <point x="353.9411255" y="-210"/>
      <point x="362" y="-201.9411255"/>
      <point x="362" y="-192" type="curve"/>
      <point x="362" y="-74" type="line"/>
      <point x="362" y="-64.0588745"/>
      <point x="353.9411255" y="-56"/>
      <point x="344" y="-56" type="curve"/>
      <point x="230" y="-56" type="line"/>
      <point x="220.0588745" y="-56"/>
      <point x="212" y="-64.0588745"/>
      <point x="212" y="-74" type="curve"/>
      <point x="212" y="-192" type="line"/>
      <point x="212" y="-201.9411255"/>
      <point x="220.0588745" y="-210"/>
    </contour>
  </outline>
</glyph>
<glyph name="uni03B4" format="2">
  <advance width="500"/>
  <unicode hex="03B4"/>
  <outline>
    <contour>
      <point x="396" y="226" type="curve"/>
      <point x="396" y="350.8163535"/>
      <point x="328.8427125" y="452"/>
      <point x="246" y="452" type="curve"/>
      <point x="163.1572875" y="452"/>
      <point x="96" y="350.8163535"/>
      <point x="96" y="226" type="curve"/>
      <point x="96" y="101.18364650000001"/>
      <point x="163.1572875" y="0"/>
      <point x="246" y="0" type="curve"/>
      <point x="328.8427125" y="0"/>
      <point x="396" y="101.18364650000001"/>
    </contour>
    <contour>
      <point x="254" y="226" type="curve"/>
      <point x="254" y="184.026359"/>
      <point x="250.418278" y="150"/>
      <point x="246" y="150" type="curve"/>
      <point x="241.581722" y="150"/>
      <point x="238" y="184.026359"/>
      <point x="238" y="226" type="curve"/>
      <point x="238" y="267.973641"/>
      <point x="241.581722" y="302"/>
      <point x="246" y="302" type="curve"/>
      <point x="250.418278" y="302"/>
      <point x="254" y="267.973641"/>
    </contour>
    <contour>
      <point x="154" y="420" type="line"/>
      <point x="120" y="620"/>
      <point x="220" y="748"/>
      <point x="374" y="706" type="curve"/>
      <point x="356" y="642" type="line"/>
      <point x="258" y="658"/>
      <point x="214" y="586"/>
      <point x="218" y="438" type="curve"/>
    </contour>
  </outline>
</glyph>
<glyph name="uni03B5" format="2">
  <advance width="500"/>
  <unicode hex="03B5"/>
  <outline>
    <contour>
      <point x="396.15999999999997" y="443.92" type="line"/>
      <point x="333.52" y="522"/>
      <point x="176.92000000000002" y="522"/>
      <point x="76" y="382.92" type="curve"/>
      <point x="76" y="173.07999999999998"/>
      <point x="176.92000000000002" y="34"/>
      <point x="333.52" y="34" type="curve"/>
      <point x="377.02" y="95.0"/>
      <point x="396.15999999999997" y="136.48000000000002"/>
      <point x="396.15999999999997" y="156.0" type="curve"/>
      <point x="270.16" y="182.84" type="line"/>
      <point x="316.12" y="184"/>
      <point x="226" y="199.92000000000002"/>
      <point x="226" y="278" type="curve"/>
      <point x="226" y="356.08"/>
      <point x="316.12" y="372"/>
      <point x="270.16" y="373.15999999999997" type="curve"/>
    </contour>
    <contour>
      <point x="236" y="246" type="curve"/>
      <point x="364" y="246" type="line"/>
      <point x="372.836556" y="246"/>
      <point x="380" y="253.163444"/>
      <point x="380" y="262" type="curve"/>
      <point x="380" y="380" type="line"/>
      <point x="380" y="388.836556"/>
      <point x="372.836556" y="396"/>
      <point x="364" y="396" type="curve"/>
      <point x="236" y="396" type="line"/>
      <point x="227.163444" y="396"/>
      <point x="220" y="388.836556"/>
      <point x="220" y="380" type="curve"/>
      <point x="220" y="262" type="line"/>
      <point x="220" y="253.163444"/>
      <point x="227.163444" y="246"/>
    </contour>
  </outline>
</glyph>
<glyph name="uni03B8" format="2">
  <advance width="500"/>
  <unicode hex="03B8"/>
  <outline>
    <contour>
      <point x="420" y="278" type="curve"/>
      <point x="420" y="431.53516049999996"/>
      <point x="343.88840749999997" y="556"/>
      <point x="250" y="556" type="curve"/>
      <point x="156.1115925" y="556"/>
      <point x="80" y="431.53516049999996"/>
      <point x="80" y="278" type="curve"/>
      <point x="80" y="124.46483950000001"/>
      <point x="156.1115925" y="0"/>
      <point x="250" y="0" type="curve"/>
      <point x="343.88840749999997" y="0"/>
      <point x="420" y="124.46483950000001"/>
    </contour>
    <contour>
      <point x="270" y="278" type="curve"/>
      <point x="270" y="207.307552"/>
      <point x="261.045695" y="150"/>
      <point x="250" y="150" type="curve"/>
      <point x="238.954305" y="150"/>
      <point x="230" y="207.307552"/>
      <point x="230" y="278" type="curve"/>
      <point x="230" y="348.692448"/>
      <point x="238.954305" y="406"/>
      <point x="250" y="406" type="curve"/>
      <point x="261.045695" y="406"/>
      <point x="270" y="348.692448"/>
    </contour>
    <contour>
      <point x="120" y="246" type="curve"/>
      <point x="380" y="246" type="line"/>
      <point x="388.836556" y="246"/>
      <point x="396" y="253.163444"/>
      <point x="396" y="262" type="curve"/>
      <point x="396" y="380" type="line"/>
      <point x="396" y="388.836556"/>
      <point x="388.836556" y="396"/>
      <point x="380" y="396" type="curve"/>
      <point x="120" y="396" type="line"/>
      <point x="111.163444" y="396"/>
      <point x="104" y="388.836556"/>
      <point x="104" y="380" type="curve"/>
      <point x="104" y="262" type="line"/>
      <point x="104" y="253.163444"/>
      <point x="111.163444" y="246"/>
    </contour>
  </outline>
</glyph>
<glyph name="uni03C0" format="2">
  <advance width="500"/>
  <unicode hex="03C0"/>
  <outline>
    <contour>
      <point x="76" y="405" type="curve"/>
      <point x="424" y="405" type="line"/>
      <point x="433.9411255" y="405"/>
      <point x="442" y="413.0588745"/>
      <point x="442" y="423" type="curve"/>
      <point x="442" y="537" type="line"/>
      <point x="442" y="546.9411255"/>
      <point x="433.9411255" y="555"/>
      <point x="424" y="555" type="curve"/>
      <point x="76" y="555" type="line"/>
      <point x="66.0588745" y="555"/>
      <point x="58" y="546.9411255"/>
      <point x="58" y="537" type="curve"/>
      <point x="58" y="423" type="line"/>
      <point x="58" y="413.0588745"/>
      <point x="66.0588745" y="405"/>
    </contour>
    <contour>
      <point x="118" y="0" type="curve"/>
      <point x="232" y="0" type="line"/>
      <point x="241.9411255" y="0"/>
      <point x="250" y="8.0588745"/>
      <point x="250" y="18" type="curve"/>
      <point x="250" y="537" type="line"/>
      <point x="250" y="546.9411255"/>
      <point x="241.9411255" y="555"/>
      <point x="232" y="555" type="curve"/>
      <point x="118" y="555" type="line"/>
      <point x="108.0588745" y="555"/>
      <point x="100" y="546.9411255"/>
      <point x="100" y="537" type="curve"/>
      <point x="100" y="18" type="line"/>
      <point x="100" y="8.0588745"/>
      <point x="108.0588745" y="0"/>
    </contour>
    <contour>
      <point x="360" y="0" type="curve"/>
      <point x="474" y="0" type="line"/>
      <point x="483.9411255" y="0"/>
      <point x="492" y="8.0588745"/>
      <point x="492" y="18" type="curve"/>
      <point x="492" y="537" type="line"/>
      <point x="492" y="546.9411255"/>
      <point x="483.9411255" y="555"/>
      <point x="474" y="555" type="curve"/>
      <point x="360" y="555" type="line"/>
      <point x="350.0588745" y="555"/>
      <point x="342" y="546.9411255"/>
      <point x="342" y="537" type="curve"/>
      <point x="342" y="18" type="line"/>
      <point x="342" y="8.0588745"/>
      <point x="350.0588745" y="0"/>
    </contour>
  </outline>
</glyph>
<glyph name="uni03C1" format="2">
  <advance width="500"/>
  <unicode hex="03C1"/>
  <outline>
    <contour>
      <point x="84" y="-210" type="curve"/>
      <point x="198" y="-210" type="line"/>
      <point x="207.9411255" y="-210"/>
      <point x="216" y="-201.9411255"/>
      <point x="216" y="-192" type="curve"/>
      <point x="216" y="537" type="line"/>
      <point x="216" y="546.9411255"/>
      <point x="207.9411255" y="555"/>
      <point x="198" y="555" type="curve"/>
      <point x="84" y="555" type="line"/>
      <point x="74.0588745" y="555"/>
      <point x="66" y="546.9411255"/>
      <point x="66" y="537" type="curve"/>
      <point x="66" y="-192" type="line"/>
      <point x="66" y="-201.9411255"/>
      <point x="74.0588745" y="-210"/>
    </contour>
    <contour>
      <point x="382" y="278" type="curve"/>
      <point x="382" y="413.8620485"/>
      <point x="314.8427125" y="524"/>
      <point x="232" y="524" type="curve"/>
      <point x="149.1572875" y="524"/>
      <point x="82" y="413.8620485"/>
      <point x="82" y="278" type="curve"/>
      <point x="82" y="142.1379515"/>
      <point x="149.1572875" y="32"/>
      <point x="232" y="32" type="curve"/>
      <point x="314.8427125" y="32"/>
      <point x="382" y="142.1379515"/>
    </contour>
    <contour>
      <point x="240" y="278" type="curve"/>
      <point x="240" y="224.980664"/>
      <point x="236.418278" y="182"/>
      <point x="232" y="182" type="curve"/>
      <point x="227.581722" y="182"/>
      <point x="224" y="224.980664"/>
      <point x="224" y="278" type="curve"/>
      <point x="224" y="331.019336"/>
      <point x="227.581722" y="374"/>
      <point x="232" y="374" type="curve"/>
      <point x="236.418278" y="374"/>
      <point x="240" y="331.019336"/>
    </contour>
  </outline>
</glyph>
<glyph name="uni03C2" format="2">
  <advance width="500"/>
  <unicode hex="03C2"/>
  <outline>
    <contour>
      <point x="408.4" y="467.04" type="line"/>
      <point x="336.4" y="556"/>
      <point x="174.4" y="556"/>
      <point x="70" y="397.53999999999996" type="curve"/>
      <point x="70" y="158.46"/>
      <point x="174.4" y="0"/>
      <point x="336.4" y="0" type="curve"/>
      <point x="381.4" y="69.5"/>
      <point x="408.4" y="116.76000000000002"/>
      <point x="408.4" y="139.0" type="curve"/>
      <point x="276.4" y="169.57999999999998" type="line"/>
      <point x="318.4" y="150"/>
      <point x="220" y="189.04"/>
      <point x="220" y="278" type="curve"/>
      <point x="220" y="366.96000000000004"/>
      <point x="318.4" y="406"/>
      <point x="276.4" y="386.42" type="curve"/>
    </contour>
    <contour>
      <point x="318" y="-210" type="curve"/>
      <point x="432" y="-210" type="line"/>
      <point x="441.9411255" y="-210"/>
      <point x="450" y="-201.9411255"/>
      <point x="450" y="-192" type="curve"/>
      <point x="450" y="-66" type="line"/>
      <point x="450" y="-56.0588745"/>
      <point x="441.9411255" y="-48"/>
      <point x="432" y="-48" type="curve"/>
      <point x="318" y="-48" type="line"/>
      <point x="308.0588745" y="-48"/>
      <point x="300" y="-56.0588745"/>
      <point x="300" y="-66" type="curve"/>
      <point x="300" y="-192" type="line"/>
      <point x="300" y="-201.9411255"/>
      <point x="308.0588745" y="-210"/>
    </contour>
  </outline>
</glyph>
<glyph name="uni03C4" format="2">
  <advance width="500"/>
  <unicode hex="03C4"/>
  <outline>
    <contour>
      <point x="90" y="405" type="curve"/>
      <point x="410" y="405" type="line"/>
      <point x="419.9411255" y="405"/>
      <point x="428" y="413.0588745"/>
      <point x="428" y="423" type="curve"/>
      <point x="428" y="537" type="line"/>
      <point x="428" y="546.9411255"/>
      <point x="419.9411255" y="555"/>
      <point x="410" y="555" type="curve"/>
      <point x="90" y="555" type="line"/>
      <point x="80.0588745" y="555"/>
      <point x="72" y="546.9411255"/>
      <point x="72" y="537" type="curve"/>
      <point x="72" y="423" type="line"/>
      <point x="72" y="413.0588745"/>
      <point x="80.0588745" y="405"/>
    </contour>
    <contour>
      <point x="236" y="0" type="curve"/>
      <point x="350" y="0" type="line"/>
      <point x="359.9411255" y="0"/>
      <point x="368" y="8.0588745"/>
      <point x="368" y="18" type="curve"/>
      <point x="368" y="537" type="line"/>
      <point x="368" y="546.9411255"/>
      <point x="359.9411255" y="555"/>
      <point x="350" y="555" type="curve"/>
      <point x="236" y="555" type="line"/>
      <point x="226.0588745" y="555"/>
      <point x="218" y="546.9411255"/>
      <point x="218" y="537" type="curve"/>
      <point x="218" y="18" type="line"/>
      <point x="218" y="8.0588745"/>
      <point x="226.0588745" y="0"/>
    </contour>
  </outline>
</glyph>
<glyph name="uni03C6" format="2">
  <advance width="500"/>
  <unicode hex="03C6"/>
  <outline>
    <contour>
      <point x="428" y="278" type="curve"/>
      <point x="428" y="411.65290949999996"/>
      <point x="348.3066855" y="520"/>
      <point x="250" y="520" type="curve"/>
      <point x="151.69331449999999" y="520"/>
      <point x="72" y="411.65290949999996"/>
      <point x="72" y="278" type="curve"/>
      <point x="72" y="144.3470905"/>
      <point x="151.69331449999999" y="36"/>
      <point x="250" y="36" type="curve"/>
      <point x="348.3066855" y="36"/>
      <point x="428" y="144.3470905"/>
    </contour>
    <contour>
      <point x="278" y="278" type="curve"/>
      <point x="278" y="227.18980299999998"/>
      <point x="265.463973" y="186"/>
      <point x="250" y="186" type="curve"/>
      <point x="234.536027" y="186"/>
      <point x="222" y="227.18980299999998"/>
      <point x="222" y="278" type="curve"/>
      <point x="222" y="328.810197"/>
      <point x="234.536027" y="370"/>
      <point x="250" y="370" type="curve"/>
      <point x="265.463973" y="370"/>
      <point x="278" y="328.810197"/>
    </contour>
    <contour>
      <point x="193.0" y="-210" type="curve"/>
      <point x="307.0" y="-210" type="line"/>
      <point x="316.9411255" y="-210"/>
      <point x="325.0" y="-201.9411255"/>
      <point x="325.0" y="-192" type="curve"/>
      <point x="325.0" y="742" type="line"/>
      <point x="325.0" y="751.9411255"/>
      <point x="316.9411255" y="760"/>
      <point x="307.0" y="760" type="curve"/>
      <point x="193.0" y="760" type="line"/>
      <point x="183.0588745" y="760"/>
      <point x="175.0" y="751.9411255"/>
      <point x="175.0" y="742" type="curve"/>
      <point x="175.0" y="-192" type="line"/>
      <point x="175.0" y="-201.9411255"/>
      <point x="183.0588745" y="-210"/>
    </contour>
  </outline>
</glyph>
<glyph name="uni03CE" format="2">
  <advance width="500"/>
  <unicode hex="03CE"/>
  <outline>
    <contour>
      <point x="74" y="0" type="curve"/>
      <point x="188" y="0" type="line"/>
      <point x="197.9411255" y="0"/>
      <point x="206" y="8.0588745"/>
      <point x="206" y="18" type="curve"/>
      <point x="206" y="232" type="line"/>
      <point x="206" y="241.9411255"/>
      <point x="197.9411255" y="250"/>
      <point x="188" y="250" type="curve"/>
      <point x="74" y="250" type="line"/>
      <point x="64.0588745" y="250"/>
      <point x="56" y="241.9411255"/>
      <point x="56" y="232" type="curve"/>
      <point x="56" y="18" type="line"/>
      <point x="56" y="8.0588745"/>
      <point x="64.0588745" y="0"/>
    </contour>
    <contour>
      <point x="280" y="0" type="curve"/>
      <point x="394" y="0" type="line"/>
      <point x="403.9411255" y="0"/>
      <point x="412" y="8.0588745"/>
      <point x="412" y="18" type="curve"/>
      <point x="412" y="232" type="line"/>
      <point x="412" y="241.9411255"/>
      <point x="403.9411255" y="250"/>
      <point x="394" y="250" type="curve"/>
      <point x="280" y="250" type="line"/>
      <point x="270.0588745" y="250"/>
      <point x="262" y="241.9411255"/>
      <point x="262" y="232" type="curve"/>
      <point x="262" y="18" type="line"/>
      <point x="262" y="8.0588745"/>
      <point x="270.0588745" y="0"/>
    </contour>
    <contour>
      <point x="56" y="248" type="line"/>
      <point x="56" y="480"/>
      <point x="154" y="560"/>
      <point x="250" y="394" type="curve"/>
      <point x="346" y="560"/>
      <point x="444" y="480"/>
      <point x="444" y="248" type="curve"/>
      <point x="380" y="248" type="line"/>
      <point x="380" y="413"/>
      <point x="326" y="452"/>
      <point x="250" y="276" type="curve"/>
      <point x="174" y="452"/>
      <point x="120" y="413"/>
      <point x="120" y="248" type="curve"/>
    </contour>
    <contour>
      <point x="180.84401291569625" y="585.3571156206036" type="line"/>
      <point x="256.8440129156962" y="663.3571156206036" type="line"/>
      <point x="319.1559870843038" y="602.6428843793964" type="line"/>
      <point x="243.15598708430375" y="524.6428843793964" type="line"/>
    </contour>
  </outline>
</glyph>
<glyph name="uni0407" format="2">
  <advance width="250"/>
  <unicode hex="0407"/>
  <outline>
    <contour>
      <point x="130.5" y="764" type="curve"/>
      <point x="130.5" y="788.024386625"/>
      <point x="111.024386625" y="807.5"/>
      <point x="87.0" y="807.5" type="curve"/>
      <point x="62.975613375" y="807.5"/>
      <point x="43.5" y="788.024386625"/>
      <point x="43.5" y="764" type="curve"/>
      <point x="43.5" y="739.975613375"/>
      <point x="62.975613375" y="720.5"/>
      <point x="87.0" y="720.5" type="curve"/>
      <point x="111.024386625" y="720.5"/>
      <point x="130.5" y="739.975613375"/>
    </contour>
    <contour>
      <point x="206.5" y="764" type="curve"/>
      <point x="206.5" y="788.024386625"/>
      <point x="187.024386625" y="807.5"/>
      <point x="163.0" y="807.5" type="curve"/>
      <point x="138.975613375" y="807.5"/>
      <point x="119.5" y="788.024386625"/>
      <point x="119.5" y="764" type="curve"/>
      <point x="119.5" y="739.975613375"/>
      <point x="138.975613375" y="720.5"/>
      <point x="163.0" y="720.5" type="curve"/>
      <point x="187.024386625" y="720.5"/>
      <point x="206.5" y="739.975613375"/>
    </contour>
    <component base="I"/>
  </outline>
</glyph>
<glyph name="uni040D" format="2">
  <advance width="500"/>
  <unicode hex="040D"/>
  <outline>
    <contour>
      <point x="319.1559870843038" y="751.6428843793964" type="line"/>
      <point x="243.15598708430375" y="673.6428843793964" type="line"/>
      <point x="180.84401291569625" y="734.3571156206036" type="line"/>
      <point x="256.8440129156962" y="812.3571156206036" type="line"/>
    </contour>
    <component base="N"/>
  </outline>
</glyph>
<glyph name="uni0414" format="2">
  <advance width="500"/>
  <unicode hex="0414"/>
  <outline>
    <contour>
      <point x="18.113771372861947" y="12.877314132158347" type="line"/>
      <point x="140.11377137286195" y="712.8773141321583" type="line"/>
      <point x="287.88622862713805" y="687.1226858678417" type="line"/>
      <point x="165.88622862713805" y="-12.877314132158347" type="line"/>
    </contour>
    <contour>
      <point x="334.11377137286195" y="-12.877314132158347" type="line"/>
      <point x="212.11377137286195" y="687.1226858678417" type="line"/>
      <point x="359.88622862713805" y="712.8773141321583" type="line"/>
      <point x="481.88622862713805" y="12.877314132158347" type="line"/>
    </contour>
    <contour>
      <point x="70" y="0" type="curve"/>
      <point x="430" y="0" type="line"/>
      <point x="439.9411255" y="0"/>
      <point x="448" y="8.0588745"/>
      <point x="448" y="18" type="curve"/>
      <point x="448" y="132" type="line"/>
      <point x="448" y="141.9411255"/>
      <point x="439.9411255" y="150"/>
      <point x="430" y="150" type="curve"/>
      <point x="70" y="150" type="line"/>
      <point x="60.0588745" y="150"/>
      <point x="52" y="141.9411255"/>
      <point x="52" y="132" type="curve"/>
      <point x="52" y="18" type="line"/>
      <point x="52" y="8.0588745"/>
      <point x="60.0588745" y="0"/>
    </contour>
  </outline>
</glyph>
<glyph name="uni0416" format="2">
  <advance width="500"/>
  <unicode hex="0416"/>
  <outline>
    <contour>
      <point x="193.0" y="0" type="curve"/>
      <point x="307.0" y="0" type="line"/>
      <point x="316.9411255" y="0"/>
      <point x="325.0" y="8.0588745"/>
      <point x="325.0" y="18" type="curve"/>
      <point x="325.0" y="682" type="line"/>
      <point x="325.0" y="691.9411255"/>
      <point x="316.9411255" y="700"/>
      <point x="307.0" y="700" type="curve"/>
      <point x="193.0" y="700" type="line"/>
      <point x="183.0588745" y="700"/>
      <point x="175.0" y="691.9411255"/>
      <point x="175.0" y="682" type="curve"/>
      <point x="175.0" y="18" type="line"/>
      <point x="175.0" y="8.0588745"/>
      <point x="183.0588745" y="0"/>
    </contour>
    <contour>
      <point x="141.0052870199332" y="733.6940871871664" type="line"/>
      <point x="493.00528701993323" y="33.69408718716641" type="line"/>
      <point x="358.99471298006677" y="-33.69408718716641" type="line"/>
      <point x="6.994712980066794" y="666.3059128128336" type="line"/>
    </contour>
    <contour>
      <point x="493.00528701993323" y="666.3059128128336" type="line"/>
      <point x="141.0052870199332" y="-33.69408718716641" type="line"/>
      <point x="6.994712980066794" y="33.69408718716641" type="line"/>
      <point x="358.99471298006677" y="733.6940871871664" type="line"/>
    </contour>
  </outline>
</glyph>
<glyph name="uni0417" format="2">
  <advance width="500"/>
  <unicode hex="0417"/>
  <outline>
    <contour>
      <point x="372.5" y="685.0" type="line"/>
      <point x="285.0" y="712.0"/>
      <point x="97.5" y="688.0"/>
      <point x="90.0" y="434.0" type="curve"/>
      <point x="82.5" y="357.0"/>
      <point x="229.0" y="362.0"/>
      <point x="246.5" y="350" type="curve"/>
      <point x="285.0" y="266.0"/>
      <point x="419.0" y="329.0"/>
      <point x="413.0" y="203.0" type="curve"/>
      <point x="407.0" y="7.5"/>
      <point x="208.0" y="-9.0"/>
      <point x="82.5" y="21.000000000000004" type="curve"/>
      <point x="99.0" y="147.0" type="line"/>
      <point x="215.0" y="93.0"/>
      <point x="327.5" y="127.5"/>
      <point x="338.0" y="189.0" type="curve"/>
      <point x="344.0" y="315.0"/>
      <point x="267.5" y="308.0"/>
      <point x="236.0" y="354.5" type="curve"/>
      <point x="190.5" y="372.5"/>
      <point x="144.0" y="368.0"/>
      <point x="153.0" y="448.0" type="curve"/>
      <point x="162.0" y="607.0"/>
      <point x="278.0" y="632.5"/>
      <point x="377.0" y="553.0" type="curve"/>
    </contour>
  </outline>
</glyph>
<glyph name="uni0426" format="2">
  <advance width="500"/>
  <unicode hex="0426"/>
  <outline>
    <contour>
      <point x="76" y="150" type="curve"/>
      <point x="190" y="150" type="line"/>
      <point x="199.9411255" y="150"/>
      <point x="208" y="158.0588745"/>
      <point x="208" y="168" type="curve"/>
      <point x="208" y="682" type="line"/>
      <point x="208" y="691.9411255"/>
      <point x="199.9411255" y="700"/>
      <point x="190" y="700" type="curve"/>
      <point x="76" y="700" type="line"/>
      <point x="66.0588745" y="700"/>
      <point x="58" y="691.9411255"/>
      <point x="58" y="682" type="curve"/>
      <point x="58" y="168" type="line"/>
      <point x="58" y="158.0588745"/>
      <point x="66.0588745" y="150"/>
    </contour>
    <contour>
      <point x="394" y="0" type="curve"/>
      <point x="508" y="0" type="line"/>
      <point x="517.9411255" y="0"/>
      <point x="526" y="8.0588745"/>
      <point x="526" y="18" type="curve"/>
      <point x="526" y="682" type="line"/>
      <point x="526" y="691.9411255"/>
      <point x="517.9411255" y="700"/>
      <point x="508" y="700" type="curve"/>
      <point x="394" y="700" type="line"/>
      <point x="384.0588745" y="700"/>
      <point x="376" y="691.9411255"/>
      <point x="376" y="682" type="curve"/>
      <point x="376" y="18" type="line"/>
      <point x="376" y="8.0588745"/>
      <point x="384.0588745" y="0"/>
    </contour>
    <contour>
      <point x="58" y="0" type="line"/>
      <point x="440" y="0" type="line"/>
      <point x="440" y="150" type="line"/>
      <point x="58" y="150" type="line"/>
    </contour>
    <contour>
      <point x="394" y="-210" type="curve"/>
      <point x="508" y="-210" type="line"/>
      <point x="517.9411255" y="-210"/>
      <point x="526" y="-201.9411255"/>
      <point x="526" y="-192" type="curve"/>
      <point x="526" y="-68" type="line"/>
      <point x="526" y="-58.0588745"/>
      <point x="517.9411255" y="-50"/>
      <point x="508" y="-50" type="curve"/>
      <point x="394" y="-50" type="line"/>
      <point x="384.0588745" y="-50"/>
      <point x="376" y="-58.0588745"/>
      <point x="376" y="-68" type="curve"/>
      <point x="376" y="-192" type="line"/>
      <point x="376" y="-201.9411255"/>
      <point x="384.0588745" y="-210"/>
    </contour>
  </outline>
</glyph>
<glyph name="uni0427" format="2">
  <advance width="500"/>
  <unicode hex="0427"/>
  <outline>
    <contour>
      <point x="76" y="330" type="curve"/>
      <point x="190" y="330" type="line"/>
      <point x="199.9411255" y="330"/>
      <point x="208" y="338.0588745"/>
      <point x="208" y="348" type="curve"/>
      <point x="208" y="682" type="line"/>
      <point x="208" y="691.9411255"/>
      <point x="199.9411255" y="700"/>
      <point x="190" y="700" type="curve"/>
      <point x="76" y="700" type="line"/>
      <point x="66.0588745" y="700"/>
      <point x="58" y="691.9411255"/>
      <point x="58" y="682" type="curve"/>
      <point x="58" y="348" type="line"/>
      <point x="58" y="338.0588745"/>
      <point x="66.0588745" y="330"/>
    </contour>
    <contour>
      <point x="394" y="0" type="curve"/>
      <point x="508" y="0" type="line"/>
      <point x="517.9411255" y="0"/>
      <point x="526" y="8.0588745"/>
      <point x="526" y="18" type="curve"/>
      <point x="526" y="682" type="line"/>
      <point x="526" y="691.9411255"/>
      <point x="517.9411255" y="700"/>
      <point x="508" y="700" type="curve"/>
      <point x="394" y="700" type="line"/>
      <point x="384.0588745" y="700"/>
      <point x="376" y="691.9411255"/>
      <point x="376" y="682" type="curve"/>
      <point x="376" y="18" type="line"/>
      <point x="376" y="8.0588745"/>
      <point x="384.0588745" y="0"/>
    </contour>
    <contour>
      <point x="76" y="300" type="curve"/>
      <point x="422" y="300" type="line"/>
      <point x="431.9411255" y="300"/>
      <point x="440" y="308.0588745"/>
      <point x="440" y="318" type="curve"/>
      <point x="440" y="432" type="line"/>
      <point x="440" y="441.9411255"/>
      <point x="431.9411255" y="450"/>
      <point x="422" y="450" type="curve"/>
      <point x="76" y="450" type="line"/>
      <point x="66.0588745" y="450"/>
      <point x="58" y="441.9411255"/>
      <point x="58" y="432" type="curve"/>
      <point x="58" y="318" type="line"/>
      <point x="58" y="308.0588745"/>
      <point x="66.0588745" y="300"/>
    </contour>
  </outline>
</glyph>
<glyph name="uni0428" format="2">
  <advance width="500"/>
  <unicode hex="0428"/>
  <outline>
    <contour>
      <point x="76" y="0" type="curve"/>
      <point x="190" y="0" type="line"/>
      <point x="199.9411255" y="0"/>
      <point x="208" y="8.0588745"/>
      <point x="208" y="18" type="curve"/>
      <point x="208" y="682" type="line"/>
      <point x="208" y="691.9411255"/>
      <point x="199.9411255" y="700"/>
      <point x="190" y="700" type="curve"/>
      <point x="76" y="700" type="line"/>
      <point x="66.0588745" y="700"/>
      <point x="58" y="691.9411255"/>
      <point x="58" y="682" type="curve"/>
      <point x="58" y="18" type="line"/>
      <point x="58" y="8.0588745"/>
      <point x="66.0588745" y="0"/>
    </contour>
    <contour>
      <point x="236" y="0" type="curve"/>
      <point x="350" y="0" type="line"/>
      <point x="359.9411255" y="0"/>
      <point x="368" y="8.0588745"/>
      <point x="368" y="18" type="curve"/>
      <point x="368" y="682" type="line"/>
      <point x="368" y="691.9411255"/>
      <point x="359.9411255" y="700"/>
      <point x="350" y="700" type="curve"/>
      <point x="236" y="700" type="line"/>
      <point x="226.0588745" y="700"/>
      <point x="218" y="691.9411255"/>
      <point x="218" y="682" type="curve"/>
      <point x="218" y="18" type="line"/>
      <point x="218" y="8.0588745"/>
      <point x="226.0588745" y="0"/>
    </contour>
    <contour>
      <point x="394" y="0" type="curve"/>
      <point x="508" y="0" type="line"/>
      <point x="517.9411255" y="0"/>
      <point x="526" y="8.0588745"/>
      <point x="526" y="18" type="curve"/>
      <point x="526" y="682" type="line"/>
      <point x="526" y="691.9411255"/>
      <point x="517.9411255" y="700"/>
      <point x="508" y="700" type="curve"/>
      <point x="394" y="700" type="line"/>
      <point x="384.0588745" y="700"/>
      <point x="376" y="691.9411255"/>
      <point x="376" y="682" type="curve"/>
      <point x="376" y="18" type="line"/>
      <point x="376" y="8.0588745"/>
      <point x="384.0588745" y="0"/>
    </contour>
    <contour>
      <point x="58" y="0" type="line"/>
      <point x="440" y="0" type="line"/>
      <point x="440" y="150" type="line"/>
      <point x="58" y="150" type="line"/>
    </contour>
  </outline>
</glyph>
<glyph name="uni042E" format="2">
  <advance width="500"/>
  <unicode hex="042E"/>
  <outline>
    <contour>
      <point x="72" y="0" type="curve"/>
      <point x="186" y="0" type="line"/>
      <point x="195.9411255" y="0"/>
      <point x="204" y="8.0588745"/>
      <point x="204" y="18" type="curve"/>
      <point x="204" y="682" type="line"/>
      <point x="204" y="691.9411255"/>
      <point x="195.9411255" y="700"/>
      <point x="186" y="700" type="curve"/>
      <point x="72" y="700" type="line"/>
      <point x="62.0588745" y="700"/>
      <point x="54" y="691.9411255"/>
      <point x="54" y="682" type="curve"/>
      <point x="54" y="18" type="line"/>
      <point x="54" y="8.0588745"/>
      <point x="62.0588745" y="0"/>
    </contour>
    <contour>
      <point x="72" y="320" type="curve"/>
      <point x="174" y="320" type="line"/>
      <point x="183.9411255" y="320"/>
      <point x="192" y="328.0588745"/>
      <point x="192" y="338" type="curve"/>
      <point x="192" y="452" type="line"/>
      <point x="192" y="461.9411255"/>
      <point x="183.9411255" y="470"/>
      <point x="174" y="470" type="curve"/>
      <point x="72" y="470" type="line"/>
      <point x="62.0588745" y="470"/>
      <point x="54" y="461.9411255"/>
      <point x="54" y="452" type="curve"/>
      <point x="54" y="338" type="line"/>
      <point x="54" y="328.0588745"/>
      <point x="62.0588745" y="320"/>
    </contour>
    <contour>
      <point x="438" y="350" type="curve"/>
      <point x="438" y="488.0711875"/>
      <point x="378.901587" y="600"/>
      <point x="306" y="600" type="curve"/>
      <point x="233.098413" y="600"/>
      <point x="174" y="488.0711875"/>
      <point x="174" y="350" type="curve"/>
      <point x="174" y="211.9288125"/>
      <point x="233.098413" y="100"/>
      <point x="306" y="100" type="curve"/>
      <point x="378.901587" y="100"/>
      <point x="438" y="211.9288125"/>
    </contour>
    <contour>
      <point x="314" y="350" type="curve"/>
      <point x="314" y="294.771525"/>
      <point x="310.418278" y="250"/>
      <point x="306" y="250" type="curve"/>
      <point x="301.581722" y="250"/>
      <point x="298" y="294.771525"/>
      <point x="298" y="350" type="curve"/>
      <point x="298" y="405.228475"/>
      <point x="301.581722" y="450"/>
      <point x="306" y="450" type="curve"/>
      <point x="310.418278" y="450"/>
      <point x="314" y="405.228475"/>
    </contour>
  </outline>
</glyph>
<glyph name="uni042F" format="2">
  <advance width="500"/>
  <unicode hex="042F"/>
  <outline>
    <contour>
      <point x="244" y="0" type="curve"/>
      <point x="358" y="0" type="line"/>
      <point x="367.9411255" y="0"/>
      <point x="376" y="8.0588745"/>
      <point x="376" y="18" type="curve"/>
      <point x="376" y="682" type="line"/>
      <point x="376" y="691.9411255"/>
      <point x="367.9411255" y="700"/>
      <point x="358" y="700" type="curve"/>
      <point x="244" y="700" type="line"/>
      <point x="234.0588745" y="700"/>
      <point x="226" y="691.9411255"/>
      <point x="226" y="682" type="curve"/>
      <point x="226" y="18" type="line"/>
      <point x="226" y="8.0588745"/>
      <point x="234.0588745" y="0"/>
    </contour>
    <contour>
      <point x="406" y="512" type="curve"/>
      <point x="406" y="598.156421"/>
      <point x="334.36556" y="668"/>
      <point x="246" y="668" type="curve"/>
      <point x="157.63443999999998" y="668"/>
      <point x="86" y="598.156421"/>
      <point x="86" y="512" type="curve"/>
      <point x="86" y="425.843579"/>
      <point x="157.63443999999998" y="356"/>
      <point x="246" y="356" type="curve"/>
      <point x="334.36556" y="356"/>
      <point x="406" y="425.843579"/>
    </contour>
    <contour>
      <point x="256" y="512" type="curve"/>
      <point x="256" y="507.581722"/>
      <point x="251.5228475" y="504"/>
      <point x="246" y="504" type="curve"/>
      <point x="240.4771525" y="504"/>
      <point x="236" y="507.581722"/>
      <point x="236" y="512" type="curve"/>
      <point x="236" y="516.418278"/>
      <point x="240.4771525" y="520"/>
      <point x="246" y="520" type="curve"/>
      <point x="251.5228475" y="520"/>
      <point x="256" y="516.418278"/>
    </contour>
    <contour>
      <point x="328.0832258539001" y="318.53160194282196" type="line"/>
      <point x="138.0832258539001" y="-35.468398057178014" type="line"/>
      <point x="5.916774146099911" y="35.468398057178014" type="line"/>
      <point x="195.9167741460999" y="389.46839805717804" type="line"/>
    </contour>
  </outline>
</glyph>
<glyph name="uni0434" format="2">
  <advance width="500"/>
  <unicode hex="0434"/>
  <outline>
    <contour>
      <point x="392" y="234" type="curve"/>
      <point x="392" y="363.2346315"/>
      <point x="328.4244345" y="468"/>
      <point x="250" y="468" type="curve"/>
      <point x="171.57556549999998" y="468"/>
      <point x="108" y="363.2346315"/>
      <point x="108" y="234" type="curve"/>
      <point x="108" y="104.7653685"/>
      <point x="171.57556549999998" y="0"/>
      <point x="250" y="0" type="curve"/>
      <point x="328.4244345" y="0"/>
      <point x="392" y="104.7653685"/>
    </contour>
    <contour>
      <point x="258" y="234" type="curve"/>
      <point x="258" y="187.608081"/>
      <point x="254.418278" y="150"/>
      <point x="250" y="150" type="curve"/>
      <point x="245.581722" y="150"/>
      <point x="242" y="187.608081"/>
      <point x="242" y="234" type="curve"/>
      <point x="242" y="280.39191900000003"/>
      <point x="245.581722" y="318"/>
      <point x="250" y="318" type="curve"/>
      <point x="254.418278" y="318"/>
      <point x="258" y="280.39191900000003"/>
    </contour>
    <contour>
      <point x="219.90188236843528" y="-21.333525537887393" type="line"/>
      <point x="165.90188236843528" y="-203.3335255378874" type="line"/>
      <point x="22.098117631564705" y="-160.6664744621126" type="line"/>
      <point x="76.0981176315647" y="21.333525537887393" type="line"/>
    </contour>
    <contour>
      <point x="423.9018823684353" y="21.333525537887393" type="line"/>
      <point x="477.9018823684353" y="-160.6664744621126" type="line"/>
      <point x="334.0981176315647" y="-203.3335255378874" type="line"/>
      <point x="280.0981176315647" y="-21.333525537887393" type="line"/>
    </contour>
    <contour>
      <point x="90" y="-190" type="curve"/>
      <point x="410" y="-190" type="line"/>
      <point x="419.9411255" y="-190"/>
      <point x="428" y="-181.9411255"/>
      <point x="428" y="-172" type="curve"/>
      <point x="428" y="-58" type="line"/>
      <point x="428" y="-48.0588745"/>
      <point x="419.9411255" y="-40"/>
      <point x="410" y="-40" type="curve"/>
      <point x="90" y="-40" type="line"/>
      <point x="80.0588745" y="-40"/>
      <point x="72" y="-48.0588745"/>
      <point x="72" y="-58" type="curve"/>
      <point x="72" y="-172" type="line"/>
      <point x="72" y="-181.9411255"/>
      <point x="80.0588745" y="-190"/>
    </contour>
  </outline>
</glyph>
<glyph name="uni0437" format="2">
  <advance width="500"/>
  <unicode hex="0437"/>
  <outline>
    <contour>
      <point x="362.5" y="540.5" type="line"/>
      <point x="283.0" y="567.5"/>
      <point x="107.5" y="543.5"/>
      <point x="100.0" y="344.6" type="curve"/>
      <point x="92.5" y="283.55"/>
      <point x="230.2" y="290.0"/>
      <point x="246.7" y="278" type="curve"/>
      <point x="283.0" y="211.4"/>
      <point x="409.0" y="261.35"/>
      <point x="403.0" y="161.45" type="curve"/>
      <point x="397.0" y="8.0"/>
      <point x="210.4" y="-8.5"/>
      <point x="92.5" y="21.500000000000004" type="curve"/>
      <point x="109.0" y="147.5" type="line"/>
      <point x="217.0" y="93.5"/>
      <point x="317.5" y="128.0"/>
      <point x="328.0" y="150.35" type="curve"/>
      <point x="334.0" y="250.25"/>
      <point x="266.5" y="244.7"/>
      <point x="236.8" y="282.5" type="curve"/>
      <point x="193.9" y="300.5"/>
      <point x="154.0" y="296.0"/>
      <point x="163.0" y="355.7" type="curve"/>
      <point x="172.0" y="462.5"/>
      <point x="276.4" y="488.0"/>
      <point x="367.0" y="408.5" type="curve"/>
    </contour>
  </outline>
</glyph>
<glyph name="uni0446" format="2">
  <advance width="500"/>
  <unicode hex="0446"/>
  <outline>
    <contour>
      <point x="76" y="150" type="curve"/>
      <point x="190" y="150" type="line"/>
      <point x="199.9411255" y="150"/>
      <point x="208" y="158.0588745"/>
      <point x="208" y="168" type="curve"/>
      <point x="208" y="537" type="line"/>
      <point x="208" y="546.9411255"/>
      <point x="199.9411255" y="555"/>
      <point x="190" y="555" type="curve"/>
      <point x="76" y="555" type="line"/>
      <point x="66.0588745" y="555"/>
      <point x="58" y="546.9411255"/>
      <point x="58" y="537" type="curve"/>
      <point x="58" y="168" type="line"/>
      <point x="58" y="158.0588745"/>
      <point x="66.0588745" y="150"/>
    </contour>
    <contour>
      <point x="244" y="0" type="curve"/>
      <point x="358" y="0" type="line"/>
      <point x="367.9411255" y="0"/>
      <point x="376" y="8.0588745"/>
      <point x="376" y="18" type="curve"/>
      <point x="376" y="537" type="line"/>
      <point x="376" y="546.9411255"/>
      <point x="367.9411255" y="555"/>
      <point x="358" y="555" type="curve"/>
      <point x="244" y="555" type="line"/>
      <point x="234.0588745" y="555"/>
      <point x="226" y="546.9411255"/>
      <point x="226" y="537" type="curve"/>
      <point x="226" y="18" type="line"/>
      <point x="226" y="8.0588745"/>
      <point x="234.0588745" y="0"/>
    </contour>
    <contour>
      <point x="58" y="0" type="line"/>
      <point x="440" y="0" type="line"/>
      <point x="440" y="150" type="line"/>
      <point x="58" y="150" type="line"/>
    </contour>
    <contour>
      <point x="244" y="-210" type="curve"/>
      <point x="358" y="-210" type="line"/>
      <point x="367.9411255" y="-210"/>
      <point x="376" y="-201.9411255"/>
      <point x="376" y="-192" type="curve"/>
      <point x="376" y="-68" type="line"/>
      <point x="376" y="-58.0588745"/>
      <point x="367.9411255" y="-50"/>
      <point x="358" y="-50" type="curve"/>
      <point x="244" y="-50" type="line"/>
      <point x="234.0588745" y="-50"/>
      <point x="226" y="-58.0588745"/>
      <point x="226" y="-68" type="curve"/>
      <point x="226" y="-192" type="line"/>
      <point x="226" y="-201.9411255"/>
      <point x="234.0588745" y="-210"/>
    </contour>
  </outline>
</glyph>
<glyph name="uni0447" format="2">
  <advance width="500"/>
  <unicode hex="0447"/>
  <outline>
    <contour>
      <point x="76" y="250" type="curve"/>
      <point x="190" y="250" type="line"/>
      <point x="199.9411255" y="250"/>
      <point x="208" y="258.0588745"/>
      <point x="208" y="268" type="curve"/>
      <point x="208" y="537" type="line"/>
      <point x="208" y="546.9411255"/>
      <point x="199.9411255" y="555"/>
      <point x="190" y="555" type="curve"/>
      <point x="76" y="555" type="line"/>
      <point x="66.0588745" y="555"/>
      <point x="58" y="546.9411255"/>
      <point x="58" y="537" type="curve"/>
      <point x="58" y="268" type="line"/>
      <point x="58" y="258.0588745"/>
      <point x="66.0588745" y="250"/>
    </contour>
    <contour>
      <point x="244" y="0" type="curve"/>
      <point x="358" y="0" type="line"/>
      <point x="367.9411255" y="0"/>
      <point x="376" y="8.0588745"/>
      <point x="376" y="18" type="curve"/>
      <point x="376" y="537" type="line"/>
      <point x="376" y="546.9411255"/>
      <point x="367.9411255" y="555"/>
      <point x="358" y="555" type="curve"/>
      <point x="244" y="555" type="line"/>
      <point x="234.0588745" y="555"/>
      <point x="226" y="546.9411255"/>
      <point x="226" y="537" type="curve"/>
      <point x="226" y="18" type="line"/>
      <point x="226" y="8.0588745"/>
      <point x="234.0588745" y="0"/>
    </contour>
    <contour>
      <point x="76" y="220" type="curve"/>
      <point x="422" y="220" type="line"/>
      <point x="431.9411255" y="220"/>
      <point x="440" y="228.0588745"/>
      <point x="440" y="238" type="curve"/>
      <point x="440" y="352" type="line"/>
      <point x="440" y="361.9411255"/>
      <point x="431.9411255" y="370"/>
      <point x="422" y="370" type="curve"/>
      <point x="76" y="370" type="line"/>
      <point x="66.0588745" y="370"/>
      <point x="58" y="361.9411255"/>
      <point x="58" y="352" type="curve"/>
      <point x="58" y="238" type="line"/>
      <point x="58" y="228.0588745"/>
      <point x="66.0588745" y="220"/>
    </contour>
  </outline>
</glyph>
<glyph name="uni0448" format="2">
  <advance width="500"/>
  <unicode hex="0448"/>
  <outline>
    <contour>
      <point x="76" y="0" type="curve"/>
      <point x="190" y="0" type="line"/>
      <point x="199.9411255" y="0"/>
      <point x="208" y="8.0588745"/>
      <point x="208" y="18" type="curve"/>
      <point x="208" y="537" type="line"/>
      <point x="208" y="546.9411255"/>
      <point x="199.9411255" y="555"/>
      <point x="190" y="555" type="curve"/>
      <point x="76" y="555" type="line"/>
      <point x="66.0588745" y="555"/>
      <point x="58" y="546.9411255"/>
      <point x="58" y="537" type="curve"/>
      <point x="58" y="18" type="line"/>
      <point x="58" y="8.0588745"/>
      <point x="66.0588745" y="0"/>
    </contour>
    <contour>
      <point x="236" y="0" type="curve"/>
      <point x="350" y="0" type="line"/>
      <point x="359.9411255" y="0"/>
      <point x="368" y="8.0588745"/>
      <point x="368" y="18" type="curve"/>
      <point x="368" y="537" type="line"/>
      <point x="368" y="546.9411255"/>
      <point x="359.9411255" y="555"/>
      <point x="350" y="555" type="curve"/>
      <point x="236" y="555" type="line"/>
      <point x="226.0588745" y="555"/>
      <point x="218" y="546.9411255"/>
      <point x="218" y="537" type="curve"/>
      <point x="218" y="18" type="line"/>
      <point x="218" y="8.0588745"/>
      <point x="226.0588745" y="0"/>
    </contour>
    <contour>
      <point x="244" y="0" type="curve"/>
      <point x="358" y="0" type="line"/>
      <point x="367.9411255" y="0"/>
      <point x="376" y="8.0588745"/>
      <point x="376" y="18" type="curve"/>
      <point x="376" y="537" type="line"/>
      <point x="376" y="546.9411255"/>
      <point x="367.9411255" y="555"/>
      <point x="358" y="555" type="curve"/>
      <point x="244" y="555" type="line"/>
      <point x="234.0588745" y="555"/>
      <point x="226" y="546.9411255"/>
      <point x="226" y="537" type="curve"/>
      <point x="226" y="18" type="line"/>
      <point x="226" y="8.0588745"/>
      <point x="234.0588745" y="0"/>
    </contour>
    <contour>
      <point x="58" y="0" type="line"/>
      <point x="440" y="0" type="line"/>
      <point x="440" y="150" type="line"/>
      <point x="58" y="150" type="line"/>
    </contour>
  </outline>
</glyph>
<glyph name="uni044E" format="2">
  <advance width="500"/>
  <unicode hex="044E"/>
  <outline>
    <contour>
      <point x="72" y="0" type="curve"/>
      <point x="186" y="0" type="line"/>
      <point x="195.9411255" y="0"/>
      <point x="204" y="8.0588745"/>
      <point x="204" y="18" type="curve"/>
      <point x="204" y="537" type="line"/>
      <point x="204" y="546.9411255"/>
      <point x="195.9411255" y="555"/>
      <point x="186" y="555" type="curve"/>
      <point x="72" y="555" type="line"/>
      <point x="62.0588745" y="555"/>
      <point x="54" y="546.9411255"/>
      <point x="54" y="537" type="curve"/>
      <point x="54" y="18" type="line"/>
      <point x="54" y="8.0588745"/>
      <point x="62.0588745" y="0"/>
    </contour>
    <contour>
      <point x="72" y="246" type="curve"/>
      <point x="156" y="246" type="line"/>
      <point x="165.9411255" y="246"/>
      <point x="174" y="254.0588745"/>
      <point x="174" y="264" type="curve"/>
      <point x="174" y="378" type="line"/>
      <point x="174" y="387.9411255"/>
      <point x="165.9411255" y="396"/>
      <point x="156" y="396" type="curve"/>
      <point x="72" y="396" type="line"/>
      <point x="62.0588745" y="396"/>
      <point x="54" y="387.9411255"/>
      <point x="54" y="378" type="curve"/>
      <point x="54" y="264" type="line"/>
      <point x="54" y="254.0588745"/>
      <point x="62.0588745" y="246"/>
    </contour>
    <contour>
      <point x="432" y="278" type="curve"/>
      <point x="432" y="412.757479"/>
      <point x="375.5878785" y="522"/>
      <point x="306" y="522" type="curve"/>
      <point x="236.4121215" y="522"/>
      <point x="180" y="412.757479"/>
      <point x="180" y="278" type="curve"/>
      <point x="180" y="143.242521"/>
      <point x="236.4121215" y="34"/>
      <point x="306" y="34" type="curve"/>
      <point x="375.5878785" y="34"/>
      <point x="432" y="143.242521"/>
    </contour>
    <contour>
      <point x="314" y="278" type="curve"/>
      <point x="314" y="226.08523350000002"/>
      <point x="310.418278" y="184"/>
      <point x="306" y="184" type="curve"/>
      <point x="301.581722" y="184"/>
      <point x="298" y="226.08523350000002"/>
      <point x="298" y="278" type="curve"/>
      <point x="298" y="329.9147665"/>
      <point x="301.581722" y="372"/>
      <point x="306" y="372" type="curve"/>
      <point x="310.418278" y="372"/>
      <point x="314" y="329.9147665"/>
    </contour>
  </outline>
</glyph>
<glyph name="uni044F" format="2">
  <advance width="500"/>
  <unicode hex="044F"/>
  <outline>
    <contour>
      <point x="244" y="0" type="curve"/>
      <point x="358" y="0" type="line"/>
      <point x="367.9411255" y="0"/>
      <point x="376" y="8.0588745"/>
      <point x="376" y="18" type="curve"/>
      <point x="376" y="537" type="line"/>
      <point x="376" y="546.9411255"/>
      <point x="367.9411255" y="555"/>
      <point x="358" y="555" type="curve"/>
      <point x="244" y="555" type="line"/>
      <point x="234.0588745" y="555"/>
      <point x="226" y="546.9411255"/>
      <point x="226" y="537" type="curve"/>
      <point x="226" y="18" type="line"/>
      <point x="226" y="8.0588745"/>
      <point x="234.0588745" y="0"/>
    </contour>
    <contour>
      <point x="398" y="398" type="curve"/>
      <point x="398" y="480.8427125"/>
      <point x="329.947282" y="548"/>
      <point x="246" y="548" type="curve"/>
      <point x="162.052718" y="548"/>
      <point x="94" y="480.8427125"/>
      <point x="94" y="398" type="curve"/>
      <point x="94" y="315.1572875"/>
      <point x="162.052718" y="248"/>
      <point x="246" y="248" type="curve"/>
      <point x="329.947282" y="248"/>
      <point x="398" y="315.1572875"/>
    </contour>
    <contour>
      <point x="254" y="398" type="curve"/>
      <point x="254" y="393.581722"/>
      <point x="250.418278" y="390"/>
      <point x="246" y="390" type="curve"/>
      <point x="241.581722" y="390"/>
      <point x="238" y="393.581722"/>
      <point x="238" y="398" type="curve"/>
      <point x="238" y="402.418278"/>
      <point x="241.581722" y="406"/>
      <point x="246" y="406" type="curve"/>
      <point x="250.418278" y="406"/>
      <point x="254" y="402.418278"/>
    </contour>
    <contour>
      <point x="311.93507364051476" y="203.70287653818505" type="line"/>
      <point x="143.93507364051473" y="-42.29712346181494" type="line"/>
      <point x="20.064926359485263" y="42.29712346181494" type="line"/>
      <point x="188.06492635948527" y="288.2971234618149" type="line"/>
    </contour>
  </outline>
</glyph>
<glyph name="uni0457" format="2">
  <advance width="250"/>
  <unicode hex="0457"/>
  <outline>
    <contour>
      <point x="130.5" y="615" type="curve"/>
      <point x="130.5" y="639.024386625"/>
      <point x="111.024386625" y="658.5"/>
      <point x="87.0" y="658.5" type="curve"/>
      <point x="62.975613375" y="658.5"/>
      <point x="43.5" y="639.024386625"/>
      <point x="43.5" y="615" type="curve"/>
      <point x="43.5" y="590.975613375"/>
      <point x="62.975613375" y="571.5"/>
      <point x="87.0" y="571.5" type="curve"/>
      <point x="111.024386625" y="571.5"/>
      <point x="130.5" y="590.975613375"/>
    </contour>
    <contour>
      <point x="206.5" y="615" type="curve"/>
      <point x="206.5" y="639.024386625"/>
      <point x="187.024386625" y="658.5"/>
      <point x="163.0" y="658.5" type="curve"/>
      <point x="138.975613375" y="658.5"/>
      <point x="119.5" y="639.024386625"/>
      <point x="119.5" y="615" type="curve"/>
      <point x="119.5" y="590.975613375"/>
      <point x="138.975613375" y="571.5"/>
      <point x="163.0" y="571.5" type="curve"/>
      <point x="187.024386625" y="571.5"/>
      <point x="206.5" y="590.975613375"/>
    </contour>
    <component base="i"/>
  </outline>
</glyph>
